<mxfile host="app.diagrams.net" agent="Mozilla/5.0 (Windows NT 10.0; Win64; x64) AppleWebKit/537.36 (KHTML, like Gecko) Chrome/129.0.0.0 Safari/537.36" version="24.7.17">
  <diagram name="Page-1" id="k9RtVQlV0QM2VQL5HrNC">
    <mxGraphModel dx="2045" dy="622" grid="1" gridSize="10" guides="1" tooltips="1" connect="1" arrows="1" fold="1" page="1" pageScale="1" pageWidth="850" pageHeight="1100" math="0" shadow="0">
      <root>
        <mxCell id="0" />
        <mxCell id="1" parent="0" />
        <mxCell id="ML4Psx4uvvqS0k3KW8NW-20" value="" style="rounded=0;whiteSpace=wrap;html=1;" vertex="1" parent="1">
          <mxGeometry x="-10" y="110" width="690" height="280" as="geometry" />
        </mxCell>
        <mxCell id="ML4Psx4uvvqS0k3KW8NW-7" style="edgeStyle=orthogonalEdgeStyle;rounded=0;orthogonalLoop=1;jettySize=auto;html=1;exitX=1;exitY=0.25;exitDx=0;exitDy=0;entryX=1;entryY=0.75;entryDx=0;entryDy=0;" edge="1" parent="1" source="ML4Psx4uvvqS0k3KW8NW-4" target="ML4Psx4uvvqS0k3KW8NW-2">
          <mxGeometry relative="1" as="geometry" />
        </mxCell>
        <mxCell id="ML4Psx4uvvqS0k3KW8NW-9" value="Serial Command" style="edgeLabel;html=1;align=center;verticalAlign=middle;resizable=0;points=[];" vertex="1" connectable="0" parent="ML4Psx4uvvqS0k3KW8NW-7">
          <mxGeometry x="0.2111" y="-2" relative="1" as="geometry">
            <mxPoint x="-19" y="6" as="offset" />
          </mxGeometry>
        </mxCell>
        <mxCell id="ML4Psx4uvvqS0k3KW8NW-18" style="edgeStyle=orthogonalEdgeStyle;rounded=0;orthogonalLoop=1;jettySize=auto;html=1;exitX=0;exitY=0.75;exitDx=0;exitDy=0;" edge="1" parent="1" source="ML4Psx4uvvqS0k3KW8NW-4" target="ML4Psx4uvvqS0k3KW8NW-17">
          <mxGeometry relative="1" as="geometry" />
        </mxCell>
        <mxCell id="ML4Psx4uvvqS0k3KW8NW-4" value="" style="rounded=0;whiteSpace=wrap;html=1;" vertex="1" parent="1">
          <mxGeometry x="130" y="190" width="170" height="170" as="geometry" />
        </mxCell>
        <mxCell id="ML4Psx4uvvqS0k3KW8NW-8" style="edgeStyle=orthogonalEdgeStyle;rounded=0;orthogonalLoop=1;jettySize=auto;html=1;exitX=1;exitY=0.25;exitDx=0;exitDy=0;entryX=1;entryY=0.75;entryDx=0;entryDy=0;" edge="1" parent="1" source="ML4Psx4uvvqS0k3KW8NW-2" target="ML4Psx4uvvqS0k3KW8NW-4">
          <mxGeometry relative="1" as="geometry" />
        </mxCell>
        <mxCell id="ML4Psx4uvvqS0k3KW8NW-10" value="Serial Output/Event" style="edgeLabel;html=1;align=center;verticalAlign=middle;resizable=0;points=[];" vertex="1" connectable="0" parent="ML4Psx4uvvqS0k3KW8NW-8">
          <mxGeometry x="-0.2222" y="4" relative="1" as="geometry">
            <mxPoint x="-15" y="9" as="offset" />
          </mxGeometry>
        </mxCell>
        <mxCell id="ML4Psx4uvvqS0k3KW8NW-2" value="" style="shape=image;verticalLabelPosition=bottom;labelBackgroundColor=default;verticalAlign=top;aspect=fixed;imageAspect=0;image=data:image/png,iVBORw0KGgoAAAANSUhEUgAAAlgAAAJYCAYAAAC+ZpjcAAAAAXNSR0IArs4c6QAAIABJREFUeJzs3Xl4VfWdP/D32e6ee2/Wm4UkhABhkVVAZVM2iyyKlaltx+q0daa1deZX7dSn9plpp8/M+My0U2t92pkuY2ttrdMp1aIgtGi1Am64IFtAEyAJCYQQIGS7y1l+f5wlNys5Nxeszvv1PH2kN/ee7znf9XPO+Z7vAYiIiIiIiIiIiIiIiIiIiIiIiIiIiIiIiIiIiIiIiIiIiIiIiIiIiIiIiIiIiIiIiIiIiIiIiIiIiIiIiIiIiIiIiIiIiIiIiIiIiIiIiIiIiIiIiIiIiIiIiIiIiIiIiIiIiIiIiIiIiIiIiIiIiIiIiIiIiIiIiIiIiIiIiIiIiIiIiIiIiIiIiIiIiIiIiIiIiIiIiIiIiIiIiIiIiIiIiIiIiIiIiIiIiIiIiIiIiIiIiIiIiIiIiIiIiIiIiIiIiIiIiIiIiIiIiIiIiIiIiIiIiIiIiIiIiIiIiIiIiIiIiIiIiIiIiIiIiIiIiIiIiIiIiIiIiIiIiIiIiIiIiIiIiIiIiIiIiIiIiIiIiIiIiIiIiIiIiIiIiIiIiIiIiIiIiIiIiIiIiIiIiIiIiIiIiIiIiIiIiIiIiIiIiIiIiIiIiIiIiIiIiIiIiIiIiIiIiIiIiIiIiIiIiIiIiIiIiIiIiIiIiIiIiIiIiIiIiIiIiIiIiIiIiIiIiIiIiIiIiIiIiIiIiIiIiIiIiIiIiIiIiIiIiIiIiIiIiIiIiIiIiIiIiIiIiIiIiIiIiIiIiIiIiIiIiIiIiIiIiIiIiIiIiIiIiIiIiIiIiIiIiIiIiIiIiIiIiIiIiIiIiIiIiIiIiIiIiIiIiIiIiIiIiIiIiIiIiIiIiIiIiIiIiIiIiIiIiIiIiIiIiIiIiIiIiIiIiIiIiIiIiIiIiIiIiIiIiIiIiIiIiIiIiIiIiIiIiIiIiIiIiIiIiIiIiIiIiIiIiIiIiIiIiIiIiIiIiIiIiIiIiIiIiIiIiIiIiIiIiIiIiIiIiIiIiIiIiIiIiIiIiIiIiIiIiIiIiIiIiIiIiIiIiIiIiIiIiIiIiIiIiIiIiIiIiIiIiIiIiIiIiIiIiIiIiIiIiIiIiIiIiIiIiIiIiIiIiIiIiIiI/nwI7/cOfEDEAEwXRXG+KIpXAZggimKvYRjh93vHiIiIaGSCIHTouh4BcBzAXlVVdwOoB3DkkqV5qTb8IfJRRVHu9ng8kz0eT5ksy5AkCaIovt/7RURERKNkGAZUVYWmaUilUmdTqdSheDy+FcC/XYr0GGANLyTL8q/9fv/VOTk5ee/3zhAREVF29fb2dnV2dtapqvqXAA5lc9tSNjf2ITJfUZQ/RaPReYFAwP9+7wwRERFln6IoHp/PV6xp2i2GYXQYhvFWtrbNAGsAv9//F4qi/E9+fn6xJDF7iIiIPsxEUYTf7w+pqrpckiS/qqovZGO7jCD6UwA8X1BQUDCaL/t8XpSWlcHn86K7u/sS7xpQWVmBSDSCjo6OS55WrDiG/Px8JBIJqKp6SdOKRCIoLo4BApCIJy5pWj6fD6WlJfD5/ejuukxlFgmjo+PCJU8rFoshvyAf8UQcmqpd0rTsfBQEAfFLXGaAmY+Xq53Z+Xg52lk0GkFRLHZZ2pnX58W4sjL4fL7L1l9FL1d/FYshPz8PiUTy0vdX0QhisRgAIJG4DP1VWellLbMPY39lt7OLjTE+n88Tj8evsAKslrGmK491Ax8mHo/nqXA4XHix7y1duhjTp09FOByCrhsQBAGCAJw4cRK7dr2MhobGrO3T5JpJWLx4IQry8wAYMAwz2j7ddgYHD9Ti9df3ZC2t4uIYFi26BhMnVUPXNAjWDL3Ozm68V1ePXTtfRjwez0paXq8Xq65fgYnVVfB4PDAMHYIgIpFMovlEC3bs+GNWO+YlSxfjiiumIScURHo+Np1oxu7dr6LheEPW0qqpmYxFi65GYWEBdF238lHAmTPt2H/gEPa8/kbW0orFirBkySJUV1fBMAwYhg7RyseDBw/jpZd2ZW0Q8Pl8WLlyOSZOmgCPYnYdhgFIkoT33qvH88+/gPPns1dmS69dgunTpiAczumfj+1nsWvXy3j3yHtZS2u4dnbhQicOHqzFSy/tylpa0WgEK1Ysw6RJ1dDS2lkqpeK9947iuef+mNV2ZvdXXo8C3WpngiCgvv4Ydu7cjdbW01lJCwAWLJiHefPmIjSgnbW1ncHu3a/iyJF3s5ZW5fhKLFp0NcrHlfWrH51dXTiw/xB27tydtbQikQhWrVqOsnGl8Kb1V8lkEnX1x7DjD89ntZ0tXrIQkyZWIycnCMBsZ6Ikoe69euza/QpaT7VmJS0AWHDVfEyfPhVFA/urS9DOKisrsHjxQowbV2r1VwZEUcCFC104cLAWO7PdzlYuR/m4MrO/stpZMqWi7r16PPfcC0O2s3A4nK+q6q9TqdSEse4DJ7n3uSUUCj0WDocDw30hFivC2rWrkZcXha6p0DUNhmEAAARRhCTJkGQFb739zpiDEZ/Ph7VrV6N6wnioagq6rsHQdTMtQYAoyZBkGS0trdiyZduYg5GlSxfj6qvnQ1NT0DQVhqEDhpmWIEqQZBnd3b149tnfjzmAnFwzGWtuWAVZEqFpKnRdN3sQmJ2IKMlQVR0vv/LamIORWHEMa9d8BPl5udC01DBlJuOtt/dh187dY7oa4/N5sXbdGkyoqoSupaBpA8tMgiQraG45hWe3bh9zMLJgwTwsW7YEaso8Ll23zgIFAaIoQZIkdPfEs1JmlZUVuPnm9ZAlCZqWgqHrZj4KgChIEGUZqqrh5VdeH3OZRSIRrF23GmUlxUOWmShKkBUFb721D7t2jb2dLV68EHPnzjTb2VBlJiloPnkKW7dsH3M7W7BgPq65Zj5kWYKuqtANLa2diZAkBaqm4amnnslKma1Z8xEEA36rnWl97UyUIEpmPv7xhZ1jLrNoNII1a1ejrLQYmpqCrulmHwK7nUkQJQVHjzVg65Znx9zOFi9ZhLlzZkJTVbO/Si8z0Wxn7WfPYevW36O1dWzByIIF83DNwqsgS6LT71uJQbT6EFXT8ey2HXh3jAGkU2ZBPzRVhaFrTjsThL4x5pVXX8fOl8YWQEYiEaxbdwNKS2PQVBW6pg5uZ7KC+mPHsXXL9rG3syULMXfOrL4xZkA7EyUZZ8+ez0qZzZw1A8uuWwpFHjDGDCizbdt2DBn09/T06F1dXd9SVfX+sewHbxGa/IqifD8vL2/icF+IRCK4/fZPwu/3QE0mkUomoKlJqMmE1ejMoMTQdZSNK0VhURFqDx3OeIduvXUjKspLkUzGoaYSfemlktB1zWzkhoFwOAdTp03Fvn0HoGmZXWZdunQxrrrqSjOdRAKqmoSaTEJTU1DVvuPy+byYOWsG6uqPZnx7raKyAn+xcQMMXUUqmUQqGYeW6jsuTVUBQ4ckiaiurkYypaKlObMrtT6fD5/+q08hEPAilUxATSaQSiWgqilrEDCDEsMwUFpagqKiGA6Nocw+/vGPobysxCkvNWXWD02zBgHDgKHriEYiqJlSgwMHDmV8O2PJ0sVYsvhqJBNmOmb9SJn56AwCBjweBbNmzURdXX3Gtxgqx1fi1ltvgaFrSCXj/dLTVDPY0nUNkiRjwoQqqJqG5gzLzOvz4m/+5jMIhwJIpdd7q51pmgpY+VhWVorCwkLU1mZeZjdtWI9pUyYjlYib7TqVgJYy81Gz6wcMRMI5mD1nNt7e+07GtzMWXDUf1167CHDyMYGU085SVjvTIMsyZsycgRMnWjIO6GKxItx228chCuhfH+125tRHA9UTJ0AUJTQ2NmWUls/nw6c+9Unk50bMfEyZ7XpgOwMM5OflobyyAvv3HcgoLQDYcPNNmFIzEalkwqmPairZb+DWDQ3BYBDTr5iOvXv3ZdzOFiyYh+uuWwJDSzn9o6amkLLamWYF/6Io4oorpuHEiebMy6w4httu+zgkUXDyUU3vr5yTbAMV5eWQZSXjINzr9eKOO/4SudGwVT/iVr9v9VdWP6wbOvLz8zGufBz27z+YUVoAsPqG6zHjiqnWcZl9sd1fme3MbNeBoB9XzJiO2tojGV8RrKmZjHVrPwIY2qD+sa+/0iHLMqZNm4ozZ86ivb293zYURRGSyWTQWisr40u8DLBMUzwez9/5/f6c4b6w8S9uRk4oYAVXfUGPYRiI5uejqCiGnHAYoVAQfr8PkUgYra1nBhXcaCxYMA8zZkxF0upAUlYlUdUkQuEoSkpKkROJIBgKIhgMwO/1QhAlHD16zHVasVgM69attjqPuBmAJOJQUyl4vD6UV1QgHA4jlJODYDAAj0dBfkEB9r79juu0fD4vPvaxWyAK6Nc5ppIJiJKIwlgM+fkFCOXkIBQMwu/3oqCgEIcOHc6osW3YsB65uREr/xJIJhNQk0kYuopobh6KYsVmmQWDCAT8iEQiaG1ty7DM5uOK6VOsdOJOEK6qSQSDIZSWjUNOOAehUAiBgB9+vw+CkGmZFWH9+tVW0Bi3Bk+z01K8XpSNK0ckErHKLAivV0FBQSHezqjMfPjYX3wUkoh+5aWmkhBgoLCwGPkFBVY+BuD3+1BYWIBDtUcymk9384YbkZcbNoMrq9xSyQR0XUM4movi4pK+dhbwIxqNIB5PZhTQLVgwD3NmzzDbWNIsNy1pDtb+QBBl48YhHAkjFAo5dT8Szc3oxCkSjWD9utXWiYUV7Fv5qCgKSsaVIxqJOu3M5/UiFotlHITfeust8CiS2c4S5olFKmWWR35hIQoKC836aLWz4pJivPtuXUZB+LJl16J8XElavTf/q6aSiObmImaVWdBqZznBEHrjiYzKrKZmMq6+ap6Vf3EnH7VUEn6fH2XlFciJhBEKmfno9SoIhyMZBeGRSAQ33rgGupay8tHqH5NJKLKC4tIy5Obmmv1VKAifz4OisZTZx26B1yMjmYj3BT0pc4zJLyxAYWFRXzsL+FBSEsO779VndLK7fPl1KC8vdfIx5fRXKsKRiDnGWO0sEPAjkpOTcZlNrpmEJYuvMfMwZY1nVp+VE4mipLS0XzvzehXk5xdg/373QXgkGsHGjTdbwVW8X/AoyRKKS0qRm5uHnHAOgoEA/H4vSstKsHfv/kFlpqpqbjKZ3IkxLN3A1TIBKIqyWFGUkuH+PmvWTJSWFFtnLmanmIj3mgFPKAeiKEJWFMiyebtJkiQYuoY1az7iel8ikQiWL7/WvIJkDWZmkNULvz8IxaM4admLngIG5syZiVhxzHV6a9etNo8rmUAqlUQq0YtkMg5JlhAKh8207GOTJIiigIL8XCxYMM91WkuWLjFvV6hJZ5BJxHsBwUBOJAJBENLy0bzFJUsCVl2/wnVaFZUVmDBhvBOYJhNxs4NMJhAKR4YuM0PDDTdc7zotn8+HhQsXOGe2aiqJZKIXqUQvfL4AvD6vlVZfPgowMHfuTMRiRa7TW7VqBVTrKovZ4ceRjPdAkiTkhCP96ogkSZBEEXl5USy4ar7rtOYvmIdQMOBcJUgm4kgm4tA1FeFoPiBhUD7KsoyVK5e7TqtyfCUmTKiEqqasATph5mMqYbYzaagy07Fw0VWu0/J6vVi06GozH/vVxx74/D54/IPLDACqJ1SisrLCdXorVy6HIkvOVc1kIo5UvAeiKCAnEjHbc3qZSSJCwQDmZ9DOFlw1H3l5UfMKgXXVNpnotcosCgGD25muaVi5yn2ZxWJF5u3VVApaKmUN1mYdCUcj/cqsLx91LFx4FXw+n+v01qy53rrykejXzrw+Pzx+3xDtTEB1dVVGZbbq+hWQRCGtf0wgGe+FJAnIiUYgKQPLTEIw4MfSpYtdp7VgwTzk5+eaV3RSff2VpqUQieYO6Btlp8zWZjDGFBfHMGfOTLO80vMxGUdOTv/xTE5rZ8uXX4tIJOI6vXVrVzv9hz2eJeK98Pp88Ab8g8pMEkSUlhZj1qwZrtNatXI5FFlEKtnXX6UScQgAwpFcCP36famvvxqi7iuK4vN4POtc70QaBlgABEG4RlGUYeejFRUVmpeD1RR0q7GpqQQ8igeiLAL64FsGuq5DkSXnaZPRKi4274drumpeGk6Z6UmyOWdCMAb/xjDMWzSVFeWu0vL5vCgsyHPuv9uNwDB0KB4PRGGILDEATVVR4TItACgszIduH5cVrOpaCrIsQxAEZ85GOl3XMa5s2Nh3WJWVFea9d02FlrLSS8bh8XqHTcvQdXgU2XVnHIsVQVFkqFrKGtTMwEcURSiK5Mxr6JeWYUBTVdTUTHZ9bGVlJdZl/JTT+QOAoigQBBEYkJwBQNc0TJpY7TqtivJx1jwo1Qnq1GQCXq8PEMxbTAPpmoqJ1VXu06ooh65pznGZHbJ5hUeUREAbqswMKLLkusyKi2PmPCjruOyg325n4sBMhFlmuqahotJ93Z9YXWXVe9W8FaMmoVvtTBAEZ25UOk1LoaJ8nOu0Jk2s7stHLeVcKfN4vBAgmPO+BtB1DePKSl2nVVMz2ew/dOu4UkkkEwl4fB4IgghjiDLTDQ2KIrs+uaisrIAiy86tQDs4EEQBsiwP3c5gQFNTqMggwKqeMB66rln1I+VcSZVlZdgy03UVBYX5rtOqqCh35pOpatKsj6kEPB4fIAD6UPmoaSgszIfP53Wdlq5r5pxDVbWCkQQUj9XO9CHamdVfFbs8iY9Z7Uyz66M1nomSaM5vFAbfRDPbmYqioos+bzZIeXmZ0+/bwaquqVC8HnPC+VDtTFVRWDh44QDrpGq2651IwwALgK7rE0Za86qoqBC6bt6PtgvPnlMAA0MP1oY5CdhtJ1JUVGgGTNa8BU2z7xubTyQYQ3b8ZmNzm1asuNiajKo5801UNeVURFEaXD0MmE+qFRS470TKx5U5k4jtfDSsp1ZEQRhysDZ0DR6Px/WZU0V5mXmv3c5He46LoUEUBHPS48C0rEA1GnWXVmVlBXRdt9IzBxstlXIeIRkqcrefoBmqYY94XJUVzpwnXdf7JvkaujWBUxiihpgDqNu0AJhP++iGM09CU83jsp9WHGqwtvPR7RXVWFGhM8/EnremOfVR6JvEPyAtwzBQ5LadxYrMjtxKT1WtYzMMiBCG6ocB6/uxIndpFRfHnHTs+ZNqKgXBatGiOHTfY+g6xo1zH/QUFRX01Q+rnZkHZEAQMHRQbO2f20C1sKjQHHw187jM9Mx5LoK13cEHZgaqbtOKRiPWnEn7uOz+SgAMfcjBE1Y7Ky8vc5VWJBJxAmo7PU1VYZ+9mCdpQ51caCgf5y4tACgsLOjX76tq31xDAUP3VzB06JqOWHGxq7SKYkX9jss+yYBuPvU5XN9oGLrroCdWVJTWD/e1a1j9viAO2TtC13UUuWxnPp8PiiL3jS+6BlVNmn/UdYiiOEwV0VE4xHgmyzI0TXMf5aVvYyw//rAQRTEwUoBVXl6GRLwHRloFFAXRHNAkCZqqIRGPW8s1mP8zv2tkNFjbDdd+UkvXDUiSAFESYeh6v7QgCM5TLeGwu3dPRyJhmI9Sm52vnZ5gP2khykjEe610zEe77Unh5m9HLxqNOMdlPtFh5aMoQoCZj6lUEolEHALS8tEK6Nyup2N3kHZjNf9tHpcgmk8DDSozzdy/sMtgLpyWj4Z1fH35KMHQjUFlplkDhdvbJE4+Gn3BhT1hUxQESJKMZLwXoiQB9nFZnYrX63GVls08gTCcOm0/iSNIEtTkEGWm6xBEwOd1d2btsfYvvf4LggBAgCiL0FR1cN3X9Yzy0efzmROG7RMkKx8FUQJEc/AcXGbmHA23+ei18sEsN8P5ryCa+SiKIhKJXjMYsdPD0AP4aHg8HiTifU8CG3Y7E8yrBuoQ7czMB8N9Pnq9Tv45xwdAFMx2pg3RzjSnnbnrQ+x22b/+208qmv33oDKzAomoyzZttjNz24b1BJqh6xCtq+2SbM6VMlc0sI7NOpUyDMNcr9DFU8LhcA4S8R7Y7QxOf2X2+0O1M82qr2774og1TtgneebSHQIg2uNZcnA7s/qaysoKV8tf9PX7Rtp4pkGUvE7/aI4xopOPqmpevHAbFMdiRU49BvrGT4jmU7OCaI4xyYTUr8zspxkrKyv6PTQgCAIURenQNK0SQEbr+DDAAqBpWlQY6naYpampGUWFeRBEwQk+IIqQFQ86z53BiYY66KoGwXoBdDCci+LyifD5A64fxW9oaERxzLzSYK9XIyuy+fh2KoWjR/YhFU+YjUEQoChelIyfAn8wBx0X3C0OZ3YAglm5YXfsgKJ4AEFEXe3bONfWanVeAiRRQlF5FcK5hbjgMq3z5zuc7Yui6Dx2LEoSZI8HrS1NaGmotxq1mY/5sTLkFZVBVkTX+Xi+owPFRQWwgyrY+Sh70N3ZiYb6Q87ZIQQBwXAUJRUT4fH6ccHlU0AXOi4ARl+DFUURoiRDlhWkkgk0Hj2Mnq5OJyj3eLwoKq9GTiQX8YS7R5870vLRrh/2Y8eCIKG+di/Onjnt5KMoiigsq0IkrxDJZNJVWjZ7wLfrvz0PpO1kE1oa6szjsv4ezS9GQUkFPLLg+sGEvuOy/mvlo6Io6L5wAU3HaqGpujV4CwiEoigsqUQgHHH9CHkiHjfbq1UP7ZMlWZIAXcfRI/vQ09XVl7+KByXlExEMR4ER+ooh00okkN6+7IFLlsxbTcfra3Gm5QQEsa88C8uqEM1zPz8PgFPOdjsSrCBOVhScPX0KTceOWPVUggEgkl+EwpJK+PwKel3mYzwRdwZhu57IsgxJUZDo7cGx9w7A0AzrSoUAfzCE2Lhq+INhs924YLdLMz27/ktQrHWpjr17AD2dnRAkEQIAj8eHgtJKhHMLcb7jrKu0zP7Kyj+7foii1RdLaHivFu2tzc5xi6KE/OIK5BbEIAiCq+AKAC5c6ITPK6cdnwDZo0BSPOg4146Gdw+a9cNqZ+HcIhSVVcLjVTJI6wJiRflOPRQF0ZwrJ5tPyB89/A6O7H/LameAL5CDorIJCOZEXD+12NfvC2njpwRJkiGKEvbv2Yme7i7rJFuA7PGisHQ8ciL5aGpqdpVWa+tpq1709R+CIELxeCApChqP1uLMqea0flNCblEp8mPmbfihjs0wjCDG8DAgA6xROH26DcWxAicgECUZsiShu7MDnefboXh8kPwyJEmGLxhGMCdizpcSRLSedveE5+nTbX3pWOviCABSqoozDUchigr8QS8kWYbiDSAnmgdZ8UCUJJx2uWBga2srRMmsbJJ1XB6PF4YAnDl5Ar29XfAHwxAlCYrHh2A4F75ACIIgoq3N/ZN2bW1nEI2E+tafkmQoHhln206jp6sD/kDI3A9ZQSicB18gZJ55CILrR5+bmppREis0y0EUIcsKREFAvLsL58+dtuYQSVA8Crz+EELhXCsgkTIKiq+66korIJAgijIUj3l74WRzA3RNRyAYhijL8HoDCOZE4PUFzHw8fcZ1Wn3p9OWjIEpoO3UCiXg3fIEcyIoMWfEiJxyF12/mY6vLtADgxIkWxIryrAcczPWFZFnC+bNn0H2hA75AjhkEyQr8OWEEghFnQD/lcjHExsYTKIkV9qsfoiChN9GLjjOnoSh++PwyRFGGLxRCMBSFYs2pc1/3TzudrCCKkGQZhq4AgoDmhnroGuAP5kCWFSjeAEI5EXh8/oyWMzh1qtW5cipaA4ukKBAkCWdOtaC3pxuBUBiCKEHx+RAKReAL5EAQRZw44f6prdOnzyBWlG/WD1mGqMqQFQkXzrWjs+McfIEcSJI5gTkQDMNv91eigEaXA2jb6TOoqiyHJNr1Q4ZoCEjG42g9cwper99aR0+BzxdEMJIL2eOBKIkZDdZmf2DWD1GS4PF4oBsGmhvroWsa/KEcyLIMj9ePQE7U6q8E14N1R0dH//ohydBk86TpdEszkskeeAM51sMJXgRzwlZbkNDW5r6dtbWdQUV5KURJhmBNvJZlBZ3nz+FCx1mrHxYhyQr81hgjWIGR2zWjWltPo6ZmovV7Kx8FP1LJBFpbGqF4/PDJEgRRhj8QQjAnAsXjhSCIOH26zXVaff2VGVjJigKIIhrr34WhGwiEciCKChSvF6FwLnz+IERRwmmXY2c8HkcqpTrlZa8FKIoy2lpOIN7TbeajaAblwVAUvmAOBEHEmTPux7PRYIA1CqdPn4YozYAsK9BUFYqiWevWGPAHI9alfgmKxwtZ8UKSFUiSBFXTXK+4e+pUK0RZhqTKkBWPubaVYCCVSMAfyoFhGM5icx6vz+koM+n44/EEOju74fd5IKopyIoHuq4jlUhBkhWEcnKtKz8eyIoHisdnLZYpZ7RmzokTLcjLnWrmj6xCVjSkUimIoohAKGKdSclmPnrMp7hESUL90eOu02ptbYUkK+ZxyR5zDoCmQtU0BEO5MADrSowCxeuzFm5VkFRV1x1/a+tppFLm5FdNMvMRgoFkMgmfP2iddYpQFA8kxQvF63UWOM1kZesTzS0oLiroy0dDRyqZtAJt2VocU4bi9UFSPGY+SBLeq6t3nVZj0wmUlsQgSn31Q9VUACKCORFAEKygy2PWR2tgqKt3v/xEY0Mjrrl6nnVcKci6x1qXSoU/FHYGPLOdecygWZKgqrrrYO7UqVaoqm6eLCmKOU8JQLy3F76g3c7MRUYVrw+ypy8fGxtPuD62uvpjGF85zjwuq10nk0lIigehsMdqZ4rZzrx+sz5KMhqb3Kf1Xl09SkqKzHxUVSgeHVoqCQMCAjlmOxMkMx8Vq78SJQknmk+6TuvIkXdxzTXznUVL7fmOyUQcwZxcGDCs8lTg8fTVj1RKdb2CfENDI1Kq6rRrRfHA0HWkEgn4/CGnnfXvr8x2ncnK5/VHj6OyvBSyokDTVCi6jkQ8CcXnhWQ9eCFKCjxWfyUpCkRRzigobmxsQlVVBSRVhqJ4rPll5lploZwoAJjtTFH66oesoLOz2/WirQ2NTc4iopqagqx4zeXbD9QhAAAgAElEQVQMUkkz0LfamZmPXrMPsfort+2stbUVKVWzntZToMnmMSV64wiEcmDohrMAs8frc8ZPUZJxOoMTwqamZoyvHGe1a4/1kEISkqJYV58BWTbrh8fp92WcziAoHg2ugwVAFMX/FwwGc4e7TdjaehpVE8YjnJO2TJYgOGe+kuxxgiuz0zIb9zNbtrteUymRSEAUJVSUl8OAPbPdvA8virJTOexBRvH4ICse7H3nAPbt2+/62BsbT2DO3FnW3E1r3pA1x0CSZcgej3U85vF5PF6cPdeBLVu2uU6rubkZ06+YDq9HMT+w0nKujCiKFVj1HZ9uCPjtbze7vt3U3n4WJSUlyMvLNee7WHORzCt1khXseJxBxgzqPNi65feuy0xVVei6gaqq8dYUWMPp7M3BRYaimNtPryd79+7HvgwWXDzdehpz587um6Mj9K3MbQc7ffXQTO/c+QsZldnp1tOYPn2aNe/IOi4rPUmWnU5YGVBuzzz9rOs1lTo6Opwysw/NqR+SOUjL6fXeY6a7c+fLrgN+zZp0O2HCeGe+C2DnoxkESEr/8pI9Xhw/3oRXXn7VVVoAcLb9HObMmQX7wRjBusVvD1x2UGAP1orHi57eBLZu3e56TaXm5hZMmVKDQMAPABBgz5vra2eKp68fsev/U08+7brMuru7EQgEUFpaYs07ND+366OieKz0zPrv8ZiD6K5dr2S0SOa5c+cxdWqNM6FdsOZ62f2VovTVQ8VK7+jxRuzK4LU5zc0tmDV7pjnFAPZxiWlXcpV+9V5RPOjpTWDz5i0Zl1kwGHDmbwoCnJMlu37IHl9fu/Z48MT/bHK9DlZ3VzcCgSBKSuzJ8YYzncBsZ2a/L1sng/Z49sqre/Duu+5fm3P27DlMmzrVeUDLvg1ut7P+45nZ3k62nsaOHc+7Tqu55SRmzZoBWZJgWP0VBDGtnfUvL8XrhaYD//u/vx2yzHp7ezs0Tfs5gHOudwYMsABcPMACgMaGJsyeM8t8jFuwb6vJ1hwRjxlkea3O2OvDsWONGb8Lq7GhEVOmTkEoFII9h0i0BmtZNq/wSIrdWXnQG0/id797JqOV3Lu7uyFJMioqys175BAgypJzBiCldSIe6/g2bXoKXRksbqeqGtrazmDWrJmw31FmByFmPqan47EGz1cyWowTAI4ePY4r582FbL03T0oLQiT7SpnTWXlxvKEp49dPNDe3oGpCFSLhsDVXQrTWoLLPBBXr+LzweH3o7olj8+atGS1I2N3dDVE0lyYwrLk0omjVR1mx5hz0DTKKx4ff/ObJjBaRVFUVbW1nMHPmjL5O33nNiscKevoH/X96aXfGrwyprz+GefOvhGzdsnJeC2WlJ8tWEGIFIy0nT2P79j9klFZzcwuqqqqcB1HM+ig5V1nMzlix8tELHQIe/+X/ZNzOUqqGCRPGO3Nf7Nvy/dqZp++k6Xebt6A9w1sXLS0nceWVc9Fv8JT7+qv0kzOPx4dXXtuT8VsMWlpOYvoV0+H3++D0VwPbmWz2i7LiwcnW09i+LbMya29vR2lZGfLy8/rlY18Q0j8fNR144lf/m1E7SyQS0HQD1dXmK+nsBwWc/srjtcrN51wRefKpZzJaqBgATp48hblz51hBqn1Snd7OvObJk9UPv/bamzh0sDajtJqbWzBjxhXwej3OHFVnHTvr6rBzcuH14ey5Dmz+3TMZpdXefhYlpSXIL8h3jsvMx74AyzwpNK8UG4aAX//6txktLp2IJ6AbQNWEKnOZIWeclgaNZ3Y+btmyfdjbrAywsmA0AVYikcCxY8dRUVGJUE7IGqytM117kLEq/969B/Dcc38c01vda2uPoLCoCAUFBU7n6HQiaZXk5Kk2/Pa3vxvTm9YbGhohyQoqKyv7ztAGRfw+9PQk8NRTz2T8GhTAvEpx5kw7Jk6aaK1vJPXrROwgSzcE7Nz5Cl4fwzvSVFXFsWMNKC8vR05Ojjl4DrhioHg8UBQv9r5zAM/teN56giUz7737HopiMeRbZdZ3ppuWnteLkydb8eSTmzMKUm2NjU0QZRlV4yvT3vVmDdaKddVR8aCnN5mlMjuLiRP7ysy+MudcUbWCxz/9afeYXkCuaRqOHT2O8soK5IRC1pxHyVqIsH8wV3v4PWzdum1M7ey99+oQDkdQXFLsdPqDBmvFg3PnL+DJ324e07sIm5tboKo6qqsn9AVzA9uZYp5Rb9myHfX1RzNOq7u7GydONKOqqgp+v69v7qjVX/UFWV688tobY3qvnaqqqKurR0lpKaK50b65gXJffyVbg/Xx403Y/LtnxtTOjh49Cq/Xj3FlZdZtOtmZKmHXf/tK+5NPPj2mMmtpbkEqpaLcejXNcIO1bgjYsmUbjo6hzLq6zDIbX1UFf8DvnFT3a2dWPr762htjejGypml49906lJaVIRqN9s2RsttZ2pWe48cb8dvf/m5M7ezo0ePwen0YV17Wb45lX39lBsXnzl3Ak09uRnu7u4cS0pntTMO48nHweDzO1XannVlX+O12NtI0jbEGWHzZMwBJkuqLioomjBRgpVt1/UpMrK5COByy3j5uRsrtZ85hx3N/dD1RdCSTJ0/CkiULkZ+fB3spAFEUcaGzC2++uRevv5b5YDZQcXEMixZfg4nVE/reqm4AKVXDgQPm2+nH8sLPdF6vF9dfvxLV1ePhSXs7vSAIqK8/hh07/jjmF+umW7J0MWZcMQ2hUMC+SwNRNCfrP//8C2N+sW66mprJWLToGmthVc15UrGrqxv7DxzK6hvjY7EiLFmyCNXVVdZj12Y+JpMp1Ncfwx/+8FzG7/QayOfzYeWq5Zg0cYK5OCzMfJQkCe/VHcWuXS9nNNdlOEuXLsb06VP7tzMIaG8/i507X87odsVwhmxngtnODh6sxUtZLDOznS3ExOoqp50ZhhmovFd3FM/t+GP22pnPamcTquDxKIPa2c6du13PhRpJXzsL9i3ZIIpoazuD3btfzWjO4XAqKyuwYuUyFBYM0c72H8z4DsJQIpEIVl2/HNUTLk87W7JkEa64YhoUxbwGYl/xr6s/ht27XnY9F2okC66ajyuvnI1wTo6Zj5ewnVVUVmDVyuXIL8h1lvYQBBGdnV1OPmZLNBrFipXLMHHiBBiaZq3fZ7azpqZmbNmy7aLtrL29vTGRSCwDkFHkzAAL7gMsm89nvi8sHo9ntZMajr0w36nW1oze8+ZGrDgGn9eL8x0drh8DdisSiVjvlEuM+S3qF+Pz+ZwFWbMZVA3HLrPW1tNZGzSHE4vF4PN5cf58R1aD06FEohFEIxHEE4msBlVDef/KrNX1BGK32M6y48PazqLRCCKRy1VmXufNI5ejzOx8vBzjmZ2PbtsZA6wsyDTAIiIiog+nsQZYfFUOERERUZYxwCIiIiLKMgZYRERERFnGAIuIiIgoy/iqnBFMnjwZ119/PSoqKhAIBKAo5grkDz30EGpra/GVr3wFEydOxLvvvovvfOc7AIA777wT8+fPd74za9YsLF68GOXl5QiFQujs7MT+/fuxefPmi65d5ff7cfPNN2PGjBnIyclBPB7HiRMn8PDDD+Pmm2/G9ddfP+g3X//6110/bfK1r30NlZWV/T7r6OjAfffdhxkzZuDuu+8e9JvHH38cL730kqt01q1bh/Xr12P37t147LHHAABLlizBbbfdhv379+P73/++893vfOc7CIVC+MpXvuLqxdKhUAj/9E//BK/Xi3/5l39Ba2srFEXBP/7jP6KwsBDf/va3ceutt2L8+PF45JFH8PrrrwMAfvSjHwEA7rrrLujW29Xd+M///E9IUv9l5TZv3oxnn3024zwcTf0CRq6nhw8fxsqVKzFnzhzEYjF4vV60t7dj9+7deO6550Z1rJWVlbjllltQVVUFTdNw9OhRPPzww6iursZ999036Pvf+ta3UF/v/rU8ADBv3jysWbMGhYWFSCQSOHz4MH7961+js7MTX/rSlzB16tR+36+trcVDDz2UUVpDCQaD+OhHP4orrrgCgUAA586dw8GDB/HrX/86a2l89atfRVVVFf75n/8ZJ06cyHo+xmIxfOxjH0N1dTU0TcPrr7+OTZs2QdM0rFmzBjfddFO/72uahi984QsZH89Q7rjjDixcuBDf//73sX+/+zdMuHHDDTfguuuuQzAYxLFjx/CrX/0KJ0+6f+3PxWSzLxzKnDlzsGbNGhQXFyOZTKK5uRmbN29GfX39iP2LG6Mp/4uNe6MVi8Xwl3/5l5gwYQJ6enrwpz/9CVu3bnX+XlBQgLVr12LSpEmIRCLweDwAgK1bt+Lpp58edruhUAj33nsvysrKsGvXLvziF78AANx7772oqanBQw89hBkzZmDFihWDfnvXXXehqqoKN998M8aNGwdJktDU1IQ//OEP2Lt376iPbbQYYA1j1qxZ+PznPw9RFLF//360tLRg/vz5yMvLG/TdyZMnY+rUqUNWvtWrV2PChAl48cUX0dPTgyuuuALXXnstampq8MADD4y4dsonP/lJLFiwAPX19di+fTv8fj9mzZoFURRx8OBB9Pb2AjAHwNmzZ6Orqws9PT2uj/VPf/oTIhFzNeu5c+eivLzcCdJOnTqFzZs3AzAr9rJly2AYhusXcQLAtm3bMGvWLCxatAhvvvkmWlpacMstt6Cnpwe//OUvXW9vKF1dXfjVr36Fz33uc7j99tvxH//xH/joRz+KWCyG3//+9zh69Cieeuop3HPPPbjxxhvx5ptvZrQy90CPP/448vPzsXbtWjQ1NeGFF15AY6P5qPNY83Ck+nWxeirLMjZu3IhEIoEdO3bA6/ViwYIFuOWWW1BRUYH//u//HjHtcDiMe+65B6qq4umnzVeplJaWAjDf0fnYY49h2rRpmDdvHt544w0cOnQoo7oBAHl5efjMZz6Drq4uPProo5g0aZKTV4888gh27NiBPXv24BOf+AQA4IknnsD58+czSms4d9xxB2bNmoXa2lq8/fbbiEQiqKmpydr2q6urUVVVhdraWpw4Yb5nMNv5+IUvfAEFBQX45S9/ibKyMqxatQoXLlzAtm3bsH//fnR0dGDZsmUoLy/H1q1bM155fDjV1dVO/auqqnJeNdPd3Y26urqspjV//nxs2LABR44cwaFDh7Bu3Trcdddd+MY3vtH3KqksyWZfOFBlZSX+5m/+BslkEtu3b0dPTw+qq6tRXFyM+vr6EfsXNy5W/m7GvZEIguDUwy1btmDKlCm48cYb0d7ejldffRX5+fm4//77EQqF0NDQgHfeeQeVlZWYNGnSRbfd1dWF7373u/jyl7+MxYsXwzCMQePHoUOH+i3XsXbtWuffEyZMgKqqeOGFF5CTk4Orr74ad911F375y19i586dro7zYhhgDeOjH/0oRFHEE088gRdffBEAMH78+CErWk9PD2666aYRo/tjx46htrYWTz/9NO677z5MmDABS5cuxY4dO4b9TVlZGQBzIGlqMt+1tn37dgDA4cOHcfjwYcyYMQOrV6/G6dOn8fDDD6Ozs9P1se7ebS7It27dOpSXl2P//v348Y9/DABoa2vDs88+i8LCQvzt3/4tUqkUfvKTn+DwYfev1dA0DT//+c9x//3347bbbkNbWxv8fj8effTRrA6Ub731Ft544w3MmzcPn/nMZzB//nycOnUKzzxjvurh8OHDeOuttzB37lz81V/9FfbsGftirbt370ZlZSXWrl2Lc+fOOXkKjD0PR6pfo62nqVQKdXV1qKurw44dO/DNb34T8+fPx44dO9DQ0DBs2itWrIDf78fPfvYzNDc3o6enBy+//DIAoLOzE7t370YgEMC8efNw/PjxfsftVlFRESRJwsGDB/Hmm2+irq4Oy5Ytc9bmOXjwIADg1ltvBYAxpTWciRMnAgB+9rOfXZI1jlatWgUAeO65vgUVs5mP0WgUxcXFaG5uxiuvvILc3FysWrUKS5cuxbZt29DU1ISmpibMnj0b5eXleOedd0Ys/0ysX78eU6ZMAdB/YKurq8O3v/3trKZ13XXXAQA2bdqExsZGVFZWYu7cuZg6dSoOHTqU1bSy2RcOVF1dDVEUsWfPHucqzwsvvOD8faT+xY2Llb+bcW8kU6ZMQXFxMd555x1s27YN+/btw9e//nUsXboUr776KlavXo1QKIQ33ngDP/nJTwCY9WY0ARZgtpkHH3wQX/7yl7FkyZK0hYhNBw4cwIEDfe95Ta+HL774Yr9x95133sHdd9+Nm2++GS+//HJWTrhtnIM1hEAggOJi80WYr7zyykW//9xzz6GqqgqzZs0a9juf/vSnMW3aNBiGgbfeeguAeXY3Evv21Q033ICpU6c6+2SbN28e7rrrLjQ3N+Pf//3f0dbWdtF9Hc7HP/5xrF+/Hjt37sQPfvADJJNJ52+lpaX4yle+Ar/fj+985ztjuuR/4sQJbNu2DXl5eaipqcH+/ftHlcduPfHEE+js7MSCBQtgGAZ+/vOfI5VKOX/ftGkTzp07hwULFuCLX/xi1tMfaCx5OFz9clNPQ6EQvvSlLyEcDqOjowPvvmuuqD1hwoQRf2cH+R/72MfwD//wD3jggQfw2c9+dtT77kZTUxO6urowZcoUTJ8+HStWrIBhGFk/qxyJfWtp48aNmDlzJhYuXIirrroqK9suKCjArFmzcOrUqX6dfzZ1dnaiu7sbRUVFmDdvnhOA5ObmQpYvz/n0I488gjfffBMA8Nhjj+FrX/sampqacObMmaynVVhYCAA4d858k8nZs+YrVuygPNuy2Rems+vdnDlzsGjRIsyePRvr1q1DMBjMyvZHw+24N5KLlYs99r36qvsXp9suXLiABx98EK2trbj22mtRXV09qt+ljwOAeVWvt7cXwWAw6/WGV7Cy4M0338Ts2bNx44034tSpU/3+9vDDDzuXyN2+SmHnzp2YOXMmrrzySlx55ZXYu3cv/uu//guAOfB9+tOfxpkzZ/DQQw+N6TUNS5YswbJly7Bnz55Bl1plWcbdd9+NYDCIBx54AM3NzRmnY0u/WnWpVkJOJBLo6elBTk4OVFVFV1dXv79/7nOfQ25uLr7//e+joaEh62fW6caahyPVr4tJpVK49957nf9v30Ie7aK69vyLgwcP4sknn8Sdd96JBQsW4NVXX3WuKGVLd3c3fvrTn+Lzn/88/u7v/g4AcOTIEeeE5HJ47LHHcMcdd2D+/PlYsGABAGDXrl147bXXxrztlStXQhTFflevsk3TNPzoRz/CJz/5Sdx5551obW1FIpGAJElZPTMfSWdnp9MfXbhwAbNnz0Zubi6+973vZT2tgfXY/v/Zvj0IXJq+0FZbW4vf/e53uP7663H77bc7n+/evXtM75l9v1yuRbs7Ojpw6NAhxGKxQXPU/hzwCtYQenp6nDlI11xzzUW/bxgGnn76aYwbNw7Tpk3r9zdFUdDd3Y3u7m6oqgpRFHHllVcCMG8bjmT9+vWorq7Gjh07cO+99/abLzN9+nTIsoza2lqnMxMEwQnm3LCvjLz99tv99hswA7n8/Hy0tbX161Dsv7uVm5uLjRs3ore3Fy0tLVi8ePGgicvZsGHDBsRiMdTX18Pj8eCOO+5wGr0sy6isrISmadi/f7+rSfSZGGseDle/RltPZVl26qBhGMjNzXUuxR89OvICxfZVh9raWpw7d86ZQ2PP2csmj8eDv/7rv0Zvby/uv/9+/OY3v0FNTU2/y/uXWmtrK771rW/h7rvvdoK8bPD7/Vi4cCE6OzvHdNY+GkeOHME3vvEN3HXXXXjwwQehKApOnjx5SYKOiykuLsaGDRvw+OOPZzR94WLs+U/RaBSA2b+kf55N2e4LB9q2bRvuuece3HPPPdiyZUtWtumG23FvJHb+2+Vh32K0t3/8+HEAwNVXXz2mdDZs2IBly5ahvr5+1HPSBpbXjBkz4Pf70d3dnfXXEfEK1jA2bdqEu+66C5/4xCcwY8YMtLS0OJc9h7J//37U19cPukx57bXXYtasWThy5AhUVcWMGTNQVlaG1tbWUd/6qKqqwty5c+Hz+aDrOp5//nm0tLQAABYsWID29nYoioKrrroK3/ve91xPWm1pacGMGTOwbt065OTkoLCwEJMnT8a//uu/4syZM0gmkygpKcHGjRtx/vx5zJw5E6+88kpGl5E/9alPwe/34xe/+AUaGhpw//334/bbb8c3v/lNVFdXY/LkyQDgPFGyZs0aJBIJnDp1atTpVVdXY/ny5WhtbcV3v/tdfPrTn8aVV16J5cuX4/nnn4eqqjh79qwzqTqbZ6KAeSvo4x//OJqamrB79+6s5OFw9Ws09fSzn/0sNE1DQ0MDvF4v5s+fD7/fjz179lx0/s1LL72ExYsXY+HCheju7sacOXOQTCadW4zpJk+ejNLSUrz00ksXPXkYiiiK8Hq9EEUREydOdCbTD/WkoyiKuOmmm6AoCjZt2uQ6reGUl5djxowZWduebcmSJfB6vTh16pQzDwswpwEMvHU21nxcsWIFNE1DIpHAsmXLIIpiv6e30i1atAg33HADfvKTn1ySK1zr16/H3r17L9lVyJdeegkTJ07Exo0bcejQIcyYMQOnT5929bTbaGW7LxxoxYoV8Hq9APrmAg5lYP8yFgPL3+24N5zDhw/j1KlTmDZtGlavXu3MybPHvG3btmHOnDmYN28eioqKUFdXh4qKCldp3HTTTbjhhhtQX1+P733ve6Oe6nHddddh+vTpOHr0KHJycpxg8qmnnsp6G2CANYx9+/bhwQcfxEc+8hFUVFSgpqbmomcqmzdv7nc7BjDPJidOnIirr74afr8fHR0deOGFF/DMM89c9KWkW7duRTQaxaRJk/CJT3wCXV1d2LVrFwBzEt+mTZtw3XXX4cYbb0Rvby8aGhoyetHpli1bEAwGMWvWLGzcuBEXLlzAvn37AJi3bX74wx9iw4YNuPbaa6GqKlpaWjKK9BcuXIjp06ejtrbWOY5nn30W69evx8aNG9Hd3Y3Vq1f3+82yZcsAmOUxmk5MURTcfvvtEAQBv/jFL5BKpfDEE0+gpqYGGzZswL59+9DW1oZHHnkEGzduxOzZs7M2x8Zmz2OwH7HPVh4OVb9GU0/feOMNLFmyBNdddx1kWUZbWxv+8Ic/jOpWVUNDAx599FGsXbsWd955J06dOoUf/vCHQ86nmTp1KhobG/vN33MjHo/j0UcfxZo1a3D77bcjkUhgz549Qz6KrigKrr766qw8oJCuqqpq0GPs2VBSUgLAfFosfUmUhoaGQXk51nz0eDxYuXIl/H4/2tra8Nhjj/W7Op1u3rx5aGhouGRXt3p6evDEE09ckm0DwGuvvYaCggJnDk5DQwMef/zxS3I82ewLh/KRj3xkVFeGB/YvYzGw/DMZ94ZiGAZ++MMf4pOf/CTWrVuHnp4ePPPMM04f3t7ejgceeADr16/H5MmTsXjxYuekejRuvPFGrFmzxgmu3EyROXr0KGbPno3ly5dDkiQ0NjZix44dw7aRseDbjcGXPRMREVF/fNkzERER0Z8ZBlhEREREWcYAi4iIiCjLGGARERERZRkDLCIiIqIs4zINo6B4vFBcPEJKRP+3pJJJpJKZv02BiD58GGCNwpRZ81A9JfuLDxLRh8PRIwew7/Vd7/duENGfEQZYo1R/eD8OvJH9lxIT0QfbFVdeDSGDV1QR0eiNdfHY92OdSwZYLhjG4Fd2ENH/bYZhcMVm+lAzDAMej8cJUtKDFUEQ+gU/w/1tqADH/vtQ2x34vaH+nf7/h9s+APT29iIej1/2IIsBFhEREQ1L0zRUV1fD5/MN+ttog5Zsf8+N5uZmnDx5MuvbvRgGWERERDQiSZIgSdL7vRsfKAywMiRJEiKRCKLR6JCVrre3F+3t7ejt7e33uaIoiEajiEajQ273/PnzOH/+PFKpVL/P7bSGeiFmMpnE+fPn0dHR4Wofh0vL7/cjPz8ffr9/0G80TXPSGvjm8fz8fEQikQ9sfgy3j5nmx0j7mO38CIVCyM/P/8Dmx3D7mGl+jLSP2c6PbPEHgpdku5eCpmlIJty/WP5y8gdCGD952vu9G6PW2tyIs22n3u/doCxigJWhaDSK8ePHD/v3cDiM/Px8vPPOO/0+r66uRjA4fEcaDocRCATQ0NDgfKYoCiZOnDji/hQUFODQoUP9Ov+SkhLEYrGL7uPhw4f7fT558mTI8vBVIzc3F8ePH0d7e7vzWSQSuWh+xGIx7N27t9/AW1FRMezgaf/ucuZHNBrFgQMH+n1eXV0Nr9c77O9yc3PR2NiItrY257NIJDLiPmYzPyRJQk1NzbC/Acz8qKur6xdU5OXloaKiYsS0Lld+2Pu4b9++fsFSaWkpCgoKRtzHcDiM+vp65zNJkjBt2sgDazbzI1uuW7sRbaeaL8m2s80fCGLn7ze/37sxIn8whEAwhIa6wxf/8vssrzCGvIIiBlgfMgywMjTSIGiTZRmhUAhdXV3OZyMFV+nbTh9AR5OW/b30gGI0vwsGg1AUxRnUQqHQiMFV+rbTA6zR7qPf7++XH6P5XbbyIxAIXPQ3Xq8Xfr/f+Z3f7x8xmLDl5ub2Cyjc7KPbfMw0PwKBQL+AIjc396K/yVZ+jCbvAfNY3ObjwO+4yfux5kc2dV04jzd2Ppf17V4KSz5y0/u9C6PS092FM60t7/duXJSseBDKCb/fu/Gh5fV6UVJSAlEUIYoiBEFwJtgbhgFd73uA7ezZs4jHs3N1lgFWhi7lveiBAc5oAp6hjGYgtL838BbLxQw8/tGmlYls5cdopR9bpuU82vwY6nbZxQw8/ky24UY28mO0slHWo82PTOss56HQ++mLX/wifvCDHwz63Ofz4bOf/eyQf0s3sH2kTyofbimE92OJg2wqLy/HihUr4PV6IQgCJElyAixd16HrunPsjz32GI4cOZKVdGUAa7KypQ8wwzACIz3C2dZqPmgX31MAACAASURBVH2QHtW2t7ejp6fnotvu7u7u97vW1tZR7VP6bzo6OkbVqXd0dGSUVvo+CoIwqt/Zj73aPgj5kck+Xur8yLTM/lzzw+v1jvoKEhG5N3PmzCE/VxQF06dPH/G3ubm5+Pu//3sAcK7i2P9OD67sKzu2s2fPYvv27WPd9SF1d3ejt7cXXV1dSKVSUBQFHo8HsixDURQoigKfz5eVE2tBEODxeKAoCkRRhK7rSKVSSKVSg+aMZoOsKMoTVVVVH+zwdIx0XQ+OFKF3nzsDwJzEbUsmk0gmkxfddjAY7Hd7ZODE2uGkpyUIwqh+J4piv9+NNq30fRxtWgP38YOQH5ns46XOj0zL7M8xPwzDwNmzZ3HNNddcdJuUPfZtj0xpmjbmRRw/TERRHNNgrus6VFXN4h6Zqqqqhvw3YO7z1KlTcfbs2VFty64z6bfM7KBK0zTnltmlrBfd3d2or69HKpVCIBBAKBTqd3VNVVWoqore3l50dnYiEomMeqrBUOwrV4qiwO/3Q1EUqKqKeDw+6CpWtsher7e3pqZm+Jm/RESjoGka9uzZ837vxv8pgiDA6/VC0zQoiuL6Vo49qHZ3d3/gbwON1sWC0UAgAFmWM8qPrq4uJzjLdpD11a9+dch/22m1t7fjN7/5zUW3Y1+5kmUZkiQ5x2rfLkulUlBV9ZIEHLbW1lacOHECgiAgNzd3yPW10hmGgfPnzyMejyMajWZ8QmEft9frdabGaJqGRCIx6CpeNnAOFhHRB5QgCM5AWFBQ4Po2hyAISCaTuOWWW0YMKNrb27F169ax7u777rbbbkN1dfWI3/npT386aOLzaCWTSaiqekkCk8997nMAgH/7t38bFGCNlh1c2Veu7NtxdnBhB1b2/y6FlpYWZ9HPUCh00eAqXTweR1dXF8Jh9w8E2MdtX8VSFAWGYThX8C4FBlhEdNmN9PoMck8QBGdwdMO+ghGNRvuVRTAY7He7xs0g+EGSSCQGrfAtyzJSqZTrIGkst2ndyDS4SmffLpNlGbIsO/ORDMOAJEmX5BYnYN4WtPNbURSEQiHX2+jq6oLP58v44R47yLQDrkvZBzHAIqLLJv29YyN9NvDvwNBPO2Xyu4t1qAO/82EPBiVJwtGjR/sdX3V19SV/OvXPQTKZ7LdMCmDmh9unqi+3OXPmYOXKlSgpKQEAnDx5Ejt27MDevXtH9fv0ye0Dg430ye/Zlr68TCZXoWznz59HUVFRNnbpkmKARUSXhR2oDHxCyf7sYp16+tWZ0QwA6bfP0j8bKS37u27TIrpcli1bhltuuQU7d+7Eiy++CMMwUF1djTvvvBObNm3Ciy++6Gp7lzKgSnfu3Dln/ThRFMcUwNtXay/XVcNMMcAiossqPehJP3seiR2U2b9Lf/JpqMFh4PfTvzfSYJIelKWnlf53+vC4XMFFNl1//fX41a9+hZdfftn57I033sCJEyewZs0a1wHW5ZK+OG821pJLJpN/9reuGWAR0WVjBy/2f+3JtiMFSvZ/B07gHs3yBOm/G+330xcftPfpcp4p+/1+rFu37qLf2759O7q7u8ecnqZpmDx5cr/8H+odjh9GoVAIc+fO7ffZwNebZcrv9+O+++676Pd+/OMfw81sr4GvhrLV1dUhEom42NLl1dnZ6fw7GwtTX6p5YtnEAIuILov0dXbsoOf/s/fmwW2d5/3vF+cc7CB2EiTFTZRIirJly7IsybItu7bs2rGdX+pYziT2xJ6p5zZt0056MzedTtL7R6Zpfp3O7TQ3f7hNehvXWe0ktmPLSRNLsrzJWqzFFrWQEsVFJEiQxErsOOfg/sG+r87BRgAESAA8nxkNCfAsLyDgPc953uf5fklgVaigOJfaMgkGiqnfkp4LAFVxzjc+cj6yX77tq4VOp8P+/fvp43xaZVevXkUgEIDP51uRdU86nUZTU1PdZXLKIRgMYmFhoeA2K+2eM5vNuOmmm6DVavMWcUvrj9RqNZIlnHJmZgZ79+7Fa6+9Jnt+7969WQX7tUQikajo8cr9f1pNzTclwFJQUKg60kktM1harpYilwDickuL0iApM5gjGbNC5xMEATzP06VIURRXPdAi+Hy+nBeTz372s+B5Hi+//DImJyfLPn4ikcC//uu/FtymGirXa8Gbb7657DZWq7Ws7jaC2WzGXXfdBY7jZL6rmduUy69//Wv85V/+JQYHB2kma9OmTWhra1vWJqdWqMTnSa1Wl7xP5lySWQ5QaZQAqwgEQSjKUkRBoVHgOA46na6iAYU0EyVN77MsS4OsXMXvwI2gLHO5L1eAlWn5QfZlWZa2o+fKmmV6k0knYOlSZiMSCoXWeggKRXLp0iX8/d//Pe677z60trYCAC5evIgXXngBfr+/qGNIl97J96Ha6u1Sz9tKdGmWGmBJgyue55FMJqmoarVQAqwCiKKIqakpLC4uoru7uyL1DgoK9QDx5zKbzTJ7nXKRLulJAyUANFMk3Y5sC0AW7AiCAJVKBUEQsgKzTF81sr1UNJEIDeaTi8g1Run5qnm3q6BQLH6/P2uJsBSkNxLkc57r+1JJmpqaaEZvpV2ARJG9VIhSfSwWQyqVoo+rZRelBFgFmJycxJ/8yZ9gw4YNaz0UBYVVJ5VK4eWXX0YymVyxJpK0vkn6L7NrL98kl1l4nq8mS0pmJkr6HAnKMmvAMovcM49TbWHCtUCj0eDuu+8u+Lrm5uYwPDy8iqOqDrt27cLWrVsLbvPuu+/WvA6WzWbDvn37ZDpY7777LgKBQMH9pN8zQRCooCrJ7JIl9WoEG5mNE8RfsByamppK3kdqBUQEVUk2XQmwVpmxsTE89dRTcLkUm0aF9YlarcYzzzyDn/zkJ4hGo7Barcvuk+vON59wJ/mdTPaZ0gtSA9rM42UGPZl/z5ehKiaQkwZt5FyZfytGt6te0Gq12Ldvn+z1ZNabDQ0NNUSAZbfb0d3dTR+LopgVlKjV6poOsAYGBvDVr34VHo8H165dAwDccsst2L9/P77//e9jZGRk2WNIM1fSbHI1gyybzQaTyUSzWNFoFHq9vuSbN41GU3aNXDqdpgEVucmqpueiEmDlIBqNgmEYJbhSUACwfft2vPvuu0UFWMVMVLmW6cjPzAsbWRIkxekcx8nkE6T7kvOTY5A783zF6cTgNfMYUs+yXIFUPbSHlwLLsvjkk09kr3Pr1q3rQqpBFEWMjY3Jnitn6Wk1efLJJ3H06FH8+te/lj3/+c9/HgcOHMB3vvOdgvuT7ygJpHLdzFRrKbyjowOXL1+mj4PBIBwOR9FLhSqVqqh5KJNAIICTJ09SY2vpjVzma10uC1gKtf1JWiOi0Sh6e3vXehgKCjVBS0tL0dkaMlFlFttGIhFZkESW+TL9wILBoGy/YDAIm81GjWnJnTUJgBiGydonEAigs7OTBkjScUntQDInUr/fD4PBQM9Flk1IgTsxRo7H40W+cwoKlae9vR3/8R//kfX8Bx98gD/6oz8quG8ymZRpaGU2e+STTKlUE4TRaERbWxuVk+B5HvPz87BarctqY2k0Gtjt9rLqthYWFnD+/PlVzzrnDbByddg0Ivk6iZRJVEHhBsV+H1QqFcbHx7OCl1AohLGxMVgsFmg0GpncAunSDQaDsgxWOp3GzMwMYrEYbWuXFr6TyVkaYJHjDQ8Pw263Q6/XZy37xeNxLC4uYnFxUXYX6/f7kU6nYbFYZEX55C4/FArB5/OV+Q4qKFSGUCiEjRs3wuPxyJ7fuHHjsoFQJBLBf/7nf5Z8Tp7nceutt5a8Xy7a29vBsizcbjdd5vf5fDCZTNBoNFmBFs/zaGpqgs1mq8j5V5OcAVYu8b98dQ31iFGXQo8riAsTTtnzywkeKigoFCaRSGSZ55LvVTAYRDAYzFkzlY9UKoWFhQUqDpk5/0jro6RBUSwWw/T0dM4lwMysFkEQBHi9Xvh8voIdho0yDxJEUURra6vsNZWjMVSPMAyDgYEB2XPF1DCtJYcOHcLTTz+NDRs20Bqs3t5e3HfffSvqLFxNXC4XTCYTJiYmqEiuVDOMLNM2NTWhq6ur5pdt85E16nzFodJ1y3qlxRrF3/zJp9jWc+MCcH7cgX99/VbMBQwAlCBLQaEaSGse8rWAZ3YESusjpMFTrv0ya6jy6Wnl2y/XDWWhMTYS6XQaGzZsaKigsVgYhskqmK71/+PDhw8jEAjggQcewF133QUAmJ2dxY9+9COcOXNmjUdXPEajEVu3bkUikUA0GkUsFkMikYDBYIBer1+RGGutIAuwpJkrn88HnueLMkitB9ocCXzvzz5Fk0GuILutx4vv/dl7+Ot/uwfzQSOA+n+tCgq1yHLfq1x/L+a7WKn9yj1XvROLxfD6668X3KaShb9ryZEjR/DBBx8U3Eaj0cBgMKzSiMrj9OnTOH369FoPoyJotVpotdq6XAJcjpwZLOCG0KBULbmeJ5dvPX01K7gimPQ8/uZPPsXf/WhPwTtlBQUFhUaD53l8+umnaz2MVSGZTOb1diSU06W2lrS3t0Oj0WB6erqm5SXWI1kBljRVnmlHUa+BlknPY0f/YsFtpMuGCgoKCgoKtYTRaMRTTz2Frq4ujI2N4ZVXXsHzzz+Pbdu2AQC8Xi++973vZRW/K6wdsgArs+aBtFBL25TzCQbWctC1pSu34WYm23q8GPqfwvdafj0KlWP//v3Q6XQIh8MwmUwIhUIwm830sVTFPJVKQa1W078NDw/jypUrOY/70EMPQaPR4MSJE5ifn8fg4CA2bdqExcVFNDU1IRqN4siRIwCAhx9+GBzH4aOPPsoqEAcAk8mE++67DwDwu9/9TiYMuHXrVvT29iIYDMJisSAej0On0wG4seQfjUZhMBjoNuQ1hkIhvPfeexV9PxUqj16vz1m3du7cOcRisRVbeDEMg87OzoLbRKPRnJ/NemNgYICqn+djpYKqPp8Pb7zxBrRaLZ5++umsv5d7bTlw4AD6+/tx/Phx3Hzzzfjrv/5rpNNpfPe73wUAPPXUU3jiiSfwwgsvrGj8CpUjb2k+CaYygyzyt3qScbg2W1yx3KdjdpRpjaRQp9hsNhiNS7V3TqcTPM/D6XTSx7FYjAouSoMXp9OJycnJvMd1OBzQarU0ODMYDHA6nRBFEU6nU9ZObbfbodFo8ioaMwxDx5T5PTOZTFnHJcWhRMPJ7/fDZrPR1yYIApxOZ9k+YAqrSz47kXfeeQfz8/Mr7vjT6/V47rnnCs7hly9fxssvv7yi89QCAwMDuO222+hjouwtZWpqakUyPdFoFBcvXpSZG2ciXaYUBAFQLf9dvOmmm/DjH/8Yn376Kd577z387//9v/Ev//IvGB8fBwC88cYb+NM//dOyx10IhmEwOTlZt3NGIpFYk/PmlWmQZrEy/9Ub4RiHc1ct2L45mHeb82P2unxtCivD5/MhHA7D7XbjypUrSKVSGBsbA8/zVDWcTCrk95aWFgiCQCdJu92OgYEBJBIJ2sWzsLAAjuNotmliYgLhcJjqMqVSKdx5550AllL7DMOgq6sLPT09mJiYgNvthtPpRF9fH5LJJD766CMAclsLYCno83g8CAaDGB0dpabEwI0MFnktPM9jbGyMFvAq5uW1SSgUwre//e1lt6tURollWVy4cEE2//X29q4LJfdUKoXz58/LnquUJEA0GsU3vvGNorZt7ehZdpumpibMzc0BWBLFTaVSsuYDv99ftc47hmGwuFi4zKbWWYvre85PUqaUfGY2C8guAq91bZh/emUQ//F/fgyjLtvmIhLn8P+8uk0pbF+H2O12GI1GDA0N4fr160Xt09nZCZfLhenpaQBLWaSBgQGEw2EaYDmdTmi1WhrsEC2nnp4ebN++HeFwGB0dHQBuLD1yHAeHw4FQKAS32w2z2YyBgQGEQiG8+uqrOcei0+ngcrkQDoeLXtro6+uDy+VSRDNrFEEQ6GdrOSqRUSDiq9L5O5+UhsLaoUgI1R9lheqZX+paDqwI3sUmfOX/3YP/68kLuKX3ho3Hp9ds+JfXblEkGtYpJINFLigOh4MuFZIMFAmSrl69CkEQEA6H4fF4aAaLBDfStP/o6ChYlqXieU6nEw6HA3q9Hh6PBzzP04souTlJJBJYWFigNjOCIMDj8RRcriAZLCLWp9FosHHjRgA3Mm7ktXg8HgQCAfA8D4/Ho2SwFBTqjM9//vN0PmBZVvaYlC8o1A4lBViZWSppoFUPgcl80Ihv/H+7AAC39vrx6ZgdQHZ3ZLWMLhVqD5LBIp+Bzs5ObN++HQsLC1k1WJOTk4jFYjCZTLIMls/no0t4hJMnT8oed3d3Y9u2bZibm0NLSwtCoRDefvvtgmNjWRYul6ug/YU0gwUs1XqRpcfMGqwTJ04gEAiA4zglg9VgkLm51IwWmedMJpNsDic3FY0OwzBob2+XPUfMiMtZKqymETjRvSLjOnv2rOwxz/MNo43VKBT9CZIGH9KApF6FSM+PO0CGnPka6u21KJRPOBwGz/M0g8XzPILBIJLJJP1JMlPkYhSPxxEMBmk9lEajgdlszlmvRfz1pMf1er2IRCK0cJ1sm/lTq9UiGAzKMk3E7JRkolKpFILBoKyIk3jzkeOQ8ZLJXxCErOMq1C9kvpJajRQLCcz6+/vrtoB5JXAcl9VVyLIs/H5/ye8HMS8v5FawEn7wgx9U/JgK1aXoACuXHQV5XM9fzFwWQLVeT6ZQOUwmkyyDxXEcLBYLUqkULBaLLINFPhM6nQ4Wi4Xe5be2tuL++++ncgjAUteKVqvF22+/jenpaXpcv9+PN998E2azGU888QSAGzVYXq8XDocDs7OzaG1txdzcnMx4GAA+85nPgOM4/O53v4PH44FarYbFYqFefcCNrjNpwGaxWOidLsuysFgsWQXzCvWHKIpIJpNQq9V0mbhUjEbjskKjMzMzZR271jh9+jTGxsYKbjM/P7+iLkJlBUSBUFYNVr5Aq56CklwBo/SngoKCQj0giuKK2tDdbjd+85vfVHBEtcv09HTRDQQKCiul5BqsXIas9djdkMuHLNNYVkGhGCYnJ/Hiiy/CZDLhySefBAC8+uqrsotepndYKBTCiy++WNTxzWYznnvuOQDAT37yk6rWeawUjuPQ3NxccBtBELC4uKjYeigoKDQ0JQVYmTpYjRSIKIGVgsLKIQX0uZDehOn1eiWToKBQZezNrdh59wOIRUuvzysGrU6P4fNncP3aSFWOX+9URlENyhKbQn1CitzJxX9kZARTU1M04JYWrpO6jMwi99bWVtxxxx20MB64EUzs3r0bLS0t1KbG7XZndfo8/PDDUKvVOHbsmEw8csOGDdixYwcikQgOHjwIILtLKbPIfXFxkW6bWTRPiqBJkXs0Gq3Qu1gY8l7wPI9oNApRFKHValfl3ArrG1OTBW2dy4t4rjVWRwtSifLrvgpxfewKLp07ufyGZdC1aUtVjtsoVCzAUlCoR0iRO7kxiEajywYemUXuGo0GDodDVuROjmc2m+FwOJBKpeBwOHKqIeezytFqtXA4HFCr1bIidimZRe6CIOTdlrAaRe4kQCWK9/F4HKlUCul0moqqKsjRaPXo3Ni31sNoGKKRRfgXPDCaqqNuXklSiTjmPe61HoZChVFmOYV1DREa3bBhAzo6OmjXIDF5ziW9kEqlZEKjoijSx5988gkAYPv27WAYBhMTE5icnITZbKbGy8BSkEY80T7++GOoVCq4XC6ZVU4uodHdu3eDYRgMDQ1hcXGRCo0CwJ133klFRYEbQQ55LVIvxWoLjQqCgEQigVgslhXI1avlVrUZvfQpWG5lvoKrxZUL59Z6CMsSj0Zw9VLh7sj1iF6vz8ogRyKRrJpIo9GY5XO5uLiodB+XgBJgKaxriNAoy7JwOp1UIiGX0CgJUMjfSA0RwzBU7PPw4cMAgC9+8YsymYbbb78dLpdLprg+MDAAAPjZz36GZDKJP/7jP0ZbWxu1ysklNNrX1weO43Dt2jUsLi5SoVGVSkUFTPOZPZPX5vF4qi40KpWESKVSSCaTEASh7pphVpPxKxfXeghryp33f6aqxw8FfLhw5nhVjs2yHFraO6tybMKCx41UcuWmxV/4whewb98+qFQquN1uTExM4PTp03C75Rm0PXv2oLm5Ge3t7ejr60M4HMY///M/4+rVqysew3pBCbAU1jXXrl2DRqNBIpGA1+tFNBqlNU1er1dmlUN+J38j9VLEKieVStGgyev1guM42Gw2mEwmxGIxDA8P06AmnU5T41ZibePxeBAKhahVDs/zmJubQzwep8edn58Hy7JUyHBubg4syyIej1MDWHLXSQKsZDJJjxMMBhGPxxEIBKouNMpxHDiOo1kznueRTCaRTqdruhNSYW3g1BocO/xW1Y6/94HqBXAarQ4D23Zgarw6wYdrQzfisQj8C3MVOV5zczMMBgOOHTuGnduasHOjFmJwPGOrcWia/xd4zoAdO3bg/fffr8i51xNKgKWwrqmEtQSxypHKNBChUZZl4XA4cPr0aZmdDsk4AYDNZoNarcbvf/97maAjx3FoaWlBOBxGV1cXANAlQLJsOT4+jvHxzImxNiEBF4Bl68QU1icCX7/SHYtBP65e/KQqx9bo9BU9nnSJ3tW1D7H5OBz6X2Vt57feDq5pR9Y+CsWhBFgK6xqbzUYzQgzDZHUPSmuwvF4v0uk0mpqaoNVq6bbkp0ajQSAQALC0nMhxHM0WZdYt8DxPgwyVSgWWZaHT6eB0OrOOl0gkaB0WwzBgGAZ6vR5OpxPhcBjxeBxarRZNTU3geZ6OweFwQKVSUVsdk8kEnU6HeDxelq1KMSSTSVy7dq3gNqIorkgpW0FBoXJwHIdkKrcbi5BKQKc0pJRN2e9co9RSSF+HEqGvP/bv3w+j0UjrqgrVYL388suIxWLYvXs3Ojo66Lbz8/Nobm6WdRH+/Oc/RyKRwIMPPgir1ZplnhuNRqmcwpe+9CVoNBrcfPPNWVY5VqsVoVAIr776KgDgmWeeAcdxuOWWW2C323Hy5ElcvHgRHR0duOeeexAIBPD6668DAB599FEwDIO33noL8/PzuOmmmzA4OIgrV67gww8/rMr7KYriqsk/KDQuDMPAaDQCWAoAmpqaihKmJcveRBJkrVCr1XRp3Gg0guO4gsXhDMMgkUjQxpl4PE5/rwbxeFzmv6pls7ubAYDT6Kl/aqNc81eTkpXcCdI793p64/dsmcXugVm4bDF4/HqcGG7F8cutstejkBuWZWG1WnNmZHJtC6BuOk4yP8PkcaU+2ys5TqF98417pedUUFhLuru78a1vfQtarRbvvvsujhw5suzcrFKp8Bd/8Rfo6+vD0NAQ/uEf/mGVRpvNo48+iieeeAKCIOBnP/sZRkZGsm6yMnE4HPibv/kbcByHl19+md6AVZpTp07Rgnae5+GbuwyrmLt2LB0bgj+YwA9/uNQ1qiztl0bJSu7AjYk7M8iq9WDrW1/8GHu2eOjjbT3A/tumcOhsB773m+01P/61prOzk+o9jY6O5r3Dslqt6OlZEvc7f/58TQdZv/zlL2WPt2/fjtbWVtlknmlpc+jQIQDAjh070NrailgslrWNtIvw7bffxu23347nnnsOc3NztK7KZDIBuNFFmI9CVjm7du3Cc889h9HRUbz44ouwWq1025deeonepQLAiRMncOLECfT19eG5556Dz+fDG2+8UfR7paCwmhiNRmq7VGw26tKlS3jwwQcxNDRUzaEVBekslmamCjE/Pw+TyYSmpqaqjuvChQu4cOECfXzkyJH/+a09x9avVXUsjU7JS4Q8zyOVSoHneYiiCFEUqYdfLQcnf/b4jCy4krL/timMecx443jvKo+qviAXdoPBgK1bt8LtdiMWi9GlMSK4KZ0g9Hp91ep9FBQUGpdGWE0o55rYCK9bYYmiAyypqbNKpaKFv1KT5Frm/3h8puDfv3TfFbxxvFf5cBdgamoKwNKdGcuy6OzMr/siCALGx8drPrjav38/9Ho9Tp48CY/HA57nEQwGqe1NMpnE448/DgBUsHNxcRFNTU0Ih8MIBoNgWRaPP/44YrEYzW6FQiEqVAos3VlPTEzA4XBAq9UikUjQzN4DDzwAjuOyrHII4XCYLhc8+OCD4DiOZsCuXLmCgwcPyorGiV0P4a677oLdbkcgEIDVaoXb7cbBgwerYrbMMAytQ8uH9LUrKORDFMWS5TzS6XTV5UeKRRAEWQa5GFKplNIA0kAUHWBJA6t0Og2GYWRLaqIo1mxw0tex/BfOqEuhxRrFXMBQs8Gi0WiEVqtFOBzOmXLW6XSwWq2YnZ2t6Hk1Gg0939TUFGKxGNrb27OsXQiBQADj4+N1cRG12WwwGo30tXAcB4vFglQqBYvFklNoNJ1OU/sbi8WCZDIJh8MhCybNZjO0Wi29ESEWPCaTCRaLRbZEaDAYoFar876foijS2geHwwGO46BSqWC32zE6OppVF2GxWGSPrVarzK7H5/NVrZZCo9Ggt7dwJjidTmNmZqaqQqcK9U0gEMAvfvELAMUvDwLA2bNn8a1vfWvNg6zLly/j3//93wEgpz1WPr7//e8DAK5fv16xsdicLdg0eEvFjifF6mjGnLtyY200yuoilAZaJBghF5JaJJrIfeHKJBKvTZsKlmWxc+dOqpskiiKuX7+Oixcvyu7wbDYbdu7ciTfffLNi5x4cHITBYMDo6Cht/ycimxqNBgaDAXq9HrFYDMlkMmsyNBgMsFqt8Hg8NRlwnT59Gmq1mop7JhIJeDwehMNhXLlyBSqVigqBjo2NUZFMjuOo/U04HMbVq1dlQe/JkyfBcRw9bldXFzZs2AAA1Fbn/PnzAG4IgmZmnpxOJ/r6+hCPx3H27FkAS3VUDMOgtbUVqVSKZqGam5uxefNmpNNpap1DvpuffvopDAYDUqkUxsbGoFKpcOeddyIajVJrn9WA+BKKogirXbgIkAAAIABJREFU1aoEWAp58fv9+M1vfkMfm83movwrR0ZGSs4aVYPLly/j8uXLAJY6Ck0m07IJCEEQZFp5lSAcCmB8pHoOAbFIGL6F3KU3CiUuEQKggVXm87Wa9QEAj1+PcIyFSZ//Ah+JcwjHODBM7WXh+vr64HQ6MTIyAq/XC5vNhk2bNsFut+PEiRPUfqUaEM+qnp4eXLx4URZEJJNJJJNJGnhlYjAY0N/fD5ZlodfrMTo6WrVxlkumZpNWq4XL5UIqlcLw8DAMBgP27NkDADh69Kjsvd6xYwdcLhcSiQSGh4dlx8l8rc3NzRgYGKBF7qFQiNrq5MNsNmNgYAChUIgGWFeuXAEA9Pb2wuVyYWJiImtbYpVDMsyZd8N9fX0YGBiAz+ereoAliiINrHieB8/zUKlUtAVf4Qb25lZs3b4LglCfKveJeALnP/6gInYumUjtouqNVCpFb7RWm2QiDvdkYV06heqxIgUxaf1VrS4PEl78Qw+++r/yX+D/5dXqpFArQXt7O8bGxuhFfGFhAVNTU9i5cyfuvvtunDhxomoT0Pj4ODZt2gSWZbFp0yaMjIwUlYnSaDTo7u6mrcm5aotqkYWFBQwPD9MJUWpp093dLctgMQyDubk5uhzBcRw2bdoE4EZWampqCpFIBIlEgm6baatDtiXHJXY3Op0Oc3NzsqxgX18fGIZBJBLB3NwczWARW51EIkHV4Ddv3gyVSkWPS36qVCoMDw9X3eyZZNhIYEUyCxqNpubni7XA6mjG+MhFzE5PrPVQymLr7XdCbzBWJcBSUKhHSq7BAuRLhPUyUb5+rAdmg4gvPziW9befHtmM45dbwTC1KdOg0+myAqhYLIaPPvoIO3fuxN69e3Hy5MmqnDsQCMDr9cLhcMBgMGDbtm24evVqweJ1l8uFtrY2Glx5PJ68Wa5aY2pqihbzA3JLG7PZLDN7np2dRUtLCy1K1el0uPPOOwHcsMp5++23EYlEoNVq0dLSgvHxcXz00Ucwm8144oknAIAGVOR9lgqNkmwXYffu3eA4Dj6fD3a7ndrkEFudQCBAM2Nf/vKXc5o9V1NoVPq+ScsGMueJepk3VhtBFMDXq11MhZfm7r77bnAch3Q6jWg0isXFxYI3dxaLBXq9ni4lfvDBB1Vp5CgGi8WC2267DcCNwvVCN8Esy8JsNtPMbiAQoFlrhfqlrAwWmTgzJ9BaDE6k/PSdPhw614GHdrjhssUwFzDg7bMbMB801vSEH4/Hc3Zm8TyPkydP4rbbbsOePXuy3NDLpaenByaTCZcuXYIgCLh+/ToVGWVZFgMDA0gkErSGhmRG1Go1tZ4heL1eGrAQ0+NarMUi9jekGF2j0dC6D1IQTgIhElyS5dFkMgmn05nTKocsqUajUSwsLNCCV6lVDjGRDofDtAtqYWGB/oxGo3A6nQCW3k+WZRGJRKhMitPphEqlwsLCAsLhMN12YWEBDMMgGo1CEAR6vHg8DqfTiVQqlVX3VSkYhqFZPjJOQRDA83xN12vWGrX8XmXWOqUBoILz6IEDBzA4OIgPP/wQP/7xj5cthQiHw9i8eTO+/vWvY35+HqdOnVqzAMvlcuH555+H0WjEb3/7W7z11lvLXh+DwSAOHDiARx55BO+8844SYDUAJddgZSLtJiRSDrXMfNCIn77TJ8vGSce80tdA7lrm5uYwPT0NAGhtbQWwZONQSkcJwev1oq2tDSMjI1l/E0URp0+fxrZt26i450owGAxwOBwAloRFSTfg6Ogo2tra0N6+JEan1WrR1taW9ziCIGBmZoYWXJN9BUHAuXPnVjzOSrNr1y50dnbi3LlzOHfuHFpaWrB//35Eo1G88sorOffZsWMHurq6kEql8Nhjj+W0yiFcunQJly5doo+lVjnLIc125RIa3bNnD0ZHR3Hw4EFYrVZ87nOfA5AtNEro6+vDY489VnWhUeKbSCCBFoA17/KqB+x2O7773e+u9TDycvr0afzgBz+48UQ6DRUqN/+rVCrYbDYAxTtCRCIRNDU1rVnNkxStVks7hYtNPni93qwu4LVGr9ejo6MD/f39cDgccDgctB44M+OvIKekJUKCtOCdBCS1HlgB8ixbvgBrpVm4jo4OAEsZDBJg3XHHHQCWCp8vXiy9o2NsbAxdXV20Wy8X58+fRyQSWfGXk6Tim5qa4HA44Ha7aRZmZmYGXq8XLS0tsNlsOWUFAoEAwuEwFhYW6KTIsixcLheA+rHOIZRiU7OW1MpYRFFcNngi3mYKjUU6nUYF46uGoFa+l+WyZ88ePPXUU1SqhtDf309/P3fuHF566aWqNlvVK2XLNGT+qwdyZasy/16LX4hQKFSU9UNmR1y5uN1uWoCdWdieTCZldy0GgwEMwxSsySJF8kBl9V0qwYEDB2A0GnH48GEcPnwY27dvx3PPPUeX73J9tvfv34+Ojg6cOXMmyyInkwcffBAbNmyg9U/j4+M4evSobBti9vz73/+eFqgDS52C+/btQygUyjrPI488ApfLhZMnTy47BsLu3bup2XOx+5RKMpnE2Fh2naNC45NGZWtypQ0mpUBkUNaacgRDRVGUzQFrhV6vx1e+8hVZIJWP7du3Y2BgAK+88gqOHz++CqOrH8o2e5YuCdZLgEXINd5aN3tmWRY2mw0qlQperxeiKEKtVqO7uxsGgwGRSATXr1+vyMQSDodlhe09PT15hUOXEwHs6emh1jmLi4t1U+yuoKBQGiqgokuE//RP/yRzDCmG8fFxPP300wCwZvVXZBx/93d/BwBF6XcRDh48iF/96ldrruX19a9/ner2FYNer8ezzz4Ln8+Xs5RlvVJWBkuq5A7kXnqrF+pBakKv12PPnj10PX9xcREnTpzAnj17YDQakUwmodVq0dvbi/fee09W+1MsVqsVLS0tmJubQyAQwPXr16HX66lQaH9/f0GD50wMBgMN/gBQg2hgaRnVYDBgamqqJJXmahAOh8HzPP38Dg8P4/r16/TzIA0qH3zwQeh0OgwNDeHs2bNob2/H448/jtnZWZw6dQp6vR779+8HcKMgPhaLIRgM0m3I+2c0GnH//fcDAN5++22IooiBgQHs3LkTFy9exOjoKKampvDmm2/mtAshx80V9OYrXB8aGsLVq1fL+nwoKCxHOv0/he4VQtq0U4wFE7A0z6x1cALcyPQT1Go11RTMhyAIiMfja76K8uijj5YUXEn5yle+gm9+85t1uVxIynCkJBKJpptuuulZm81Wck0Dz/OekgIsaUBV6O/1RjXGTcQ1pXAcl/UcgGU/jFu2bIFarcbx48eRSCRw0003Yffu3Uin0zh8+DBisRjMZjPuvPNO9PX1leUk39LSgqamJtoJJwgCRkZG0N/fD4PBQCUaFhYWMD8/nzcwIgGZtAA+Go1iYmICgiDAYDDQeiyLxbLmAZbJZILReKOLNBaL5f3/sNvt0Ov1tIaou7sbDoeD1hyxLEsbBIhMAylaFQRBVnck3ZZ4HpK6N51OB6BwrZJer4fFYpF1bBLy1eFFIhGluFyhiqQr2UQoQxTFmvc1LYTUdaGW6ejowGOPPVbWvtPT0xAEAc8//7wsOO7t7aXJgUqxefNmujJSZWwA/u9ydrx06VJgRUKjUpYLvtYbGzdupBYrhO7ubnR3d2dtu5y1jdPpxLVr1zA/Pw8AuHDhAu69916cO3eOBgOhUAiTk5O0Y7FUgsEglSqwWq2yIKuzs5MGA06nE06nE4lEAslkkhr3GgyGnB/4xcVFjI6O0kwL0ZQCakN89OOPP4ZGo4HD4UBnZyftBPT7/bh06RI0Gg127twJADhz5gwYhoHT6aT/jx6PhwYtoijSrklSD9fS0gKe57MmV6JjBix1IzIMg3g8Do/HA4vFgr1791LvQ5INI+dgGAaxWAwej0dmldPX14dEIkGPu2vXLjAMQ02qx8bGaqK+Q6ExWcq8KPN/PXPrrbeWvS/P89i7d28FR1P/VCzAUqgeZKmJQLI+mdmfSCRCsx+lsrCwQDsg29raaK2UIAgYHx/HwsICOjs7aZpeq9VCq9XmvYtIJpNwu92yIMpkMtFAzev11kQhKinIfuCBB9DZ2UmL0aempnDp0iVwHEcLPc+ePYtYLEaL3GdnZ6lVDrC0jEGyc0eOHEEikUBXVxdcLldWKzOx4gFuFLmTurd0Oi0TGpUaQxPNMSI0KrXK6e/vRyAQwOuvvw4gW2jU7/dXPcDSaDTLyoWQzJyyVFkaPM+v+XdGrVbTYD+TdHplN9gsx8HqaC57f4WV09nZudZDaCiUAKsOIMtNBGLom3mBUqvVZdcfCIIAj8cDl8sFg8GAtrY22cU4HA7TjI7NZqPLUyTgEgSBinSGw+GsYnaWZbF582b6uJzuoGoyPT1NA1aGYZBIJLBlyxaoVCo6VlIbMT09jUgkQuugotEotmzZAlEUadDU09ND9w2HwxAEAVu2bMmyrQFuiIeSbGAwGEQwGEQ8Hoff74cgCFQ81OfzQaVSIZFIYH5+Hul0Glu2bAGwVD9Gxg0sZddYloXX68Xc3BzVBjKbzWhvb0csFqMBWqVgGCbvcgDRwdLpdGBZtuY6Smud5dTAVwOTyZQ3wFrpEuHCrBsdPX3lH2AZpser64VqtjkwuH1XVY7tbGnDzCp4CpKbbIXKoARYFeadd96p+DFDoRAcDgdddhIEIac1jsViWdEEPDMzg6amJhgMBrS3t+esAUomk/B4PHQprBhYlqWmzwBqorg9E+J8T1qOGYbBpk2bEIvFaN0cuTuXCoYCS8WR999/P8LhMH71q18BAL74xS9Sq5zp6Wncfvvt2LZtW86sVKZVzsTEBC5cuECPLxUa/cMf/pAlNLp161aMjo7i/ffflwmNkuXEU6dO0eVlYElles+ePfD5fBUPsDJJp9MQRRHpdBqpVAqJRAKiKBZVsKxQX6x0iXDo9LHKDWaVScRj+PTkB1U7/pz7OkKB6oun+nw+usqgsHKUAKvCVKMQ8+LFi8t2oKhUKiSTSSpuWg6CIGBiYgKDg4MAQJd6VlIrZTAY0NvbS8fv9XpLCs5WC1J/RixsiOJ+MpmkyzIkg0W2JZ2GOp0OwWBQtozr9Xqh0WiyrHJI1otkq4Aby37EKofY35DjazQaqstls9noNiTTJh0vcKOLMJFIUBNpYCn7QJaQFxYWqmaTA4AGVaIo0lo90q2pVqtr2gJGoTxUWL81uKIowDtX//WN169fR19feVnEUuQo1gvKO1JhykmxLmc1kK/7S6VSwWw20yWocroHM4lGoxgfH0dnZydYlqW+hDMzMyXVfxD1dmk3odfrpebEtYbUKkdqYWMwGPDUU08BuHHx2L17N63Bam1txfz8fFZH3x/+8AfZ8YlVTk9PD+67776cGazjx49jZmYGd9xxB3bv3i0ze3711VcBAM8884ysBuvkyZNZljukizDTKuemm26iQqPF2vSUiyiKtBGC53nZOOpRO09hedKorEyDwuqjLNtXlhUFWEQPi1DNSTNTG6RWJ2jiRVgK5Xo5cRyHffv24cMPP6TGy5XA6/UiFovRZT2n00mLpAOBQMHMh9VqhclkgtPpzDJ9rtXgCsi2gipGi4ZsI/1JPpfk92KOm/lcruMW2rbc8VYTjuOgUqlovVkqlaI1WLX63VVYIem00kNY53zyySe0VKFUjEZjFUZU36xIyZ1hGLpUsRo2M1K19VoWBm0EotEoLl68SJXYSaBFiq1JdoKg0WhyLmMS65Ra17Ahn6XW1lZs374dU1NTOHToEKLRaJatzKFDhwAsySu0tbXRfVmWxbPPPgvgRmNCrhosYCnDQ477pS99SXb8jz/+GB9//HHOcf70pz8FsGSVAywt4+7evZvWYAUCgbw2OKstpcKyLFiWpZ8LnufpMmG9eVIqLE8aaVRNCKtIrFYr1Go1kskkvRHU6XRoamqiDSSCIIBlWZp1jkQitCa0qakJOp1Otr9arYbVagWw5LVKpFHIuaT7GwwGGI1G2bnqiVgshn/7t3/DN7/5zZL3Je+Rwg3KEholZN6xV4NcgVstB1mN1HqeTCYxMjICk8kkk2gAbsg05CMajWJubq4mtK4UagOO42idhlSIUKExWPJ6Xrv5WKfTweFwIBQKobm5mQZIra2tVN+OZVm6pG80GhGPx9HS0kKz662trQgEArDb7UilUohGo2hra6P1jG1tbZicnKSCypFIBJ2dnbR7uKOjA36/ny7/V3JlYbWYmprCL3/5Sxw4cKCk/aanpzE3N1fWKs5qcubMmbx/27FjR0XPVXIGSxAEWlNBiljJ36oBCaDsdnvWckgtBlmZtTfVRBRFeL3enFYqlYRINLAsC6vVSi10MllcXIQoivD7/Wuu11MqiUSC3nESiYR87Nq1Cy6XC+FwGMFgEKFQCMePH8+5REi6OlOpFN32xIkT0Gg0ePzxxwEsvW8cx2FwcBA7d+5EIBCA1WpFKBSC2WxGJBLBkSNHAACf+cxnqKRDMBikxyXHI+KkwI0uwkgkAqPRSMdbTUXpZDK5rOm4tMBfoYFIV0/JvRgYhoFWq6WNIQSVSgWtVguO4+gNMMuy0Ol04Hledv3QarVgGEa2P5GjIZkvgk6nQzQalclWkEy+RqPJ6bJQLxw5cgRTU1P48pe/XNRy4ZEjR3Dw4EEcOHCgZgOs999/H//8z/9ccJs33nijoucsOsAihakkuCH1FNLH1YIEcrkyaOsZQRBw7NjqtTZn2r00ElqtFhaLBbFYDBaLRdaVl4nZbIbD4UAqlYLFYkEwGFz2fVGr1bBYLPD7/fB6vfQYwI0id57n6XEdDgcEQYDD4ZBN4Ha7nRa5WywWxONxWCwWJBIJevduNpsB3AiwGIaBzWaj462mBpkoijUnwaGwiqzxzS7DMGhqasrqUjUYDFCpVLJSBa1WS69jUnJpfRGLLOmNAcdxOYWWdTqdLECrV0ZGRvCd73wH999/P2677bYsf8JYLIaRkREcPHiQ1hEfPXoUTz755FoMd1mIF+5qUnSAJb07V6lUYFmW1mBlFrtXCmlRbq5i4VrsRuI4ji6dxeNx+oXU6XTYunUrHA4HGIZBIBDA5cuXi2qVJ8KRxUI0nRSK5/Lly5iamkIqlVq2ZuzSpUu4fv063RYA9u7di0QigdOnT+fcZ2JiAuFwmGa0pFY5JBAigZbFYqHZr9HRUaTTaWpBMT8/D4ZhMDk5ieHhYaRSKVy7dg2pVAqjo6NgGIbKa4yOjkKlUtHjkno4lUqFvXv3IhKJ4JNPPqnYe6iw3qmN1YRcfq/5xFH1en1Wh3au/RmGgU6nK2rbct00apFYLIa33noLb731FoClJVCDwYDr16/n9GydnJzEiy++iOeee261h1qTLBtgZX5hMoMb8vdKdgdlLgGSf9IMWq3q6GzatIlaqxw6dAixWAwMw2Dv3r2yLouWlhY4HA689957yxaA9/X1QRCEorOESoBVOqXoh2Vu29XVhf7+foTD4bwB1sLCAtWyAuRWOZnccccdcLlciEQiGB4ehtlspgEW0cw6c+ZMTj0xq9WK3bt3AwB+//vf5/zM9PX1ob+/Hz6fTwmwFCpGOr30r3rHLxzACYKQU2g5EonQG12yRJhIJOi20nIA6f5kH+n+ZNt855I+V0o9bq2VuuSjmI73V199FZcvX8YDDzyAlpYWzM3NybLmRqMxy6c3Fy6Xq2xv3Vohb4AlXfojwQz5EDAMkxX0VHq9WRpMSZcIM4vqa+1DSTop/H4/jfDb2tpytrCyLItNmzYte5GLRqPQ6XTw+Xxwu92YnZ2tet3VemHTpk10eY7jOGqMTB5L6y7I7yQjND8/D6/XC1EUMTc3J7OpGRkZgSiK6OjogMlkovuEQqGsAu++vj6wLIvJyUnaHECER7ds2QKGYWTdhyRzDCwF6na7HcFgkFobZVr7dHV1wWAwyEyjh4eHc2qrKSiUT3VrsDiOk5nF50JaXyjV4CPPG41GOheT51iWpdtK97fb7Vn759s213PScy1HozV9jI2NUVeLcnnqqacaN8ACspfo8mWUKiHRkFm8niuYysxs1WIWi3SPSL34iAEwsHRh8/l82LFjB7RaLZU9KMThw4dhs9mwYcMGDA4O4pZbbsHc3Bymp6fh8XiqWv/W6OzYsQNGoxELCwtwOp1UPJQ8llrlkAJy8rczZ87A6/WCYRi0tLQgGo1Ss9SxsTEkEgkMDg5iw4YN9Ljj4+NZk+kdd9wBjUZDfQ0nJiYwMTGB3t5e7Nu3L6fZM/ns9/T0UKscEmCRixD5nmzbtg3Nzc10DFeuXMGHH35YlfeTYZhlbXBEUSzYRKBQn6zUKkehcajENam5ub6NvwcHB615Ayyr1ZqzQ7Ba0gzkYkB0cpbLTNVa5opAihulFxCS1UokEhgZGQGwpJi7efPmZS1wCH6/H36/H0NDQ3A6nWhvb8e2bduwfft2zM7OYmJioi5bgteacDgMnueplQ35KbXKIZkekt2Kx+MyjZtkMomFhQUkk0la4G21WiEIAu32y7S0YRiG3iGHQqGcRt2iKNKORvJ5IuKdZNtwOJzXKocQCASoQXS1uwg1Gg16e3sLbiOKInw+H2ZnZ6s2jjVFpcLgrXfAYDKXtJtarcGlT05VaVDVJxJexMaBm9GxsXirlXg0gsufnIIgKBn5RmK9N6AR8gZYarValq3KnPwzi84rQTqdRjKZpEuQqy2MWAlIZoGMWa1W0zRxZg1OuZB6nqGhIWzZsgW9vb20s0yhNEwmE4xGIz7++OOibSL2798vs8aZnZ3Nsp4hZs9erxcWiwVXr16VGYGbTCY89thjAG50EWZmZBmGoQXvmVY5ZNuLFy/i4sWLsv2IVQ6BZKt2796N7u7uqnYRFoLneepJmKs4uFFgGRZWRwvOflSa8XtaTCMRv9GB6ff78Y1vfIM+vu2223DvvfdWbJzlcPToUXzwwZKpcaYUy+z1MfgXSvMZvXnnXVBrtRCiSoDVSNTiqspDDz2ECxcurOo5ZQFWZl2TNMhhWbaqUak0kJPWdK2GQnwlSSaT0Ol0aG1txbVr19DV1UX/5vffcEMntTDlLJXY7Xa0t7ejra0NarUabrcbExMTKx/8OiSXfUw+x4BCn8PMz2khu5vMx/nsdJazyinG2SDXMv5qfp9EUUQqlaKBFc/zUKvVDW8MmxZFxKMrq3FLp9OybGSurq3VhmRBc5FOp0t+zekavBArrJxKBFiVnqfa29uX1cGqNFmznLTOSppBqrZqOzmHtJi9FmuslsPn86G9vR1WqxWPPPKI7KInzRzYbDYAKFozyGKxoL29HRs2bIBWq8Xc3BwuXLgAj8ejiDaugMws6fbt27F9+/acNVgvv/xyzotcV1cX7r//foTDYVrY+Ytf/AIA8OCDD8qOT1hcXMyyytm5cyccDgdOnTqFCxcuYGxsjMpAZI539+7dsNvt8Hg8cLlcMmNowjPPPAOGYeD3+2Gz2XDixIm8NjqVhud5JJNJJBIJiKIIQRCqkvVWUFCoPeopKVJNZAFWZqE5odotpFKpB9KpVa//QVevXkVrayv1ZyS43W5ay6PVamn9zfz8/LLHvP/++2EwGLCwsIDh4WHMzs5WtY5GQWGlMAxDywxSqVSW/6ASYCkoNC71ev2uNEXl6Vcz2MoUFa03gsEgjh8/ji1btsBisSCVSmFmZgaXLl2i27S1tdGlwWLqYYh5qNlshtlsxuDgYMHtV9Oup94hRe7kM8fzPILBIDV7TSaTtNaEbJNZ5E6WcnIt9544cQJqtRrt7e347Gc/S5XWpZY2xCpHatcDABs2bMDtt9+OcDhMrXLeeustMAyDW265BSzLYmpqCidPnkRLSwu0Wi0ikQjeffddAHJJB4Zh0NXVhc9+9rPUiicYDNJtKw25wSD2JeS9TaVSMpmJ9YZKpYLJZCorO89x3Jqr5KtUqqwav1IRBKFo83dpJ9lav/ZqYrVaodFo4PP5GmZFYnFxkc4D5B/Lslmir4ODg+js7KTlQTqdDj09PUVpZdU6eZcIye9AdQraM8kVVNWq1tVyeL3egm3w4+Pj1Fy0GK5cuVKJYSnkgBS5k88Yx3E0MCbWOWSJkGyj0+lkRe7kopNLC44s2fX09MBut4Pnedjtdpn0gtQqR3ockumU1iuROj4yBmJfZLVaYbFYkE6n89r2bN68mZrYSjV+qgWZUAkkq6VSqYpyMGhEiPFwOQwNDWFoaKjCI1p9NBoNFaAshNFopN8RjUbT0EG5Xq8Hy7LQarV5Px8mkwmbN2+mj1UqVdHWVBzHQafTya6l8/PzRTf2lEOuIFq6ekP42te+VrUxrDU5M1hrEdBIgzlpFqvegqtqWOUoyuzVw+fzIRwO08k7kUjA4/HQn6Io0iCJfCbD4TA8Hg/NbImiCI/HA57nqeI6yRpduHABwWAQExMTWFxchF6vp3IkZMmYbJtMJmkhOLDULXrs2LGcitDnz5/H6Ogo1Go19u7di8XFRRw7dkxmq/PRRx/Jblzi8Tg8Hg8CgQBGR0erokXF83xOhXkpgiAU9HpsVEgQvV6DSykul6uoRgdBEGggUc8rG8tRjFNHZ2cn/vzP/xwulwsejwevvfYazp8/X3TgqVKp8NBDD+Hhhx9GMpnEoUOH8NJLL1Vi+EVTb9fzlVLyEmE1qNdgKhfVsMohMAyD9vZ2OBwOurwUj8fh9XoxMzPTMKnl1cRut8NoNNIlG61WC5fLlbPInXw+TSYTXC4XtcxhGAYulwvRaJQaoiYSCWi1WkxMTCAYDFJpjZ6eHtx22205M1herxcOhwOTk5MAlrJfuew4gBuWFbt27UJ/fz9GR0fx/vvvw2q14q677gIAHD9+XHZR0ul0cLlcCIVCVI+t0vA8X1Rd4Xql0o4X9Uox70M8HocoiuA4DjzPN/T8Rm7MpZ3muVCpVBgcHITH40E0Gi0pq5dOp3H58mU8++wo4ZlRAAAgAElEQVSzeecVhcrS2L3Sa0A1rHKApUBgx44d0Ov1EEWRZjWcTie6urowMDCAs2fPrlgLq7+/nzrE5/PVA5aCjIGBAfq40LYA4HA4qAmx2+2mquNrTWYGa35+HpcvX6bioVKrKJJZypfBkmZmyH7kotDc3EwDY7IvCZJIXWMikcD8/HzWJCsV7yTHJYruKpWKnpvY6pAMUuYdP8nKKSrqaw/DMA2tBZaPaDRadCZKEASZ9x3Lssu6BNQrbre76ATDSjN5pdRR79mzB3ffffeKzidlYmKC6qitB5QAq8JUwyrHZDJhz549CIfDGBoagsfjkWX9XC4XBgYGsGfPnpIyYsthMBgqVlhKFO5rjcwM1vT09LLGz4UyWOQCQDJY5E69q6sL27Ztk8kpHD58uKgx6nQ67NmzB8ANqxyfzyeTaVCpVOjv76dF9EC2NhfJzil3r2uLSqVCT0+PzA5sPUCW+TKlRwqhVqtpUXQj+69qtVowDLMqNz+lBFh2u11W97VSMsVpGx0lwKow1bDK6e/vRyQSwYcffpiVJk+n05idncX8/Dz27duH/v5+nDlzpiKvpZI6ZMVaAq02pItQp9OhublZlnliWVaWwZLWSuXqIkwkErKAlCxxADe6E4llTiwWox1Smd1+4XBYprcliiJ1ASDjIh2HsViMWuUwDINEIkGDKofDkbVPpq2Owuqj0WiQTqdrQjh0tdFqtUXPBVqtFl1dXWBZVpaZbURaW1uhVqsxPT29bJC1UouphYWFooPVsbGxom8Eiz33ekIJsCpMNaxympubcfny5YI1CIIgYGxsjNZ/VQKr1VqxbBhZdgRqy0aBdBEODAyUZPacq4tQKjRKrHLI54F0J/r9fhw8eBBmsxlPPPEEgOwaLCI0SgiHw1lWPI888ggsFguGh4dx9OhR+rzVasXnPvc5uk2m0GjmcRRWn/WUtcqkFGcOtVqNSCQCURRpc0ijQvxIC93Uut1u/PjHP6aPpaskxTI5OYm//du/BYCibrQuXbokkxhaKbm6CBsZJcCqMNWwyuE4rqjtEolElsZIqSwuLtJgyGq1ymogykWj0ciWCEn3XC0g7VrN9N6U/pRuS37PdZxcxy30ON8YShl3rr+Ve9yVotPpcPPNNxfcJhaLwe12r8sMjkLx8DwPg8EAtVoNlmUbemnbarWCZdmCQU8wGMT7779PH2s0GjQ1NRVdfkE6opXv3eqhBFgVphpWObFYDFarddkUudVqXfGXJxgMor29HcDS3YbJZFpxFqulpYX+XorI4GpAMk4rYXJyEv/1X/8le45Y5RDOnDkjW7pdXFzM2qcU/vu//zvn84FAYEXHrSakFV2lUqG1tbWkWhyF9Uc8HsfExISsBossezcabrebuh4USzKZzKt5p1AbKAFWhamGVY7b7UZvby/VMMqFzWbDxo0bce3atRWNPxqNIplM0ruizs7OFaWINRqNrJC/nLS2Qv0iiiK1wCL+hADWZQedQumkUikadDSyxEUikajJpWObzUabZiqBIAgNLbeRiRJgVZhqWOVcvXoVLS0tuPvuu+F2uzE7O0szVXq9Hq2trWhvb0coFKqI6rvb7aaSCgaDgQrblUNnZ6dsYnS73Ssen0LtIw2qUqkUFVBNp9PQaDR1aeSusLowDIOOjg7abbmcRlQ909bWBp1Oh+np6ZrymX344Ydx7733Vux4IyMj+PnPf16x49U6SoBVBSptlcPzPD766CMMDg6io6ODilkSBEHA5OQkLl26VJG7A6/Xi5aWFio50NHRAZ7nS05H9/T00A5KYCm4Wm9tuusVolafSCTo0uBqWG4pNA5ETFkURWi12qKU3+uVVCoFQRCgVqtrKsBSWBl5P7FrNRmul4mXZVma2Skm6EilUvj0009x6dIlWCwWusQSi8UQDAYr/qWcmJhAf38/HWNPTw+0Wm1RGSiNRoOenh5Z52A0Gq0ZcVGF6sOyLDQajUyFm/xr5KUehcpBvCxVKlVDB1fAUtmISqWqqQYgAHj99dfz1nuWg0qlqlnJnmqQ81NLhMjydUxVmszjkyCLjKGegq79+/cDWMpSXb16FQBw0003AViSaSBLbf39/VTA7c033yzq2ETQMtMqR6fTVdwqJxqNYmRkRBZktbW1wW635z0XqbdqaWmRXUTJsRTWF+QmghQpkwArnU4rmUyFZYlEIrKGmHg8XrOCxSslEolAo9Hk9B1dS2KxWEW7DjUazfoOsHIFV9JAp5rBFjmHVOG4noIr4EbxrlQugdicpNPpsmuZVssqR0quIEur1dL6LCk333xzzi/O4uIiRkdH11Vho0JuSMBFbIgUFJZD2gTEsmxFC65riUAgUHfXOoXlyQqwyH/ywsIC4vF4VqBDflYy0CLHZBhG1n2nfOCWWCurHGApyDp//jw6OzsLtkhnBleCIGBmZqah1ZcVsonH4xgaGlrrYSg0CFarld6sVsq2qxYhtarBYDDvNgaDQaarWIqWIlmyl5aSBAKBVS/baGSx2FzIAqzMuivyL1NyoNKBjzSgIueSqmSvt/+UTNbKKocgCALGx8fhdrvR0tICm82WN1UfjUbh8/mwsLCgZK0UFBTKxmg0wm63g2EYcBxXUw4QlcZoNIJlWaRSqbyBZHd3N772ta/B4XDA6/XitddeK0lCJxaL4cEHH8T999+PVCqFw4cP46WXXqrUSyiK9ZY0kQVYmdkpEvCQoCcz0KoGuTJY6z3IWiurnEySySSmpqYwNTUFlmWztIxqSUBUQUGh/iG1eo1et5NIJIqSLlGpVNi2bRuOHj1KNQtLYWhoCE8//XTRqvgHDhzAPffcU9I5CjE2NpYlwtzI5KzBIkgzWOQfeb5aZNZgkTHVW+Tb1NSEjo4O2XMmk4k+J+2wW47VtMopllpTZFdQUGgsiOCxTqcDwzANLVJsNpuhVquLeo0rTTaUcj3lOK6ijQWN2qSQj5w1WLkyWJkBlvQ/qRLZpeWWIImXWr10FrpcLrhcrmWfK4bVtMpRUFBQqAVSqZTMmYJlWZntViNx7dq1VbumlXK9PnbsGO2GrwTFJAoaiYLiIvnqsKQZpmoEO/k6Gddr8ftqWuUYDAZa/1aM23qxsCxLhUsTiYTSpt+gcByH5ubmgtskk0mEw2GlRk9BoQyKsVcrhM/nK1o3cWJiAhMTEys6nxS1Wi2zTmt08i4R5lqqkz6XmemqdKCVebxcwVUtZrKqoWOymlY5HR0ddPny9OnTKx47wel00uVRt9utiI42KBzHLZulTafT8Pv9im2SQkHUajW6u7uhVqvBsmxDzxm9vb3QaDSYmJjIm+WZnZ3FK6+8Qh+Xs2Q6NTWFb33rW2Xvr1AaBTNY0mU5KZmBVrXIF9zl+nut8Ic//KHix1xtqxyCyWSqWJ2V4j2nkEqlEI/HwfM8FcpVUMiHVqtFLBZDJBKBTqdr6EYnv98PtVpdcJ70+/04dOgQfazRaGCxWIpWuRdFEYFAAFNTUyser0JxlOw/QJYLSeCV+YGoZtAjrQGr5BKlVqvFvffeW5XgqBAajQa9vb24fPnystuutlUOgIraUzR6F5BCbgRBQDKZRCKRQCqVgiiKUKvVDW99orByeJ6HVqul5uDFdr7VI0RAtRSrnGQyueLlwuXYu3dvRa2totHouspclzTLkYwWAJl0Q7XIXHqsVg2WKIoVL74jwm7JZDIrq6TT6bB582Z0dnaC47iiAixCKpXKq4Kt0+mwcePGkrRRMpGO1Wq1ViyNLDV9bmQ9G4UliNFzPB6n9jiEame+FRqDeDyO2dlZ+pjn+YJix/XM7OwsOI6rOTHVL37xixXtTJ+cnMSPfvSjih2v1lnRbaR0kiRZrUqSb0kwV9BVLF/4whfwyiuvyMaq1+uxa9cuvPfeexUY9ZJtTHd3NxiGgSiKmJiYwNDQEFiWxeDgIP1bqZhMJuj1ekSjUdmdjslkwqZNm9DR0YF0Or2iACsajdJgSBoUrQRp4TxQ2eJ5hdqEZVlqYMvzPFKpVFagpaCwHNKAo5FNwmu18ScUClVUWmG9dbmXnMECspXXM5+vNPlqwMqZrH0+H55//nn86Ec/As/z6OjowLPPPotf/epXFRlrT08PNm7cSB8zDIONGzciFouhpaUlq4OimC+VTqfDzp07YbPZ6HNTU1P45JNPcPPNN6OrqwuiKGJsbGzFXYTBYBDt7e0AliY0ohq8EqSt1clksubu0hQqD3FjMBgM9HtKAq10Oq1kMRWKwul00vm/kecNq9UKjUYDn89XU9213/zmNyt6vFxdhOFwGCaTqaLnqRXKzmBlZpNWQ59Kes5yz/X2229j165d+OpXv4oPP/wQDz30EH74wx9ibm6uImMkwUkmAwMDsjuwaDSKa9euFdUCOzAwALPZjMuXLyMYDEKv16Ovrw/33HMPzGYzxsbGMDw8XJE6rGg0isXFRdpJ2NbWtqIAy2AwyNL6isnv+iEzy8xxHK298vv9azYuhfrAaDTSC69ara6pwKPSaLVamvVt5EAyV1Lk6tWr2L59+xqMpvqUFGDlCmjWoqtvJefZuXMnRFGE1+vF008/jddeew1dXV3o6urCxx9/vOKxkWLFcDiMc+fOQRAEbN++HRaLBcBSBufixYuYmpoqOgPX3NyMq1evyiQYwuEw9u7diytXrpRUw1UMc3NzNMDSarXo7u4uSwuFZVl0d3fTx4IgVCyQVahNeJ5fVhA3Ho8ry8QKy0IynaTet5Hr9hiGaegAcr1S8VaeWv8S2O12AIDH48Fvf/tbaLXaina4kTv0qakpepc+Pj6OW2+9FQBw6tQp+Hy+ko6p0+myXNZJR001MkKBQACBQIDWYJGUbilBFsuy6O/vp+KiADAzM6NMIg0Oz/NV72xSWB8kEgkaYKVSKfA837BWKyqVCjqdTsnsNhjrrle62lIMJMCULtdJfy/nC5QraCU1LNWqZRkfH8fWrVvphOZ0OsFxHMbHx5cNkkwmE3p6emSBq9frXTazoaCgoEAQBEGm2SR1g2g03G73sskJvV4v04+z2+3gOK6oawDLslhcXJR1y4dCoWXLSrZv317RBEQymZR1hjY66y7AWi02bNhAlwWJZhUA3HLLLVnbfvLJJ8ser7+/X7bcRr6Mg4ODWV+SkydPljVmKYIgYHR0FP39/bR2zGq1Ytu2bZibm4PH48kKtEwmE9rb27OMrBcXF3H9+vUVj0lBQWF9QYyegaXsaKOi1WrBMExBuaBHH30UDz/8MDiOw/T0NH7xi18gHA4XfZNtMpnwV3/1V+jo6EA0GsULL7yAs2fPFtznySefrKi1jdvtxg9/+MOKHa/WUQKsKmG32+lypJSurq6s55YLsEiReaY4Y77nK0U0GsX58+dlS30sy6KtrQ1tbW0QBAHRaLTgnaXH41GUgxUUFEpGp9Oho6MDLMuCZdmGzoC7XC5wHAePx1OwyN1qtaK9vR1jY2OIx+Ml6Tcmk0kEAgE88sgjOHPmTNH7VNL+rZGD5FwoAVYdcOzYsTU7tyAIuHTpEtra2uByuWSdkCzLZmWrCMlkEmNjYxWz2lGoDxiGWXYZJ5FIKLV4CsvCcRxisRhEUWx4q5xwOLxq7galdOB/+9vfrui5izGDbySUAKvCTE9PV/yYd911F3w+H3w+H/x+/5oI0s3MzGBubg5WqxVWqxVNTU1Zwn/JZBKLi4u0SF5h/UHsnwqRTqcxPT2tfEYUCpJIJGAwGMBxHFiWbWirHKvVSuukFBoHJcCqMMWmXktBFEX09PRg8+bNAJbudqQB12pliQRBgNfrleliGQwG8DxfkyrECrUFz/PgeR6CIMBmsykBlkJBUqmUTJqGZVmZaHEjce3ataKySoIgrFgN3ev1rpnQbyNnIXNRVoBVKMW4Gm9grUtBsCyLzs5ONDc3g2VZhMNhjI+Plx0IffTRR1CpVGhqaoLD4YDNZoPT6aT1XIlEAn6/nwZcpcpArIRGFsVTWDmiKEIQBKRSKdpqr1KpYDQa13poa8Z6u8hIEUWx5ufvWmV0dBRvvPEGAJS9xH7o0CFacjI5OVmxsSnkZkVWOWuB1CKnFr+oLMvizjvvlNnaNDc3o6urC6dOnSpbIyidTiMUCiEUCmFsbAzAUhGozWaDzWaD3W7H1q1bAQBvvvnmyl+IgsIKEASBWuOQzJUoikin09BoNDX53V0NSLaX1BWV40lar4iiCFEUlRq8Mjl79qys68/hcJSsC3bu3LlVKzQ3Go1UeLsQL7zwAgRBQEdHB7RaLW1uuOeee9Da2roKI60eZSm5Z2awqmmRk+tcZCzVtuYph40bN8qCKwLLsrj11ltx+PDhitzBsiwLo9FI7SRIRkApKleoBTJtrci/zL+vJ1KpFDQaDcxmM0KhkEzTaL0Qj8dpd/V66yirNCv1iK02pVznWJbFzMwMfXz58mX09/evrwALWLoLIXejBPJGVivgUalU1JNKOnHXIm1tbfR3v9+PWCxGu+/0ej1sNltZS3g6nQ52u51mq8xmM0RRhN/vh9/vx/j4OAKBgFILpVATMAwDtVoNlmUhCAJdKuR5Pqs5Yj2gVqvxzDPPAFgKtFQqFSKRSMHvK8MwVEsPAN5///2CdWt79+5FZ2cnfZxIJJZ1enA6nVRI8urVqzh9+nTebS0WS1YDw3LZSPJ/DizN2SSDoiiWNz61eo1eTYoOsKSBjSAIdNIk/8jfKo1KpQLDMDRDk5lFq7UsFpEtmJ2dxalTpwAsLRHu2bMHwFLatNQAa//+/dDr9VhcXITf78fk5CT8fn9Dd9Uo1D8Mw4BhGNp+Lp0r1lvtHsuyWRp4Y2NjBecClmVlAc0777xTMMBqamqS3fEvLi4uG2DZbDa6jLNcZ6fL5cK+fftkz50/f75gkNjc3ExfgyAIOHr0aMHxKDQOK40HKh1PXLlyBf/4j/9YMPNHatwqRdEBVjqdpqabxB8qnU6DZVn6e6UhxyTHl567loIqKeTuXPqfKP29HK0TrVYLnueRSCSQSCRKFphTUFgtRFHE/8/em4fHUV3p/28t3a3etK/WasuWsSxZXsHGJg6GkADBLGPIjyE/EiYkkOFJhoSQyUKYkIXMQEKYyUxIMmEgCQkDw2KwHbMbB4xXvMu2ZMuWLFn70uq9u7bvH61bruq9Wy1Lsu7nefSou7qq7q2q7rpvnXPuOR6PJ+46kiRNSA1NCoVCicWOHTsuuFs1rVmEWkGlFVYTJbLChZXWajVVhZbWhap9nU5/t27dipycHHUGYVVVFUwmk2rRIn80hwplsiEJZikUysyGugjHmQcr3HKViRMaLaB9OgbJamsRaolWqy9RqRxtrBXBarWqMwhnz56NRYsWQRRFOBwO7Nq1KzMHQaFQKFMEEp5CmR6MVw/U1tZmqCeTR4TAItYiIFLgkBwmWnET63U6EMsUsVIRARduLZuKsVfhxKpFSESRlmSKPYfj8Xjg8/ngdrvh8XhQVFSE4uLiGVWGgEKhzBxkWUZ/f3/Mzy0WC+bMmQNRFMHzPI4ePQogNLObxPD29fVhYGAARUVFKCkpgSzL8Pl8qtW1oaFB3d/p06fh9XrV7bXrkrYIpK2GhgbV20LaSoapPJaliyAIGBoaUsfturo6MAyDqqoq9XqQc0vGdKvVirq6usnsdkaJEFhEuPA8r4oc4prTiqtMixztvrRCK/zzi/GLmCwGg0E3kzAnJ0e9Ti6XCx0dHRc0ySiFQqFMNTweT4T3wOfzReQck2UZbrc7Ylbr6OhoxPYkn1s4DocDubm5EW2lmp/qYqOqqgorVqzAokWLMHfu3Jg1ay92YroI7Xa7zjVHkgRqyYTLTiustFN6o603HZiIWoRNTU3Iz89XU1VIkoSRkRGcPn0aw8PDcDgcEAQh4+1SKBTKdEIURfj9/ohKAX6/HwaDQbeMTBrSFicniVDDJxF5vV4oiqLbB9k+vOzMxTZDtqCgABUVFaioqFCtS52dnRgeHkZrayu6urp0619xxRV48MEHJ6OrUw6dwApPfaAVNRM1U5C0SwgvpRBuMZvqTEQtwqKiIgwPD6O9vR3Dw8NwOp2Tci6MRiNyc3NhNpthMpnU8icA1KzUXq8XPp8PDoeDxkvMQIxGI2pqauKuEwwGMTQ0hEAgcIF6RZkJCIKAQCAAk8mkEz3kHsVxnCqc/H4/zGYzjEaj7qE+EAjAaDRCURR1O7fbDaPRCIPBoCZylmUZgiAgKytL9z12uVxqcepEs2mnA+vWrcNnP/tZmM1m3XKtG6+1tRV//OMfMTQ0hPnz509ZcXXNNddg+/btF3QmYVQXIfkfyx2Y6cGduP5Ifi2GYcBx3IS5IycLhmFgsVjAsiw8Hk/SBTffeeedqMsNBgOuuuoq7N69e8IT95WUlMBoNGJkZARDQ0MxxVNubi4KCgpQVlY2rvqLlOkJy7KqpTUcYgXPysoCx3Ho7Oy8wL2jXMwIghB1Bmu4hQUICaFos67b2toilkWLo/L7/Whvb49Y3tHRkWx3pzQVFRX4whe+gIqKioTr1tXV4fvf/z42b96M22677QL0Lj1mzZqFZ5555oK2qRNYySbxzKTQCRdrkiSB4zjVkjXdhJXNZlOD2/v7+9UnpqKiIixevFgtjyEIAk6cOBH1R5oKBoNhws9PbW0tHA4H+vr6Eq7rcDjgcDhQUlKCuXPnoqenJ6ntKBcn2jADYmGQJEnnlqFMHIny7k2neyvlwvHFL34R5eXlSa9vNptx6623YtasWRPYq+lHzCD3cGETy3U4XqK1MZ3SMYRTVVWF2tpayLKMt956C0DIbbJ8+XLdzc5gMKCxsREejyftAtAXgpKSEvh8Prz22msAgPr6ehw7dizhdmvWrIEoiqipqYHL5bro4hIo8dHGbQYCAQSDQTXj90wu9qylpqYmoTt1PNjtdjQ1NU3Y/gGguro67ngQHvdEmfrceuutKYkrSmyipmlIJKQm4uYYXhRWK7Sm082YpGAYHBxUffgVFRU6cUWm8QKhaapTVWAZjUYUFxfjyJEj+NOf/gQAuO+++9TX8VizZg2GhoZgMplQXV2N48ePT3R3KVMISZLUIOBoE1fCZ3TNRKbTfS0WpMwO5eKgoqIC69atS3v79vb2CX1omG5EtR/HcgtO1A2BCLpogfTT7SZEggG1/v3CwkL19c6dOzEyMoI1a9YgOzs7ajLSaOTl5aGmpgYWiwWBQAC9vb3o6urC5s2bJyzgvaCgYNyxXX19fSguLobNZqPxWDMI8kDB87w6GYLUIpxuv2kKZaYwXosnLeGmJ66D/kLcCMMzwU/3my8xiWu/aCRPitvtVmuw9fT0IDs7O6l8KcXFxbjssssgCALcbjfy8vJQVlYGu90+oZYhi8WiJvYjM0PKyspSmiVC6s6ZTCYqsGYYPM+D53mYTCYAoSn0xKobKx0LhUKJTUVFBYqLi2N+3tLSMq7Zi5WVlWlvS4lkXKVyKJEQ1wcRThaLRR1gtNNDySy8ZAaauro6DA8PY8+ePRAEAQzDoLGxEXPmzEFra+uEpUOwWCxq7BQZGBVFwdy5c1Paj8/ni5jmS5l5EMEFgE58oFDSYM2aNbjyyitjfv7444/j1KlTae8/mVmDlOShAivD+Hw+WK1WVFRUYGhoSPdEoM2yTgRHMrmAbDYbjh49qhM5p06dQnV1NWw2G0ZHRzN8FCGMRqMq3p588kkAwNe+9jU0NDTg2LFj+NWvfgUAeOqpp+LuJxgMoqCgYEL6SJlaBINBnD59Ou462vxpFAolNbKzs1FQUKCbQEDK0oyX4eHhcd2ryUQWSggqsDJMf38/Zs+eDbPZjJUrV6rLJUnS1dEiX+JkzLkGgyFiQCLvE03DHg/R8sQQSDxNsvspKyvLVLcoUxhZlumMUUrasBwHjqPDEhD6LUli5IOIyWRCbm6u6hkBQg/qmQjB6OzsxLx589LenoaB6KHf5Axz8uRJlJaWRrjETp48qap7u92uzr5J1lVitVp1AfFEWNlstgg340RZtCgUCmUiaVh2Oew5eZBEagkxGE344M3XIpYPDAxgYGAAIyMjcDgcus9EUYTBYIAoimlNfqLJf0Px0T09PeStnJWV5WYYJilrQiAQ8A0MDLSS91RgZZhAIIAPPvgAs2fPRk5ODgRBQHd3N3p7e9V17Ha7ml04XnV4LQsXLoy6fNGiRRHLNm3alEbPI5mpBTopFMrkcWTvh3A6aNH6Kz59Y9Tlg4OD2LJlS9Ss9cD5WesOhwM+ny+lNg8dOoRz586NKw/WoUOHIEkSPB5P1Mz4ydLc3Jz2tp2dnRmxpA8NDXUFAoErAcSPe4gBFVgTQCAQwIkTJ2J+3t3dje7u7qT3t3Pnzkx0Ky04jtMF0R84cADd3d06yxtJqKrlmmuuuSD9o1AoFy8kr2A4wWDwoqj1lw6vv/667oE9FmazOWWB5fP58Oyzz+L73/9+Wn3r6enBH/7wh7S2vRihAivDkCruwWAwbiCv3W5Xa7ZpzJFRIakdJoPwIPoPP/wwYp2XX345YhkVWDMTlmUTlsGRZXnG5cuRJGlcT/NA4hxDZ86cGVcB7UTuofHm20t1e7PZjH/913+NKAemKAoOHz6sTry577770NjYGHUf3/jGN1SRMW/evJi18t57772IB9lYIqOrqytCRGzYsAHz58+Puv4vf/lLnTVl0aJFuOGGG6Kuu3nzZhw6dCjqZ0AokedEpzghx/eFL3whpe3OnTuHF198cYJ6NT2hAivDkCy4p06dUnNUfeITnwAQ+uKSGVYVFRVquoNELj2LxQK73Y7+/n7dTaqwsBDz58+HzWZDIBBAe3v7uGsbhlNYWEhjuihJYzQaMWfOnLjryLKM4eHhpJ7CLxYEQcBzzz03oW3s2bNnQvff2tqKRx55ZELbiEZRUZEuX2AgENDNoGMYBtnZ2bqs8pIkwel06oSZxWJBdXW1bpYcqZH58ccfRy9ba4oAACAASURBVLRbVVWFnJwcXVuiKEbN1VhcXIz58+erD9jA+QkfHMfp1rXZbJg9e7bOOkdKSr3//vtxz8XRo0djCrlMsmvXLgwPD+O2225Lyl24efNmbNmyZcL7Nd2gAusCQILT07VE1dXVITs7W+eWs9vtuPTSS9XZiXa7HY2NjfD7/RkduHJzc2G321N+mqFQwhFFEcFgEJIk0bxolKRh4YHgagFvyAqJG78Pxdn6ChNZWVmwGd3we0P3PkaSYJAiZ0FzHKfL46coSkSguJaKigpdLKrH48HJkyejrpuXl4eqqir1fSAQwLlz56KuazQadf2QZTkjaRYySWtrK37yk5/g+uuvx/z581FRUaH73Z47dw6Dg4PYvHmzGlNM0UMF1jQgPz8fHR0dumWzZ88GEHLZeTweMAyDlStXYs6cORm3DNTW1uKqq65K2Z9PociyrAorQRAgSRI4jkvoRqRQAMDpdKKl/31UzL8ZnBiyBLEGFkWVhVi1bAt2fhwKr3j/7RewbOV1sFhC1haGYSAZAvjWV9fiR7/Yqu5veHgYTz/9NC677DJ1JrYkSVizZg3eeOONiPafeeYZrF27Vi1QrigKZs2ahZqamghvwZYtW7Bo0SLk5eWpZd+CwSCuu+46vPDCC7p129racOLECSxcuFDthyiKWLduHXbs2JGhs5cZtmzZolqnCgoKUFBQgNbW1gRbUYA4AutC1QTUFpWOV2B6JmMymSICOouLizE4OKguVxQFXV1dWLBgQcbb5zgO8+fPx+DgIPr7+2kyOUpCSFkcYrGSJEnNm8Zx3EVd7FlRFIiigCWrPjnZXZnyMAwDKU5MkdvtBhzHUD6rEEFYIDMWcPDDHGwBh/M5l0YGjsMQrEKQmQcJIUuXQWiGZ1T/YNra2gqTyQSDwaBO3uF5Pur41t3djaGhIVUAybIMjuMQDAajrn/ixAksWbIEDMNAlmWwLAuWZXVuQ8KRI0dQWVmp9oNhGHAch6ysrORO3CQxNDQ05SxtU5kIgRVL7Ey08FEUJWoh2IuhPuF4kWVZFwdgNpthNpsjpumKojhhiUc5jkNJSQlKSkqSWl+SJLhcLrS3t09YKR/K1IVlWfA8PyMLPMuyhMN7PoAhiTqjMx1RECAEowfmh4SqCMHZhjzX1ojPnaMFAELJNn3eURR6vgGETSwc6csHoBctmzZtwssvv4zS0lIAiGvxb25uxgMPPIDc3Fzk5uaip6cHgUAgarjHwMAAfvjDH8JkMqGsrAwOhwMOhyNqUHowGMTGjRvx4osvJtUPyvRENxoTMaMoSoSg0n42UTAME/VvOlJcXBxRyLmoqEitVk4KQCfD6OgoqqqqcO7cOciyrJbfCc+hZbVap0wWbY7jkJubi8bGRrS0tEx2dygXGGKhysrKgslkOj9YCgJYlp22v+tkCQb8CAZm1kzJTOP3+/Hv//7v+Mdb46/3+9//Hp9dF/3BLzSTOySw2tradNUnEgmal156SX1NxFIsXn/9dTXWlkw4IoRXvGhublZDPJLpB2X6EtWC5fV6VdeT9kY4kQKL7DtcVE1XC1b4rJZYy5KhtbUVl19+OdatW4dAIIDc3Fz09fVFlLIpKyvDyMhIjL2Mn0cffRQA8O1vfxuPPfZY3HW/973vAQgJrdraWupWnIGEuwE5jlMtsTM1h9FUYaq4aCVJxnhv78mm/HC73RgcHIx48I1FR0dH0iW+urq6dJU2tISPmaOjoxf0QbiucSnyC5PzPKRD55mTONeefoHpixlVYGktVIIgIBAIqGKH/BgnUuiQNjiOU9uczhasTDI8PIxdu3ahuroaBoMBra2tETl1LBYLBEGIOWslE7zyyisAgAceeEB9HQsisIBQDBkVWDMDWZYTiiefzzcj4jgKS8uRX1g82d3A8GA/BnvP3xcal1+O/OKyqHXuLiRmqw0Hdm7X9Y2SefIKinBozwcQJ+AeXFBShtz8oozv92IhwkUIQCdwSKDehRA7sYTVdLJiTZTAGRwcjJvmwev1YteuXRPSNqG2thZASAyT1xSKlmAwGLOEx0yjrLIGHucoPG7npPXBYstGWWVNhIg5uGs7RocnL4ExAMxftGxS259JiIIAQci8wBLjJNOmxJlFqBVX5A+AOv1Ua/Ycj/jRiietsIomsqaKWTse+/fvz/g+ly5dijNnzqjuP5ZlUVNTg56eHl3qhMLCQtTX1+Nvf/tbxvsAQDfVOHzaMYVCiWSwvwfOkcmz1uXkF8KWHd11RZm5hCdQBYCRkZGICUl5eXkRiVIns7LIdCPulLNwgaUVPZlM4xBNrJG2tFa1mUp5ebmunA7HcVi4cCFGR0d1AstgMMSMA6BQKJMHwzAJk6sqipJUrjmz2Zzwfujz+ZKOl21qakJdXZ3uAVaWZd32J06cwNGjR+Pup7a2FkuWLFHfa8NLyD7PnTuHjz76KKl+AWNjEGeEj2uCn20AFAVGDMIgtwHQB51LsCLIng8eNygDAGLHOpGJRvGC1wkmkwmlpaUR+QhjQR6AkyldlEo/MsXXvvY1zJ07F7Is4+TJkxgaGsK2bdtCaTE0XHPNNTCZTLjkkktQVFQEr9eL+++/n+ZETJKoAivcqqQVV8SClcmA93DRpt03sZZp15nJYmuy+NKXvoTGxkY0NDSgoaFBnVpMoVASk5eXh5/97GcJ17vnnnsSrvPYY48lDNR++OGHdZUf4rFgwQJcffXV4HkeLMuqyWH7+vpUQVFcXJww4Lu4uBj5+fkAQpnKFyxYAKvVqtvn/v37kxZYZrMZ3/jGN2CWjyJY+v+BxZjwMxgw4vGgvPJhHD51BnfddRd46RSGCn+KrKwsiKIIjuPgkyTULXkBeONVACHR09TUhKqqKlxxxRUQRRGKooDneZw5cwbf+c53dO3ffPPNcLlcuPHGG5GVlQVZlsHzPPr7+/HEE0/oXOHXXXcdvF4v7rnnHhQXF6sJdSVJwvvvv4///u//Vte95JJLUFZWhqamJqxatUq1GrEsizNnzuC73/1uUudnvFRVVcHtdmP33/6Cy1auww2LXDCJ4R6YjzFoexJu13HU16/Fvn37LkjfLhaiCqzwmYPhge5EABGxlSnChR35rxVe4Z9TLgyHDh3SFSEtKChQxVZDQwMWLFigFq+mUCixITOJnU4nBgcH8fbbb6szgpctSxyX9Oyzz6qvS0tLsX79et0+04EkuTQYDBAEAT6fD2+99RbMRgmVpQwq8p0oWGJKsJcejHT1gOdNsOUUY//uDnzqujt0+0yHllOdKCzZC6s9DxzHw+v2wevqx96D3QBC6WmaD/tw6cghwGKHKcsKKSDA53ehQzO7LScnB8XFoUkHgUBATeopCEKEGwwA5syZg48//lgd/3iehyRJsFqtEeNeTU0N9u7dq+Z+MxqNkGVZzQeoJT8/H1arVT0vJlPovAaDwQgL0kRCxlabzYySikXwdlwCEyJDXBjrEuSZaSmcdIjrIgyPgSIZmLXxUBdC6FwsubGmM7m5uToT9tDQELZv347t27cDCD19zZ49GwsXLkRDQwNuueWWyeoqZRLJyspCQ0NDwvV8Ph+6u7tnpKth4cKFAICdO3eivb0ds8u8WHnzFQAAufc/wChJnpP8vwdjqoTia8HCVV9U95kORGCZTCYEAgF1sL/jy3dAYazIko6gLPi9xDsC4GFXYiDr/w89MPuPw5KzUt1nqsyaNQvAtegcADBwPh3D4KCCwZHz7rdPXHk99hzuhtZtWFNTg7+8pp9tPWvWLHR3d+viVCVJilpLr6CgAGVlZRGla0RRjCiTAwBXXHEFDhw4oFtmsViiFkFetmwZuru71fsn6ceJEyci1tWSbKLnZCDjaJbZEjUZKkEURWSZTHTcTYOk035rE5DGC0afCMKF1XSdYTgeLBaLGl9FsrXbbDbdD2Mi67u988476OzsxNGjR3HkyBE0NzejtbV1LJFfyHTf1taGtrY2vP7661RgUaJCSuZwHIfi4uKkY1ouZlYsXwqDfRGys7PBMa/AKic3G3iw+O/AcVxGYndIqRae5yGK4vmQDMaK+vp6nDxpAJLUR36uEbW1tRgaGoLsao3YZ6qsWbNGtfIAIXH+3nvv6dapr6/HmjVr1PeiKEbNCVheXq6LEwNC1qxnnnkmYl2TyYRrrrlGFwwuCAIOHz4ctZ9LlizRFYaWJAkejwf/8z//E7FuZWWlrh+KosDv9ydMylxfX4/u7m7wPJ9QsCbKD+Z2u+H3+yEK/tD+YqxnMBgQDHgnNMfixUrSAosImXBX4US77ML3S9qfKcKKUF9fH7Fs0aJFF7QPlZWVqKysxLXXXgsgZNI+ceIE9u7di1deeSXpmA/KzEJRFFVYkfqEABIGfc8UWC4LFRUVGB0dhcDNAZIQWH62EW63G42NjRkTWNG8BNnZ2ep1k2AFF16LJgpBZjZGRkZQWFiIfnfkWJEqXq9X9yAZDAYjsqMnC8uyKCgoUN8rihLXLZedna17cPX5fDHLkZnNZt2+BUGIaRniOE63rizLSbl3zWazGucW/oCtbXdoaChuMtM333xTtXaWF/ox0NOMAvlY1HXF0d3o7e3B7559GwBoTsMUSKlwXbQ8WeT9RKHN8B6+fKLbniqka/afCBRFwZkzZ3D06FH1r62tjdYbpERA6hCSEjlkwFEUBUajcVqkXblQ2O12dHR0wIbIwsCxIFU3JnLmsM1mUwWIwM4BJx9Jajuv14vy8vKM9GFwcDDCaxE+yLtcLp27mYj6cCRJirCaxnOP9fb26uKzZFmOOTPQ6XTqrEbR+kkQBEHXj1j9jcaGDRtifrZp0yZs3rw54T727t2re//HF4gbdFaUtX+ZVL8okaRswSJEs15NhNiJlf9qousiTiWmQt6Rp556CkeOHMGxY8cinvis1pAbgcwyvNCWNcrUhAwwwWAQoihGTP2fCQ9HycCyoeoVsiwjyMxOvIEG4m4dL4qiqIJYe53Gc4+VZRlQELHPZPH5fLj//vujfqYVRX/5y1/w6quvxtwH4ezZs1FdgeSzcGKtGx60DoRCKGLlQAx31Z08eTKq2xBARIWOaGRlZYXcyZrrLknSBQ2QpyRHShYsIDLm6kLEX4W/D0/dQJl4nn76afX1nDlz0NDQgMbGRjQ2NmLOnDnUGkGJgAROkxgcSZJUoUW/L+eRZUlNF2AW4+eaCsdoNCZdiy9+H2TV2qJ1wXm9XhQVhUqhGOTTSe+PFJ6XFRl+vz9tt14ykyCGh4eT2tfIyEhK1S5SWbe1tTXpdQcGBjAwMJD0+uGYzWYUFxfr4tKCweCMMThMJ1IKcgfG90STCaiwmnxcLhfcbjecTidGR0cRCARoPA0lKizLwmg0qnmbiMgCoE6QmGloY23IefF6vbBarUCSWomFBwzDwGg0wuv1pp2egSCKIvx+fyjWauwa5eXlweVyobq6GgCSir8CAKNyBlbrZ+FyudTalNrrHg+vaxRNl31iXMdysRCrlJHH40FXV1dEEtd4YvTStZ8GlPTi1uJhMJrQ20UnqsQiZQsWEN2qFG055eLhwQcfRHNzM44ePYqzZ8/ivffeU2fycByH2tpaNDQ0qGkaaK1CSjQ4jlMTMI7nKX4609zcrL4OpSEYxuDgIAwGA1gpOSuRUT6NrKws9Pb2RuwzVTo6OrB79+6IRKMFBQVqpm+Lcjzp/WVJR9Dd3R3KfTXsxqnDO9R9JqpTeer4YZw6Hn2WHiX0cBstpQQhWqH1PdvfAsNMnMU43QkHM4G0BBZl5vG5z31OfT06OqqKraNHj6opG1pbW/HKK68AQETGXxoEPzPw+/0JS6rMRBwOBx566KGon62/ugaXrS2HwlhRlWQQOQAo7j3o9zWiv+Md/Md/v6/7LFm3GRCaRBNrIo2zfw+WLp6H0YFjGB20R10nnCxLP4qr/xeOUT9eeHW3Ll8VZXxs3boVW7duTWmbUEgNvf9OBlRgUWLicrl0eV0IOTk5uPzyyzF37lzU1taitrYWb731Vtw0DfGmDFMoFzuyLMe02D39/ACefp7M6soZ+0uG/8xE1+KyddsZbN1GrE7JCayQn/OtCeoRhTJ9oAKLEhOv16sKrEAggOPHj6uJRo8ePZpS3quZmLGbQqFMIqnGC9MQF0qGoQKLEhNtEPLatWvjBqlarVY1/qqxsTHic2rBosxEyqtrkV+UufImqWK2RNYHdbtGsWjF6knoTSQZD5DWpgGJ8V+3uva/oqjvqdiiZAIqsCgx6evrQ35+PiwWfa0qjuMwe/ZsNe9VQ0MD5syZE3OSQ3d3N83+S5lxnG1rgT07d1L74AoOwzUaKnHCshxYjkPn6ZPoPH1yUvsFAKKQ4XsCSYSd4E9dPd4fEWpUaE0YFzojwWRMwsuIwCKpEyY7hUMi6CzH1Ono6MCCBQuwdu1a1TpVX1+fdN1Dr9eLnp6eCe4lhTL1GB0ejDnVfjJYdOka2LJzIIqTnx4jOzcfu97bCqcj+WD8mIQJK1b7X1HAjr0m8+gYnBdSMvnPMOdfI0xo0XEDsiwjNzc3In+dNoNAtPE/XoaBRNkH0t02Wp5Ol8uF0dHRC64BMmbBmi75qbTlfiiJ8Xq9aGlpwWOPPZZyxmiXyxW16jyFQpkcDuzaDo9zdLK7gUUr1iReKRk04korpFhFAQ+AA8BFEVlEQEljfzIAcew1Mya2ZLUJas2SZRnl5eXIysoCkPz4OVXGWUmSMDp64b/3KZXK0RZa1i6fKklIoxFew4osmy6CcCrgdrtx5MgRVFZW6gqUxkKSJPT09NDizxQKZeIYu58TixWH88LKAIBXFPU/j/NCCzgvrmSGgYCQuBIAiAwDQVEgM4wqvIhFa6bDsiytwJAiKWVyJ/WqgOmRXIz02WAw6IpTa12aVGQlhyRJaG9vR3t7OywWC4xGY0T2dpfLpdaeo1BmOrbsXBhNWZPdDQQDfridjojlPM+juLg4YrnP58PIyIhuWW5uLkpKIoP1R0ZG0N/fr1vW2NiI2bMjayru3bs3c+ECYW5BYqkyADAoCkwATIoCI/kb+5zY4BUA0piYEhgGAUVBgGEQREiwCYBqsVID4am7kJIiSQksbeFPkpFXW8BzqtYGJP3OycmJMG1ORWvbdMHr9cLr9cLhiLxpUyiUEI3LL4drdGRSH0ZZloM1Oxu7t70R8VlJSQkeeeQRmEwm1TIhiiKOHDmCn//857p1m5qacNddd8FoNKr3UEEQsHXrVjz//PO6dRcuXIj169fDaDSq+3W73ejq6kpbYJnMFsyrbzq/QFFC4kpRQpYpRYFBlmGQZRhlCSYp9JcliTBKkvoZS8YyhgkJLJZFkOUQ5Dj4OQ4BLvQ6yHIQWBYiy4bis8bchgAAhsHZtpbMxI9RLmqSEljhBZ5JLI628PJUJVoAPi3tQ6FQLgTHD+2FlEQNvomC5w1YdsVVMT/PyspCXl4eDAYDgJD1itRHDMdsNiMnJ0e9/zudzpjrWq1W2O129R473koOpiwzzBYbTh0/dF5cQeMSVBQYZRnmsT9ZlsHIEvgxYcWMiSueCCwwUBgGDMtAYVkILIsAy8LDcvCyLHxj74MMA2FMYEkIWbPKa+aitKIGtgmeIeoaHVFngFLGh9lsxuzZs5OKI+7p6clYWqGUXYREbHEcp3MZTkW0lrdoAosGvFMolJnM8PAwAo69sNgKYTRZIApB1FUKKMwzRZS4OX48VI8wLy8PRqMRgUAAFRUVUff78c6XMeeSdTCZTGAYBpIk4e7Pr8Q/7t+fdl/9fi9GBvtVgcUhNIDxioKssXs8ec2OCassRYFVUWBWFJjGrF0MQnFVAsPAPzaeSSyLAMOAYVlIDIMgw8DHsvAzDAIIxWaJY9vlFRajpm4hzp46MWGxWRabHXmFxWjev0td9tvf/japbe+5556YnzEMo6vOwTCMGj5DxsloY/p0L8xeXl6Oq666SmdV1RpetMf8xz/+ES0tLRlpN67ACrdMESFCCoISsTUVUzSE94cGuFMolMmkoKAANltk4k8tIyMjcDqdcdfJzs5GXl5e3HXcbjeGhoYS9unIkSO4fEk2WHMdBEUBY2JgQAEWLcjFex/pJ6ns27cP1113HfLy8qAoSlxrwJlTB9E03wIxEJoUY2R5cP70xVU4WguWAYBxTETZFAXZsowcWUauLCNHUWCXZVjGBJZhbDsZCIkohoGHYWBUFPAsCxaAwrKh4HZFCc0yHHMPstAHu09kUer8whKUVenj2P7zP2OXRpo/fz7Wrl2bcL+5ubn41re+BQC68ZtlWVVcRfNKDQ8P4403It3MmcDpdMLn88Hj8UCSJBiNRvA8D4ZhYDQaYTQaYbFYwPPjT3rAsiwMBgN4ngfHcWrIUzAYnBBjUdQeh88SJCde6yqMlmtiKhFL9GnF1VQUhhQK5eJk/fr1WLlyZdx1Nm7cmLCY7+rVq3HTTTfplnEcB5vNBrfbDUmSsHPnTjz77LNJ9SvQ+ShKg34I7BzwSj94pQ+D/QUATBHr/vjHPwYAmEwmBALRizgPDw8jmx+FffRh3fJ+Ry6A5PLnxUTjHizKz0dZQQHMigKLLMMSDMIaCCBHFJEjCLD5/VCGhpA9ZsXKGrNwMQjNHgwCgNWKoMkEF8/DZTDAaTTCZTLBaTBglGXR4/GgfXAwNFORYaJmg79QHDkSWQh89uzZuPHGGzF37lx8+OGH+Otf/5r0/hiGAc/zEWJDEIQLMi46nU60t7dDEATYbLaodW/JpCm3243s7OyEDyjxIJ43ItiMRiMEQYDP54MsyxNy3FEFFs/zupl34QIq2iy8qSyytH2civ2kUC4WyBNiLJeCwWCAyRQ5cAMhq0sszGZzVIuJJEkx61xyHBcx05Xg8/lixgXFaitRH5PFbDajsrISnZ2d8Pl82LRpky74e9myZXG37+/vx+9+9zv1/fLly7F69WqUlJQgGAwmXfezt7cX7733HpbdBnDwgJMjB3DCRx99hHnz5qnvY4krAHjrrbew4brqiOWhuJZxCqwxWACrV63CZ6++GkZBgNHnA+twgBsZgdzbC3ZwENzwMM45HLBLEqwIzSrkAZ2L0J6dDTYnB36LBWxxMZTCQoj5+Qjk5MBvtWLniRP408aNao4sGdFL7sybNw9lZWW6ZQ6HA4cPR1q5Lr/88ghrzMmTJ1OaAFBRUYH169ejoaEBu3btwsMPP4zh4eSD7onVymAwICsrCzzPQ5Zl+P3+mFasTNLd3Y2enh4wDIP8/PyY9wQtTqcTfr8f+fn5aaeLIMdsNpthMpkgCAJkWUYgEJgQg0tUgWWxWGA2myNONBErxJo1XQjv61R1a1Io052srCwsWrQIg4OD6OjQ15mrrq5GYWFhzG1FUUR7e7suIaDBYMD8+fPj3oADgQCOHj2qW1ZUVISqqqq4fT179iwGBgZ0yy655BJYrda4fWxtbR1X8XKLxYK6ujoMDQ3B5/Ohp6cHX/r8WnCW+bCJ76JIeDKp/XjYleg3fR+MNAADRlBcvAx9fX1J902SpKSDeQVBiFuL9EKilr1RFPAMAzPPw8iyYBQFrsFBnNy1C5WcgCJZwJwcDuagApMgwyAxYOXzmdxFjkHQNYCAfxiyzYpR1yAKLcthzM0FN+a14SVJTVjKxAktWblyJa666irY7XacPn0a27dvB8/zOlFKIBMFLrnkEqxduxY9PT14/vnnkxJYJSUluOGGG7B06VLs378fjzzySNr5BrVig1hzJElS/0/U+Kj93WVnZyclrgjBYBBOpxO5ualPMNDGj5O/cM9cpokqsMItPuFpGFLN6D0ZhAewh1vjpkt5HwplOlJYWIiuri7VSsRxXFxxBYQs54WFhTqBlZubm/AGbDKZkJOTo9sumYS4JSUlOoFlNpvjiivSx4KCAnR1dSXcf7I01GWDs8xHWVkZnAP1Y0mYEuPnGlFTU4POTg5y8CTsdvu0uDePF63A4gAYGQYmAIokgfH7UT/LhFK+CkaHA3apEzwjg1UAhvwxPBSIUDhANgCyGfBaS5GTUwrRew4GsRiMoiAgy+BkWQ2M17kIo4wbVqsVVVVVOHz4MOrq6lBTU4Of/exnEesdPHgQ9913H0wmE+rq6iLyiMXizjvvxMqVK3H06FH89Kc/xblz59I7gdCLDZ7n1fQb8SyTmcDpdKq/OYPBkHTJNS1erxdZWVlq6qWpjE5ghaddiOZimy6CJNx1majeEYVCySxms1l1qcVy1YUTLhCSDWy1WCw6gZVIKAGIEG7JipN0BoV4GA2iGoPS01OWeIMxgsxsBINBlJSUwNXXDI7jZsz9TBvkTmYTKrIMVhBg5VhYWBZGhgEjGMEE/WCCACvxYBUDFFkEy1kgiwGAkaBwDHjJCDvPYzQQAC9JkCUJnCSBleVQhnjoaxnGgoyPVVVVUZO4Eqqrq2G1WlMaT1evXo1gMIiysjLce++9Mdf7wQ9+kNT+tCKLZGmf6DAa7YNJOlYogtPpnF4CSyueogWwT/eUBtHcgnQ2IYVCmQpkZ2fD5XIBACRYwcGT1HZOpxNlZWVwTWTn0kQ0LoIoGwDIYFkTgAPj3icT9lqtQagokCUJrCSBlWSYjRyCPh94KQuM5AcjM2BlHlLAF/IPciK4LDNk0QtIBiiBAIwAWEkBI4qAKIIh+bOQnLjSQlxupaWl6O3tjfhcFMWUrY3/+7//m9L6yXAhx7/BwUHVfc2y7LhmBZJk51O9dE/EEcYSWuGfTQe0FrjwY5pux0KhUC5eOI5TS0xJbAk4+XRS28myHBqolch8f4nIy8tDU1MT+JKr0Je3GpJiDg18wlEUFv8BOHU+tmfevHkoKSnB5z//eVRXV6szzjo7O/GjH/1It98NGzYgz9KHAevdMBgM6j03u24vgCeS7l9CFOW8q27sNTP2mmNZKJIUWqYADHgoshhaXWEAWYEiS2BYbqzyswJZFMEZOECW1f0QEQckKUlhpAAAIABJREFUFleiKMLjCQnjYDAIg8EQVVyFdq2o8UTJXrNt27Yltd5URVtCjSS2He/+proVK6qLMPw1ea/9P12I5iqcqqV9KBTKzCQQCKiDhTFJcQWEXK9+vx8KFHi93pRy+VgsFlRWViIoMrCZ8mAzmSBJEvyuUpzr1cfizJo1C3a7HXa7HRaLRZ0pGm3mGs/z6B5gMHj2LVisuWAYFqIYRMeZE0n3LSkYBgrG8lWRCVkME1rOhDK0h14DYCQwnBEKI0FRAAYMGI6HggDAcKGs7hwHBQKUsbxXSpS/WLS2turOfUVFRVzrytmzZ2G327Fx40YASCqmb8GCBTh9+rQaJ6Ve+7Fx2mq1YvHixdixY0fCfU0GxEILZEZgTZVJF/GIasECYicZnY6k6hZkGGbKK2MK5UKhKErSMVSUxAiCgKGhITWVBc/xcLvdyM/PT2k/LDywWq3wer1QFAUDAwMpZ9yuq6vDgZZWoOVdACHXliRJaDkdWWd02bJlOHbsGI4dO6auG2vm2+duP2+9UhQFfr8f2174OKW+RUMJey3JMgRZBjsmbmSWhcRxEBgGjMkEhQcUHpDFkFXKYDZBkUUwnBEyK0DhAIVXoBgMUAwGCGwQEoCgokDE+aSjiUTW7t27sXv37qSP44c//GHKx37//ffjJz/5CTo7OwEATz75pO59fn4+7rzzzikrsDIdQD+Vq8gQYjpBp7OgCifVY7FYLDh9OvmnSArlYmZgYGBa3MymC06nEzt37lTf5+bPgtfrhcvlglluTno/JuWMWnSdVyzo7e3VuWGSoby8HEuWLFFrCrrdbnz00UdR121oaMCaNWvU2KHR0VHVAhOO3W6HzWZTM4QPDQ1lLF5GK3ZERYFPECCLIlgAppwcwGOAD4DBbIZi9EMRAEUGJMEPhuHB8BxkBCBzEhQjAKMAxWyGj2EgGwwIAggoCoSxEjok/5Wiaf9iYbLCZDJReidWHcxEhKeemkjGn3v+IsRisUCWZfT19aGkpGSyu0OhTCqHDh1CTk7OZHdj2vPMM8/gmWeeifrZ44/IEN2FEF170TeY3MDBZe2Dyf8+RMGLX/76NQw7/kstN5IsgiDA6XSqAceBQCCm60UURQQCAXW2GQk0jobb7VaTNwJQs2VnCgXAtu3bcfTjj2EHYJck5AgCcgIBLC8zwVqcAwPHwZjlhySHwq5YDmAkEVBEKGzIsqWYAMkMiEY//IyEHpcDHx55C8MGA4ZYFj2BQKhUzpg7Uh2OLwIDBBEakiRBHiuQPZEJRrUzfcdb/BtIfoYxgVSkIbm+WJad8JxfVGDFoLKyEi+99BJuuukmlJeXT3Z3KJQLjiAIeOmll8CybNQyFukSXgkiGbd9tLx1yVim02mLbBfORFr1H/yX5zXv4ucLO48bwK/SbtPn82HXrl0Ry4nLScvIyAj27dsXsTxa7NCOHTtw6tSpiOVtbW1p9lSPgpBFyenxQPB4YB6rN5gry/DIMnaMyGg52o18WUaebEa2LKulcgxAKKCdCRVx9rMsXAyDUfYMhtkODLEsBlkWQyyLEZaFk2VDliwgFNc11gefx40rPn1TjB5mhs7TrRO2b624IrX4JjqZrFZgjXcWICnzkyqkJI7P51OzuAeDwQkTWVRgxYDneVRUVOC1116Dy+VCTU1NRspkUCjTAUEQIAgC7HZ7wgShWpK9SZGn5VTy7mi3ISSzbaptkcFHO+HnYgqZIAwPD+Opp55Kat3Dhw9HLfsSjc7OzqgiLZOEJgMyEBUFAoAAw8DLMDAyDIwsCx7nUyuICLn8tMWeJYRK5fgYBi6GgZNl4WBZjI699zIM/GMiTFsmh1ixOk6dQPfZCx9G0tTUpKtQoH2fqAB4ONHExkRadMLjOF0uV9qW8XRyaBELFrHSkkzukiRRgTUZcByHqqoqtaREphMMUihTFZ7nkZWVlXFhoX1yVhRFTXAIxBdL2u2I4CGuqkTtadtKZTsizLRJGFPB6RjG5Vd9NqVtJoLhgeipAqYbPMfDmGUGFAUsQuVrWEUBM/bdEGUZQVmGV5ZhkGVwsgRlLAjeL4csWBwUtRZhkGHgZ1h4WAauMWuVh+XgZ1kEWRaS5vvCY6x+HwCONwBIv1RSurjdblx55ZUx35NlyUC+36TAsbbY80SJjby8PLUgOXA+I3sqpXKAUOxVupNuyG9a66KcSLcoFVhJwHFcRl0kFMpMhjw1kjpgBoMhqaSLxJ0BhAQgCaCOJXy0MRekLZ7nk7JIkcGGDD6J2opG8/5I9xslPYRAAAaTCYtXfuJ8fipFAaco4GUJRkmCSZSQJQowiwIsQQEWMQhLUIBRFMBJIpixvFhQQiFUHMuB5zhk8TxkgwGswQijwQCbwYB83gA/zyPI8RA4FhLDQh6LxQKAob7kCzNnigceeCCj+1MURRVU5PtNBMhEUVNTg2PHjqnxeA6HA0VFRUm7ClmWTct6NTw8rNaHTMTQ0FDK+48FFVgUCiWjJBIi2tgPUnQ1noWIPGES0UNgWTahMNO2RSxRHMclJcxInAixYo0n8/RUwOMaxdJVVyZe8QKRSryPz+vGnu1vhd6MCQBixeIUBUYAxrE4K4uiwDr2Z5FlmBUF5rF1SF1BmWEgIGTF8jEMPGNuQQ/Lwju2zM8wCAIQGQYiNDMJp7G7OBgM6gqjR/sNRBNY2hxW48FkMqGkpERN7yHLMvr7+5Gbm5swNVJWVhZyc3PTitsaHh5Gc3PzBXf1T+87BoVCmVIkSuJLBI827oEUnI335BwusBiGUYNkkxFmpC1JklRRF2sbALrYDNLWdK/8cLL5IE42H5zsbowfhgEURQ12B8NAUBRV+Cg4H2MVYBh4x+KveCVUt5C4CKUxARXQCCryFwAQHFtHQuJEo9MFj8eD559/PvGKYYiiiKampoz0YdasWTCbzWhvb1d/VyMjIzCbzTCbzTAYDKqIIrMbi4qKpmUuPiqwKBRKxokmRrTB41oLFhEy8axR2unkxKJE3Azx2iJCiViwSKxJvKdg7XZEYPE8r7oXKVOAsRmhJPGDRCp0jGVhl8ZElx+AiWFgUJRQHNWYBUsZE04CQkIsSEQVw0AYs25J4ZarsXYp4ycvLw8WiwVtbW1qfUKfz6erVcgwDPLy8lBeXj5trcfTs9cUCmXKEs+CRZ5IiVDSvieuu2j7C1+fZVlVAMW6+WoFXbjljOO4hH0MF2hEYE13S9bFhGrFQkg0Yey9DKguQL+igGeYkPVq7NqpsxARmiUojokq1R04JsC0MwepuMosJpMJ9fX1EEURXq9XDX43m82wWCwpB79PRXhBEEyxyh1QKBRKsmhn6MSK7QhPbAhAF4sVbRuyb63wCY/hChc90dpiGCbhlOxw6xXZjixLJhifcoEIdxXivHCSxkSViFCslvqncSMSVyIRU+S1PPZaVx6HiqsJg+d5ZGdnIzs7e7K7knF4QRB+dvDgwZl+1/iW1WrNj/VEW1pRDQDo7epQlxUUFMBgMKg3em2uHeJOYFkWQ0NDavkKo9GIwsJCNZZEmwmZBNHyPA9RFDE4OKi2RcpOkLbIAMEwjBq/wnEc3G63LhiRbKdtS7sd8XWHb1dWVqbOMCEzqQBEuEq0wpy0Rab+amNWSB9J5lztLI1Y55G4c+KdRzIIptpHcg61U3XjncdZs2bprhkZvMP72N3drQoLo9GIgoKCiO3Uad9jbYWfj8LCQvA8r7O2kONiWVa9ZtrzEeuaaYOz07lm5M/j8ejOB7lm0doqLS1V9xHPdUeOKdryWNuQNrRJQ4kgircdANUlqBVQ4TMDw/utTR+hFXeUKUSYyGIQEkTsWFJQcWwZO/Zfe4cn28g4n0RUfQ/qFqSMH16W5cdmep0xjuPutlgsMQVWdW0dAMA5PKAuKysrg91uRzAYRDAYVAcaMggajUYYDAYEAgH4/X4AoQris2fPhiiKEAQBgUBAHRyI4DEajfD7/fB6vWpbeXl5qKiogCAIasZdrZgzGo0wGo3o7OzUiYbc3FxUVlaqSSO1AcKkPYPBgJaWFl2Or9LSUphMJnU7MrAQMUH6SLLykmObM2eOri3tYG00GsHzPM6dO6f62QGgqKgIeXl5ajZhbf/JNgaDAS6XS+cKqqysBHA+IaZ20Cbn3u126/pos9nU80+uWfj54Hke7e3tun4UFBTAZrOp5z7a+ZAkCQ6HQx2seZ7HnDlzdFmSgdDgTY7JYDBEnA+r1YpZs2ZFnA9yrUkfvV6v7nxUVFSogo30EYD6feR5HoFAIOY1C89mTESZwWBAV1eX7nyQa0ba0uaZIn0SBAFut1s9H263G6Io6jIwa/tIxEx4QVhy3oiY1WZjJ3EaDMPojgsI5dgxmUw6AUyuGdlPeN2+QCAQcRza7zBpb2RkBJQphEYgKzgvsojgYhhGFVbhAivaH0DFFSUz0BisNBkdHUV2drZ6I9a6DsjNOBgMwufzqYMMyZpLbvwmk0kdZMjAw7IsHA59JXuHw4HKykqd1Un7lE0GjGjb5eTkwG63R5QWIPsYHh6G1+vVWRN6e3sxa9YstT8AdIOaIAjo7dUnL/T5fBgaGkJ2drY6oIf30eVyRQyEAwMDMJvNMJlMEeeD9KmnpyfC7dTT04OioiIYjUadi4j00e/3o7+/P+J8OJ1O2Gw2mEymiPPBsiycTqdOKAFAX18fOI5DVlaW7nyQ7QRBiGhLEAQMDAwgNzc3Is8T6aPP54s4Hw6HQ7Usac+H9poNDg4iGAxGnI/S0lKdmNC2JYpi1Gs2OjoKu90Oo9EYYV3ieV49H+HXLCsrS5eIlHw/SI06rQU2/JppZwmRbRiGgd/vx8DAgG6bkZER3Xc42vlI5TsMQA2s7+vri3nNiLjXXmfy/Qi/ZpQpQpjQAhBVWIUTtYgzFVYRTGRCzosV+i0CwHFcW3Fx8ZxYFqzGFasBAEf27lCXKYoCi8USkeqf7CMYDMLhcKhP7Vqys7NhtVojvqxEJGktGqQto9GInJwcGAyGiO0EQYjaltb9ES/fSXhQsnawjBbUG28qfrwp8/HaSrRtsn3Uuo5SbSuZPmrFixYSqxO+v2iz1bRCIdN9TOV8aPsTjfGcj1jLLvQ1i/UdBjJ3zRqWrQLLcTi858OI7SiTTCqCgIqqmMiynHYOqqlAIBCIeAhLhqGhobOBQOBKAGnVRaIWrDRhGAZer1cVQ7EGjGgXdHR0FE6nM+aNP3w74s4gVoFYbUXro3af8Y4l2vt4TyyJBuVU28pUH7WvM90WgJjxPrGESyLxMZnnI5l2EvUxlfCCybhmqX6H07lmlCkMvVYZgVhvpzOT8bulAmscxLr5a8VPvO1SvfGn0xaFQqFQKJQLz/S091EoFAqFQqFMYagFKwUYhupRCoWih1qPKRRKNKjASpLaSxpRe0njZHeDQqFMQU63HE28EoVCmVFQgZUEJw7tQ9uxw5PdDQqFMkURhGDilSgUyoyCCqwkEIIBCMFA4hUpFAqFQqFQQIPcKRQKhUKhUDIOFVgUCoVCoVAoGYYKLAqFQqFQKJQMQwUWhUKhUCgUSoahQe5TFJZl8dRTT0Usf/HFF/Huu+/iwQcfxNy5c9Ha2opf/OIXAIC7774bK1aswJNPPonjx48n1c5NN92Ea6+9Fps3b8amTZvU5f/4j/+IpqYm/Pa3v0VFRQWuv/569TOn04ljx47hxRdfhMfjSem4FixYgPvvvx8tLS144okn1OVXX301br31Vmzbtg2HDh3C/fffDwB44okn0NLSgpKSEvzoRz/CqVOn8Pjjj6fUJoUyE7nllluwYsUK5OfnIxAI4Otf/3rEOp/+9Kdxyy23AAC+973vYWho6EJ3k0LJKJdddhn+4R/+Qbds7969eO655/D4449DURR861vfQjAYmvlbWVmJhx56CN3d3XjkkUcy2hcqsBLQ1NSEv/u7v0NeXh4kSUJXVxf+7//+Dx0dHfj2t7+N2tpa/OIXv0BraysAgOM4PPbYYzCbzfjOd76D2bNnx9w+Wd544w31dXt7u+6zuro6LFiwIGlBFc6uXbtw7bXXYsWKFarAslgsqK+vh9frxZEjR1BRUQEAOH78OFpaWtDU1ISVK1eC4zj8/ve/T6m9EydOwOFwoK6uDnl5eRgZGQEAXHrppQCA3bt3IysrS13/xhtvxGOPPZbWsd1www1YvXo1bDYbAoEATpw4gb/85S86UWixWPDwww8jLy8PH330Ef7whz+k1RYQ/7sCAD/+8Y9RXFys2+bhhx9GX19fxo+PfO/KyspgNBrR29uLjRs3orm5OeNtFRQU4N5770VRURE4jsPAwADefPNN7N69O+V2LBYLvvjFL6Kqqgo2mw0OhwPbt2/H22+/DSD2zTPV72Ey52f16tW45pprUFhYCI/Hg23btmHr1q0pHxPhc5/7HBoaGpCbmwufz4cjR47ghRdeQDAYxM0334zPfOYzEds8++yz2LlzZ1rtsSyL3bt34+qrr476+axZs3DDDTcgGAzCaDSm1UZ5eTnuuOMOVFVVwWAw4KWXXlKvVaJrmQwMw+Dqq6/GqlWrUFxcjGAwiIGBAXz44Yf44IMP1Ac2IPbDmHYdQRDg9Xpx9uxZvPnmmzh58mTc9lesWIFrr70WZWVlYFkWjz76qPp7zuT3Ppk+ZvI3TR7QZVlGMBjE0NAQDh8+jC1btkAQBADA1772NdTU1MBkMsHlcmHPnj3YuHFjwtqlS5Yswac+9SlUVlZCFEV0dXVh48aNaGtrU9sNBAL453/+Z7WW70MPPYTKykr1QUBrYJAkCX6/H729vdixYwd27NiR1DHu2LFDrd/b3d0Nv9+PQ4cOYcWKFVi8eDH27NkD4PzYk+7vLB7URZgAWZaxZ88evPjiizhw4ADmzZuHL3zhCwCg/pAuu+wydf36+nrYbDYcP34cTqcz7vbJ8uqrr6p/bW1tus+8Xi9uvPHGtI+vt7cXHR0dKCkpQXV1NQBg2bJlMBgM+Pjjj9UfGwC0tbVh69at+POf/wwAqK2tTbk9RVGwZ88eMAyDFStWAACKi4tRXV2Nvr4+nDlzRndstbW1aGxML8Gr1+vFe++9hxdeeAG9vb1Yvnw5brjhBt06t99+OywWS1r7DyeZaz04OIjXXntN/XO73Wm3F+/4SktLIcsy3njjDfztb39DVVUV7r33Xlit1oy3xTAMWlpa8Morr+DNN99ESUkJ7rrrLthstpTbMZvNKC0txYcffohNmzbBZrNhw4YNWLhwoW69HTt2qOdw3759KbeT6PwsW7YMd955J4LBIJ577jls3bpV91tIh7lz5+Lw4cN45ZVX4PP5sGbNGnz2s58FABw7dkz3vSAPAT09PWm399JLL2Hjxo1RC3JzHIe77roLe/bsGVcbRqMR/f39OHHiRMRnyV7LeHzpS1/Chg0bkJ2djQ8++AAffPABfD6feu/Qkug+ODw8jG3btqGzsxONjY345je/iaampoTH19rait7e3ojPMvm9T6aPmf5NA8C+ffuwb98+WCwWXHvttfjGN74Blg3Jgv7+fmzatAmvvPIKAOAzn/kMlixZEnd/a9euxb333ovKykrs3r0b77//PiRJwpw5c3TrmUwmrFq1CkDod1FZWRlzn++88w6am5tRWVmJO++8U7W4JnNs7777Lv7617/i4MGDAM6P2URUAcDy5cshyzL27t2b1H5TgVqwEnDkyBEcO3YMBoMBHo8Hl19+ufrZvn37cOutt2LJkiX4y1/+AkmS1Au3a9euhNsny29/+1v19WOPPaYTWe+88w7Wr1+f8EYRj127dqG6uhqXXnopOjo61JsXOQaCxWJBSUmJ+jmxPqXK7t27cc0112DFihV46623VIEa/uR37NgxlJWVYf369Xj66adTbufdd9+FwWCA0WhESUkJ5s6dq/t86dKlWLx4MV5//XVs2LAhrWPRksy1Hhoawvvvvw+fz5fwSTAR8Y5v3759uieyhoYGlJaWqtaYTLY1ODiIl19+GUajEfn5+bjyyithNpvTKiHjcDjwL//yL+q5KSgowNq1a1FeXq57Ut+3bx/a2toQCKSXny7R+bnuuusgSRJ+9atfweVyjftaAaHfLhFpLpcLX/7ylzFr1iwAQEtLC1paWgAA1dXVuPHGG3Hq1KkIi3WmuP7662Gz2fDiiy/im9/8Ztr7OXPmDM6cOYNPfepTEQ9CyV7LWFRXV2PFihXw+Xz46U9/qrvf5OTk6NbVPoz19/dH3d/AwABefvllAMAnP/lJ3H777bjllltw6NChmH0g1pL77rtPvVaETH7vk+ljpn/TAPDBBx+gtbUVJpMJP/jBD1BbW4ulS5di3759eOGFF2A0GmGxWLBkyRLk5+fH/R1wHIebbroJAPCb3/xGd40NBoNu3b6+PqxduxbvvfcePvnJT2J4eDimMCUCr7KyEt/97ndx9dVXY9u2bQnHn3/6p38CEDqnL7zwAo4cOYLm5ma4XC7U19fDarWivLwc+fn5OH78eNrjWTyowEqCT37yk7jtttsAhG4azz77LADA4/GgubkZixcvxsKFC3H8+HE0NTXB7/erijne9smyZcsW9fXw8LDus48//hiLFy/G+vXroz5lJcPevXuxYcMGLF++HO+88w7mzZuHwcFBnDp1SrfeunXrsG7dOgCA2+1Wv/ip0tXVha6uLlRVVaG0tBTLly8HECmwFEXB66+/jq9+9atYunRpWm3dfffdWLx4MYCQBY64Qe12O+644w68+uqrGBgYSGvf0Uh0refPn49f/vKXEEUR+/fvxx//+MdxWUZiHZ92n+Xl5SgsLMTg4CC6uroy3hYAVFRU4KGHHlLb/tOf/gSXy5VyG5Ikqa9NJhMuueQSiKKIo0f1pWii3TxTId75YRgGpaWlEEURDzzwAEpKStDX14c///nPaihAOmjbJOcx2uD+qU99CkDo4WkiKCkpwWc+8xn8+c9/htVqBcdxAIDc3FyMjo5CFMWMtJPstYzF7NmzAQCtra0YGRkBwzCqtTm8j6k+jO3cuRO33347SktLYbFY4PV6kz0sHZn63qfax0z9pgmBQAAHDhzANddcg9raWtUq/G//9m/qOd++fbtuXAuH9NPn80UI6PB73Pbt23Hbbbfhsssuw5IlS7B582Zce+21cfvY2dmJrq4uVFdXo7q6OqYgGhwcxEsvvYT+/n5UVVXhuuuuw1e+8hU8+OCD8Pv92Lt3L9atW4fly5erlrN03LrJQF2ESbBv3z488cQT2LJlC3Jzc3VuJmLlufTSS7F48WKYTCbs379f94WKt30yvP766+pf+JeKiJCKigrU19endXwulwvHjh1Dbm4u7rjjDjV2I5x9+/bhN7/5DX7+85/je9/7XoQASwWy/w0bNqC0tBSnTp1S/eVaDh48iPb2dnXQSZVXX30VTz75JA4cOIDa2lrVqrRhwwaMjIzg0KFDyM7OBhAaBOx2e5pHFCLetd65cyeefvpp/O53v0N3dzcuvfTShDeVRMQ6PkJ1dTXuv/9+eDwe/Nd//Zdu0MtkW319fXj88cfxhz/8AaIoYv369eNyXdhsNtx///0oLCzEM888g+7ubgDnb56//vWvsXnzZhQUFOArX/mKLm4vFaKdH57nwXEcTCYTDh48iN///vcoKCjAPffco7pP0oVhGNxxxx1YsWIFtm3bhg8++ED3eV5eHpYuXYqBgYG4g9l4yM/PB8dxuPPOO/Hoo4+qMZbf/va31TCBTBLrWqZKfn4+nnjiCfVPaxUh98GqqqqUH8bGY53M9Pc+Fto+ZvI3nait//iP/8BvfvMbnDt3DqtWrYpw9aVLc3Mz+vv78fnPfx6KouDDDz9Mu4/htLW14e2338ahQ4ewadMmDAwMwGg0orCwEMD5MXvlypVYsmQJgsEg9u/fn/7BxIFasJJgdHQUo6OjaGlpwbp167Bo0SJYrVZ4PB4cPnwYHo8HTU1N6kAdLk7ibZ8M69evV1+fPn064gnwyJEjaGtrSysmirB79240NjaqZv5oAqu3txcHDhxIu43w9m6++Wa1vXB3pJbXXntNtVikSm9vL3p7e+F2u7FkyRKsWrUKb7/9NgoLC1FZWYlHH31UXXfZsmWwWCx48skn02oLiH+t//rXv6rrsSyLu+++G+Xl5Wm3Fe/4AKCxsRFf/vKX4XA48Ktf/Wrclrp4bQWDQZw6dQqnTp3C4sWL0dTUhPnz56d14yoqKsLXv/515OTk4KmnntJZp9ra2lQXOQlYLSkpQWFhYcpP8rHOjyAIcDgcyMvLw7Zt2+BwOHDdddehvLwcdrsdo6OjKR8TEIrn+cpXvoLGxsaIWbuEK6+8EhzH4Z133hm3W3LhwoXIzc1VReHq1avhcDjQ0dGBX//61+p6GzZsQHFxMZ577rm0reCxiHctE0Hco3V1dcjOzobT6cSTTz6Ju+++O6o7KZWHMfJw0NfXpwZap0Mmv/fJ9DHTv2mCyWRS46u0cbDkdUFBAW699VasWLEiIg6Y0NvbC6/XC4vFgoULF0a4CLVGB0VR8Le//Q0bNmzA7t27k7L6VVZWoqKiArIs4+zZszHX+/u//3vIsoyenh7MmjULJSUlcDqd6mSijo4O9Pb2qmJxz549aYcaJIIKrATcfffdGBgYwPDwMObOnQuz2YyRkRFVHEmShH379mHt2rWYP38+RkZG1FiKZLZPBm2KhHfffTeqif21114bVyzFwYMH4fP5YDabcebMmbRntiULESELFiyAIAj4+OOPY6577NgxnDx5EvPmzUt6/zzP45vf/CYOHz4Mn8+nxnmdO3cOQMgaQ540q6urcf311+PEiRNRB71kiXety8rKcPvtt6O5uRnBYBBXXnklACScxZTu8S1YsABf/epXwTAMjh49qsbN7d27N+WbcqK2Pv3pT6OgoADnzp1DTk4O6uvrIUlSWpYKu92O73znO/h/7d3Zc1zkHIS5AAAgAElEQVRVnifw7z3n3CUXKVNbprxJxmDJUNhQ2JgyxtRmNrNUAbVBd9dr99tEzOP0f9DRDz1PEzPREzETMUV10VEUFDa2obYoMBiMwdjgFcuWhIyVsq3NkjLzbvNwbt5M2enlpuWanorvJ4KiqjA6umf93XPPks1mcejQIaxatQqrVq3C0NAQjh8/fsPO82bdKH/effddPPfcc9i+fTvGxsZQLBZx/vz5loMrQO/KGhgYwOjoKHzfx44dOzA9PR2v87FtG9u2bcPc3Bzef//9ltOpeeyxx3D33XfH//vnP/85jh07hn/5l39Z9Gmy1r8cPXo08VqetrY2bNiwAatXrwYArF69Glu3bsXhw4cB4LpleSNnz57FwYMHsXHjRvzjP/4jDhw4gEqlctV6nkbXexnr6enB888/j+XLl2P9+vUIgiBe73Qtq1atQl9fHzo6OgDoncIrV67Evn37lrTe38zvuJRtumbr1q3YtGkT1q9fj87OTpw5cwaffPIJ1q1bh29/+9s4deoUpJT4/ve/D6De5pvxfR9vvPEGXnrpJfzDP/wD9u/fj9nZWaxZswZffPHFVbtH9+3bByHEDWdqf/CDH6CjowMbN26ElBLvvPPOdddLDQ8P43vf+x62bt0K13Vx9OhRvPbaa4sCvP3798frxW7X50GAAdYNTU1NYcuWLWhra8PCwgI+++wzvPHGG4v+zIcffohvf/vbAHQ03PjmeTP/fjNBEODv//7vr/nPrzwL6sSJE9f98zfium68TfhKtc+TS+1aM0XHjh276ln++Z//OdHPDoIAruvi8ccfh23bmJmZwbvvvhuvG2v8vFnbZXXp0qVrvp3djOuV9eXLl7GwsIDt27cjlUphamoKv/3tb/H73/++pbRu9Hy1reMA4s4R0OsYknbGN0prcnISW7duxcMPPwzXdTE6Ooq9e/e2NBuSTqfj2Yn7778/Xqv09ttv4/jx4zfVed6MG+XPnj170NbWhocffhhCCBw/fhyvvvpq4udpVCwWASAONAA9GNQCrK1btyKdTmPv3r3xGT234mZnYhtncZMqFAr4+c9/Hv/vTZs2YdOmTfinf/onXL58+bpleTP+9V//FSMjI9iyZQu+853voFKp4KuvvsKnn37adK3Y9V7GOjs7sX37dszPz+Po0aPYu3fvopfhZtavX79od+LTTz8N3/exb9++Ja33N/M7LmWbrnnooYdQrVZx6dIl7NmzB7t27YLv+5idnUV3dze+8Y1vwDAMXLp0Ca+//vpVn7Sv9Kc//QkzMzPYvn07vvWtb8H3fYyNjWFoaOiqPzs/P4+9e/fe8Hd84oknUC6XMTY2hn379t3wd7iZoxx27959S0eu3KzWtzv8FZFSni4UCmtuZfcHERER/fW4ePHiSKVS+S6AqyPEm8BF7kRERERLjAEWERER0RJjgEVERES0xBhgERERES0xBlhERERES4zHNLTAdmwMDgygUOxBsVBAuVxGqTSB4ZFRjAxf+wC0Vg0MrkWxUEBfX7S1e2QUpVIJI8MjKJeX9oC0YrGIgYG7UCgW4NgWxksTKI2XMDIyiqmp1s8AaiaXz2FwYC16Cj3I53L6kM6ZGZw8cQrj483vE2uV4zgYGFiLQrEHhUIPKpUqSuMljI+XcPJka2dRXc/g4AAKhR709a1CiBCjI19henoGJ0+eQrlcXtK0isUCBqL0HNvG+HgJMzMzOHHyFKaXuMzy+RzWDqxFsdCD9lw7ZqZnouf6csnPTnMcGwNN2tntKrNaOysUeuA4DsbHSyiVJm5Tmel2lsu1I5drx/T0DMZLEzh18tRta2ft7e0oFgsoV8oojevnul3tLJdrx6q+lTBgYGRk9La3s0KxB7Zto1SaiJ/tdrWzXHsbcrkcpqanMVGauC3tLJfPob9vFQrFgq77lQpK4yWcPPUlxs8vbTuzHRv9/X3xGFPrr25XmfX396Gvb1WTdnbytoxnff2rUCz03PZ21gzPJUCyYxoGBtdix44noKRAGAYIgwCGIQDDgJQKX42dw1u79ixJ4RV7i9ix4wn0dHfC9zwAIcJQnwJuGAKX5+fx1q69GF6CoM62bTz77A6sWdOPIAgQRNcvGIYBISWqVQ8ffPAhPvro41tOCwC2bduKhx9+CL7n6XwMdT4ahgGpTBw8eAjvvff+knSSg4MDeOqpx2CaKnquhnwUEufOncfOnbtv6RDJmmKxgKefeQpdnXmEQYAgCKCrlQEhFWYvz2H37rcxfHb4ltNyHAdPP/0k7rrrDn0mUBjW81EIeJ6Pffs+xIEDS1Nmjz76CLZs2YzA9+EHHgxA56OUEELi6LETeOft3y/JqcgDg2vx9I4noKREELczADAglcKFC5fw2mtvLEk7y+dzeOGFH6D7inZmCAFhCHi+j9de++2StbPHHv8+7rl7EEHgx+0MBiCFgpAS73/wEd79c7KrQ67lwc2bsPXhh6CURBhc2c4UvvzyDHbt2rMk7ax/dT+eeuoxtGWzCPwr+ishcPHSFHbt3L0kQV0ul8MzzzyF5ct7EQb+Fe1MwnU97N79Dk6caP3uyBrHcfDIIw9j48b74XsuwsZ2ZghIpbDv/Q/x3rvXP3vpZm1+6EFs2bIZlqng+x4QHauo25nA0NAw3nzzrSVpZ/39fdjx9BPIptMIw8X9lVQKExcuYfdbe3F+CYK6fD6HHU8/iZUrlkfPFSAMQxjReOb5Ad56ay9Onrj1oM62bTz66CP45jc3IAz8RdcJSSlhCIkPPvgI796gzG71mAYGWLj5AOuZZ3fgnnUD8NwqfN/VhRYdKmoIASkVpDLhB+EtN+4N963Hk09sh++58Nyq7oyDAAZqQY9OS5kW9u8/gD/fQodcLBbx0ss/hhQGfM/VQU/gI6ylJWSUlolzX4/jF//n31pOy3EcvPw3P0VXRz7KRw9B4OuGhqgTkQpKWZibX8Avf/nqLQ2izz77NO5etxaeV4XnuQh9H0GU1pVl9tbut2+pcW+4bz2eevIxeK5OK/A9PagBEIaAkPV83L//41susxdeeA6ZtKPT8qJ8RGOZKSjTwrlz4/jFL26lzGy8+OLzWL6sCM+rwvcWl5lRS0uZmJsv45VXXr2lYPWxx76Pb35zva4fnhd1xqHORyGi+mHC80Ps2XNr7WxwcABPPvkYlDTiMqu1s9pLUy0fP/30CN55p7WDYQEdFLz88k/iMmvezvSznfu6hF//+je39Eb/N3/7M11m7tVlJoSEaCiz11777S3NQD766CP41rc2wXNd+J6LwPcRhEHcznSZKSjTxu497+DwZ8ku5240MLgWO556vN5fLWpnBgwpoZQJpSwcPX4SO99864Y/81ry+RxeeuknyGRSuh/2PQT+FWUmdf24eGkKr7zyq1sKVv/2b1/CsmWFej42aWe1/uqXr/z7LZXZtkcfwZZvPRjVD/fqdiYklGlBKhN79v7ulsqsv78Pzz//LKQ04Ltu1O83tjMJIU2YpoWjx05i587Wy8xxbLz88k/R2ZGH71XjtGpBsRACUpqQpolLk9N45Rf/ds12dqsBlmz5Kf6KCCH+UyaT6bhegLV58yY8+OA3Ua2W4boVuNUKPK8Kt1qBaZlwHAemUlBKwnFs3HnnHfjkk89aupk+n8/hhz98BggDuJUyXFen43tVGAiRzmSglIJpKigp0N+/CiMjX7U8qP30Zz9C2rHhuRW4lTI8txJ1Ji4y6SxMU8FUEqZSyHfkYBii5bf573z3UaxZ3YdqpQzPraJaLcN3q/DcKlKpNCzLhGWakEoim8mg2FvE4cNXXw10MwYHB7B160PwqlW4lUqUXgW+50JJiVTK0fmoJBzbxpo778Qnnxxq6fLUXC6HF55/FoHvwatW4Fb187nVCoQBpNMpKFPXD6WkLrPRsZY/Lfz0py8i156N8rES1Q/dKWczGZhK6fooJbo6OxBGn2pa8d3vfQd33XlHQ/2owq2W4XsubNuGY9tQSsI0TWQyKSxbthyftdgZDwyuxXe/s00/V7WCarUctzMlFVKphnZm21hz5x04duxES4NaPp/Dj370PKRAVF5RPrpVBH6AbCajnyvKx5Url+N8aQIXL15q6dl+9KPn0ZFv1/kX5aPnVhD4HlKpFCzLjMuto7MDUpkYGjpz4x/cxLZtW3H3ugGdf1E+1tqZ7TiwbSvqPxSymQyWr1yBTz5p7XLp/tX9ePLx70f9Yi0fdf0QQiCdSi3Kx9Wr+/HFF8dbmoGxHRsvv/wTCCOE51ZQjdq1W60CYYBMJg3TNKGkhFIKvb1FlEoXcPHixZae7cUXn0dnRy7ur2rP5bkuMukUTNPU+agk8rk2GFK1XGaPPvoI1g2ujfJxIe4/fM+FbZmwbVvXD1PBti2sXLmy9TLr78NTT22P+3u3oscXt1qBlBJpJxXno6kk+lf34+jR1tqZ4zj4u7/7GaQwFuej68JAiEw6amemrh/LlhVQrlQxNtbalUM//OFz6O0t6PpRLev+v1qB7/lIZ9KwlBmNaQq59jZ0dnXh6NHmNwssLCxM+77/vwFc+26e62CAhRsHWLlcDs89twOB78OrlnVwVdWdcTqdRlu+A13dPUhnMkilUrBtG37go6OzC8euUXDX8/Lf/AyZlAM3DuZ0IxCGgc6uAroLhTgtx3EQhiGWLV+Ozz//Ap6XLDjY9ugjWHvXHboTrlTiQSbwfXT1FNHT24t0JotUOh0Hkd3d3fjy9BnMXU52b1l/fx8e2/6dKNiJnivKx1xHJ9rzeXR0diGVTkf5aME0TVSrbuLG5jgOXnrpR0Dg1/OxosvNSTloy3egu6eej7ZjIwh8dHa1VmY/+vHzaM9m4FYriwZrIQQ6urrQXejVaUX5iDDEsmXL8PnnRxMH4dsefQQDd62pp1OpwHUr8H0Xnd0F9BSLyGTbdFopB5al0NXdjS+/PJP4rrn+/j5s3/7d+KXCbQges+3tyOU70dHVhXQmAyfl6EHAVKhWvRbKzMZLL/8EYeDpdGrBfqUCy06hPZ9Dd6G4qMwQhuju6cGRI8mD8BdffB7t7dm4TbtRUAfDQEdHB3p6ly2q+wgNrFy1EocOHU5cZps3P4j1994dt+daPgaBh3xHF3oKRWTb2hvKzEQun8NXX51L/OJULBbxzDNPLqofXlXXkba2HNpyOXR2dSOdzsTtTAgDhpCJ15A6joOf/PgFSGHU23OUj6ap0J7vQM9VZRagu6fQUpk9/8Pn0NGRi/qrejAHA8h3dKDQu3xROzMMYMWKFTh06EgLZbYJ69ffHT1XNepHqgg8F7mOTnQVCmhrz9XLzLaQy+Vvqcy8xvoR9ZPpbBbt7R3ojMYYJxpjZLTEIenLru3Y+MlPX4QwEAfftXppmhbacjn0FGv9VVRmCLFixUp8+ulnN/z5V/rhD59FZ0dOj5tuvf8IwwBdPcVoPMvG+SiEQFdXF44dP4lKwhnczZsfxP333xvVw3qf5fsectH40p7Px2nZtgXbcXDhwqWmQfitBljcRXgT7rtvPZSU8ec6z62iWlmAqRQsxwGiu+waBb6Pu+68A7ZtJ0qrv78P3V2d0ScENw7mwsBHOptFEF4dQIVhgGwmjf7+/sTP9vCWhxB4XvRZqxq/YaSyGQjZpHqEQOB7WL/+3sRpbdu2Nfrk4+oG7VZRKS/ASadhmgoIwqv+Hd91ce+930ic1oYN98JUqp6PFd2whTTgOCmEQZN8DHzcuWY18vlcorR6e4tYsbwXvu811I+ynplIZxbdTVlPK0A2m8bAwM1fYF2zaeM3o091un7Ugp+Uk9Z3lV2RXBgCvudi8+aNydN6cCN834PvutFMku78LdOGZaea1scg8LBx4/2J09pw3wYoKeA31sdyGUIIOGkHCJu3s5UrlyGXS1ZmxWIBK1cuj2Z1dLt23Qo830M6kwGavGyFYQglBTbctz7xs23ceH9UP9x4ZkLPJumZgqtriL48d9ODycts8+ZN8ad+r1qNZnrmYVoWLNtC2KS/8n0Pm1oos4GBtchm03F9rEYDGgwgnck2TSsIA6xY0Yve3mKitPL5HNasWY0gmkHS7bqMwPOQSWeaLngJwxCmUtiwIXl/tWnTA/pzlufpuhG1ayeVgmlZTdu151WxbdvWxGlt2HCvnv12q/Bd3a6rlQUoZcF2Ugia9Ve+jy1bNidOa3V/P7KZNHzfjdLT45lhAE463bRvDAIf3d2d6O/vS5SWbeuvOVeOZzpwbIMQV8/x1NrZfRuSt7N7770nzsdaf+W5ZdiOA9Oym5ZZ4HvYtOmBxGndDAZYN6Gn0IMg8PVA4/vx57MQgIDRtPIHoV4onrQTKRaL8Xd+3/MQeDoYEVIAIWA06UXCIEQQ+igUehKmVUAY6ucKokHU91wYBmCEIYS4unqECOH7PoqF7kRpAUBbW1bno+fFjcAwAEQbBZoO1mGA7u7OxGkVioV4fZdXC+qqVQhDIgSad/yBXkyddLAuFAsIgiBa5+Lpwc119RumEcbr9BqFCBH4PorFQqK08vkcTFPG6dWCOj0DodcyNBusgyBAd3dXorQAoNDTHa1L8nR6nosw9CGkAQMhwmZBsR+grS0Lx0n2cpFrb0MYBHF9rHWShjAggOaDTBjAb6Gd5fP5uH74vq73XrUaBaghropSAYTQ9aO9vS1RWo5jo60tW3+u6EUNCCEMQwdz1+j4Cz3J21lPT1e0UaVeP8JQp2UYRtO6HwYhTFMlfrkoFgt6TZLv6zVDnotqtQwpRNTOmr3I6MXUhYR1P5fLRfXDX1Q/hDQQ77i4KrEQvu8lTgsAstlM1F/pNY6uW4E0jGhDgkDYrI4EAbLZTOK0CoXu6Ln8OBgJwwBS6h7/WkFPGAaJ+5BCoafefwReHGQZhgFxnfoR+F58YfnN6u0tRuuH/Xidl+tWonYWNB1jEIYIggA9LYwxPT1d8L0ovWg8AwBhRGNnkzri+x56epL3jTeDARYAIcSlZpFtTbHQgzAMooL3o79CCL3iXP+zK4UhQoToSxjxFwo9epdKtCjPjwIShCEMcY20ooEu6dtFPp+PFv+F8SJA3/d0J2zoBedNhQFWrlyRKC3bsdHe3hanE/iBXuAbBkAUHDTtHwOd70mfTQ9MOogJo2DXEDqwEUI07UQQhgjCIHFaxWIh+nkhAj+Ig3EdPRrNxmog1G9qSTuRQqGwqH4Evt+wENYAjOZNOgwCFIrJAnAAaGvP1utHNLiFoe6oDCmvUx+DxJ1xoVBoqB/+ol2YoWEgaNbxhzqATfpyUSj0xB15GIZxPiIMms5eRY+FIAhQLCQb0Iq9vXE9ruVjUGtnCK8ZFIdhiLa2bKK0AP1CWGtbtc0x8Waca/RXYajrUOKXi6i/quWjHzTs0r1GmSGs1Y9k+djf36d3lEbPVQvGw6iNNe0/ov/s6U7WznS/HUbp6X4/9AO9cF+vAm/aroMgQC7XnvjLxcqVKxrqo64felew3mV3rbofBAHy+XzCZ1tVr4/RZoQg8HUgh7Dpi0xtPEvazvr6+xr6qyg9X9c1GEbzryTQL05J09LBXIAQwaLxDNBFJaRoOoOFMIRlWU3z0TCMMoBmndxN4TlYAMIwLPu+3zyaRtSJ6/f1eP5ImQqGlDAM4PzYMIZPHdM7IYSEsmx0FFZCKjP5Nk2j/vcwmrGSUkAqE1IqTF2cwPDJL6LddhJCKHQVl0OYqeaV54bJ6WalA8XaDiMBU5ooL8zj5OEDeseRlJBSItdVhLKbf0K5UTq1n9/4fFKakEICoYEvvzgEwwij9BQy2RxSuc6mg8+NE9QBmxHPDhgwDAGlFIRUGB87g5HTx+Mtu6Zlo6OwAlJZydMLUc+/ODsNvVtFKczOXMLwqcVllu/uhemkm85IXv+x6gFbiPrzKWlCKAm3Mo+D+w5AShWXWTbXBTuTax7o3Si9hre+EPr5hBAQSgEBcPrEYQjUd386qQwyHQVYditdSz3/auUnpdJtSip8PTaMr4ZOxsdCmJYd1cd04voIw1iUf3F9VHph7+z0JEZOHY3rvpAKHV29UKk0Emdk/PMb679e86SUbmcnDn8c1U2dXluuG3a6DTdzdEzz9Iy4/wBCCKUgpS6ToeNHcDY6fkVIvbMv37M83qyTiAFEU+v13W6GET/L+LlhjJ09FZeZlBIdPSug7FTybAQaWktUfjAghYA0FS7PTuGr08cbykyivaMAq4V8rE2Ixf0jdP03pQmhFKqVBZw68jGUMuNny2TzSLV3RP1A8nILG+t/dNyEVAoGgDOnjmLky2Pxc9XLLJU4nWb9hyEUjGh37vmxszg3fBpCCgih219HcYVOK2kzA+L+t3H8lNGGh6lLEzh+6CPIhjJr6+iBnW5P/lghGvKvXn5CCCipUCkv4OyJzxGGwaIyc9ryUX6EV/y8EK7rZgGcTfzLRBhgARBCnPZ9/xHTNJv+84mJC+hbtRwiOl9ISAkDCoZh4OzJYygvzMXnoSjTQq6tA77vQ1l24gWIpfES1g3eFQ/QhhAwlQkIgfFzI5i8MF6vjMpEe74bfmhAGgZGR79KlNbU9HTc0dfOuzKiAHHu8gy+Pn4IBvRgKgyBbHsHAuizWEZHkqVVLpfhuq5+a4nOPZFSQpkmwjDA0UMfIgx8GFJACgU7lUaorPgcnVbysSN3Z/xcOtixIYTE0IkjKM/NQkilG59pw87m4PsBpJl8t12pNBEHpkZ8HIMF07JQ+noU0xdKgDDioKc9140wOkNnvJTsTKDz58ejc2OMhvQUlKmwMDeHoWOHYQgDhqGDklS2HULZMAwDExMXEqUFADMzs3BsFW1vljAMvVsw8H0c++wjBIELKUwYQsJ2UkjlUvEgm/S8o5mZWRQL3fG5OFJKACGElBg68TnKC/MQtSNKTAtONo8gNCAMkXi7+vj4OIQhAOit9obQz6WUiQsT47g4PgYZ/f/SNNHW3olA6D8/PTObMK3S4vISunO3LAvzc7MYPn0UgedDSFPvusvmYEgThhCYSZgWoPurXHsm7j+EVJDReWKnvjgEt1pp6K9sdOa745mSpOcdjY+X0FvsrtcPIWCZNoQUGD1zErPTk3F/JZWJfPcyhNGnylJpIlFaIyOjeGjzA/E5b7UA0bJsXCx9jUul8/H5XoYhkOvoAaI2XkrYzoaHR/QLt2HEz1U7jqE8fxnDp48h9AMIWYEQCk46C+mkAMOA67qJd9uNjo6ht9gFRP2H7pcUQj/Al8c+Q2VhAVJJGIaA6aTQkeuO4jAj8YL60dGv0Fvsjuqjbk8KIaSS+Gr4S8xOXoyOQ9HBZEf3svhcuFLCNj08PIKHHtoYH2lhCAFl6uOFpi5dwMS5Uf2lxNDP25brgpAmDAOYKCXrr3QfYNT7RxmNn5aNSnkBI0PHdR8f1Ucn3YZQmRBColqtXrWj2/M8SCm/bmVXeQ0DLAC+77/nuu7PHcdpGp+PlyawevWquJOQngdDALNTk5CmiYyZj87L0QsSLTsVz2YlHWTGx0vROR0qPu/HNwxUFubhuR7acl1R0GXBtG3YqUz8xnY+6SBzfjz6PaPzoKSCZTtwqxWU5+eRbe+EYeifbdsOrFQaUioYQrY0WJcmLqC30A0venPXn0kEJi9eQDrbBsCAkiaUZcNOpWCaFqRUmJ29nDitmZnZeHDRA7IJAwampy5BKRNt+S49o2Xpxdq2k45mfBSmJqcSpXX+/HgUrEXn1HgKsAzMzc7Cdz1kch3RuUOmzkcnHc/MJB1kpqen4bpu/O9L04QKPLiej/L8LLK5TgB68LQsB3Y6HQ9EpRbKbGLiAvr7VsTPpUwLMAzMTE0inW2DAQOGkrBM/VyWZcMQEpcvzyceZMbHJ7BucG2cj76vZwempyahTBtZZUEoCals2E4KtpPSg6kQmJ6aSZTW9PSMHjSVgu/p+ogwxMLCHKrlMrLtnRBSQNXamZOJzzwqjScrs3K5jMuX5+FY+kwtEeWj5/lYmJtFKt0Ow9A/W6eV1n9OSExMnE+UFqDbWUdHLp4BkZ4JIQzMTk3CclKwnJR+ATBNWE4GptLtzHXdxIN1qTQBEf3uQkooZcEPPFyenQFg6AFTSJiWBdNyYKfS8Qx10mBuanKqYWZW91emZWNufg5utYpsrZ1JvfnIdjJRf9VaoDo7exmObcKP+yt9YOXC/GWkM+0ADCjTgmlacT8spcL5hIEBoNvZsmUFSKngS33+lCEEZmemYVoOTCsFqSSUsmGn0jqIjWYEWwmK4xnFaDwTQmBudhZhAGTaO6Pz2BQsO93QX4kWxzNZ/7pj6s0B1XIZC/PzyOY742DfstO6fkT91XjCvhEALly8hHx7NnouF6ZlIQgCzF+eRSrTrtepCgVlObBr/ZUUKJWu3kEYBVatnREU4RosAL7vf+B53jUPtzly+Ag8z4dS+tA1vRsBsOwULCcNO5WJ/p6Gsmwo04JQJk4PnU08yAwPj+DixUkIpXSAEQUZtVkdy0nBif5u2SldkZSJy5fnMTKc/JyjgwcPQUU/w7Rs/VnTkLCcVPRcKTjpDEw7BdO044Z3+HDyc47ee++DaLbFgjRNmJaDIAij50rDSWVgpVKwHAcy6riElPj44KeJ0/rwowP6bSWaVTRNvSbCtPRgadlpOOmsLkPL0Z+GlIkvT59JPMiMj49jbOxrSFPno7LsaBrfgumkdHpOGk4qrTtL04JUCnPzCzhxPPkhmQcPHtKHRJoWlNL5aBhGPZ20TstK6YFURZ+XPz5wMHFaBw4cjD9PK9OKdk8Bph09VyoNx8nCtB2Ylk5LmSaOfP5F4rQOHz4C1/MbnksHczooTcFOZ2A7mSgfdTuTUuHcufPJZ7DOj2Ps3Pn4uWp/CaHgpHRbdpxM1M7S8XO5nt9S3T/y+dG4ftR+dwD6uaJ07FQalu1AWVZ8AO6BFsrs4wMH9exwdNimadsIwhBmFNw7qSys6L/XZhOEUjh4MPmZSiaKhz4AAAxzSURBVCeOn8Tc/AKE1P1VrUz0y2ZGB8KptO4/bN3OpGlibOxc4jKbnp7G6dNnFvVXKmq3ll3PRyeVgWk50SGZCr4f4MMPDyR+to8PfhrXDz0jbev6WOuv0pl4DKgd+iykwnvvfZA4rcOHj0TPpWCadhyI1Por20nHz1frp6UysW/f/sRpDQ+P4PLleaiG+qiXT1hxf29H+VkfzxQuXpxM/CWhXC7j9NBZiCh/avkEQ0TjmO739VgT1Q+lXz6OtHD+4edHvqj3V5YNZdoAjHo7s6Px2q7no7pGO3Nd169Wq28n/iUa8BwsbdYwjB9nMpneZv+wXK4gCIE71qwGgIbTieun+JqmHb2l6UINQ+CVX/yqpYNGz537Ghs3PqC/jUfT6Y1pqYZO2rR0uq+/vrOlw/SGhs5g3bpBZDJ650v9pFsVVVJLz5bF6Tn4YP+Bax7Mdj3TU9PIZDJYvmyZ/jSJhhODlQ66lGVBmTYsy4GybJw/P4E9u5PXcd/zMTk5hbvvuRt6bY/ORxmvO4mCPNPWz2g58APgl6+82lKZjY6O4r77NkAp3aQMQ8CQYlGnaZoWlGVHdcXBb37zZkuHVg4Pj2Dd3euQSaeh15bp6fD4pHhVr4eWZUNZNvZ/eBBHvziWOK3p6Wmk0xksX7Esfq74M52qByemrdMzbQeXJqfxxutvJk7L8zxMTk7hnrvXAdC764QRfS6R5hX1Xj9jEBr41au/TnxeDgCMDI/ivvvvg5T6059hYNHMsW7XTlw/lGlj1649LZ2ePTI8gnXr1iGTzUDXx4Z21piPUTqmZePTQ0fwaQsHSV6+PAchJVb1rYpPyhaGXk8TD6pmrbx0fZycnMHrLZSZ7/solSaw4b5747WHtc/ktZeM2iyP7qtsBAHw6r+/1lKZDQ2dxQMbH4jbWe0zqLwiOKkFWJbl4M2dexJ/2gKAsbFzuOOOO9Cea4/WVBmLZn4W1ccoHz/77HN88knyF8K5uTkIKfQGG/09DiL63ClkY/2w4/oxOTmNN97YmTgtz/MwMXEB6xuOQYj7YanzUTWML7X++NVXf5P4HD0AGBoawqZND+j1rlE+xv2wMqOXabuhjlh47739OH06+eHpusxWI5fTa7j052RDr/WNPonXn0v/fejsaNNrjubn54c8z/uvAJJPpUUYYGmeUmrO87znbNtuOqs3NnYOXV3dKBYLDWuIVEPQ0xBcwcCut/a2fOfW3NwcZmcvY3DdIOqNWsQzEaZlxzNApmVh//6PW3qrrvn66/P4xje+AdM04zUM8RupMqFsO34TPnd+HDt37m45rbGxcxgYGEAmm6nnY+MbhzJhWTakaWFhoYJf//r1lu/cunjxIjq7OqMt/LVGLa96UzQtB0EI7N79TstXT5TLFSwslDEwMBCvbah9zjDjGbuoE7EdfLD/o5ZPqAd0EH7v+nuhTBV1jvVrf3SQWu/8z5+fuKXrQs6d+xp3rb0r3tFWW9NTeyPVMwk6H+fny/j3V3/d8hUvFy9eRDqbxfIVy6/IRxWnZ0XPFYQG/vCHP7d8wXqlUsH8/AJW37EaylTRmitRnyEx6+1MmRYOffY5Pvoo+UxIzZkzZ7Fu3SBSTqppO9PlZcKKgtRdO/e0FOwDOnhcs2YN2nPt9fqh6i9N8SCjdD6+9trrLQ2egA7ChVToX92vFxU3trOov2oMen73uz+1fBNELQi/66476/2VrOejbKj3lm3j6PGT+OD95LM8NSMjo7j77nVwHHtxMBf1V1LVXy4mp2bw5ptvtXQTBKDL7I41dyCfzzesHW1oZ6buFy3Lhh8Av/nNb3E54WHPNdPT05BSob+/rx6EqIb+StXrvWU72L37HQwNtXRbDDzPx6XJSaxde5fe/BAFc7Vrf2oznzofLRw//iX++Mc/tZQWoF92B+9eByflNLxUNz5XVD8sG5cmZ/Dar1+/qp0tLCygWq3+yvf9/9XyLwLeRbiI4zh/zmQy2663xVZfHPw4TCXj7fFA/Q1g7DZdHKy3Jde3Wgup17m89dbSXPbsOA6efuYp3LlmdXwfW+1Nu3Zx8PvvL+Flz48+goe3bI7PIoovNI3Wk3366WG8++57S3K7+sDgAJ7e8bi+OLihzAwhIKMy27Vr95Jd0P30jifR3dWht5A3bI8XQi7pBd2OY+OZZ3bowxfjMtM7aYxoPcgf//jn21JmtWMiEO3SEVLh6NET+N3v/rB0F3TviNqZv7jMhJC4eGlyyS4Orrezjnj7P1BvZ67nY/dbby/ZxcHbt38P99wzqMssOv6l1s6kVHj/gw/x7p+X6OLgzZvw3e8+GtePRf2VVBgaOoudO99aknbW39+HF174AZQUi9tZFARduDjZ8gzglfL5HJ5++il9wO+VZSYkPN/HrrfexsklKTMb27bpi4Pj4zwAwEC8vuj9Dw4s2QXdmzdvwsMPfwtKiXo7q81CSoXTQ2exa+fupbmgu3bZcyZ9RTszonY2hV07l6bMahd0r1jeWz8+BPUycz0fu3cvXTvbtu1hPPDAffrOz9rF0obeACSVwvvvf9j0smff9zE5OXmuWq0mO4uoCQZYi1lKqfOFQqHjen/IcRwMDKxFsVhAT6Eb1UoV4+MllEoTS1I5rjQ4OIBCoUefXxKGmChdwPh4CSdPnlqSRtaoWCxgcHAAPYUeOI6N6alplCYu4MTxk0sSNDbK5/NYO3AXisUCcu3tqFQq+rlOfYnxJbi9vZHt2Fg3OIiegp6FRKh305w/P46TJ2/99vYrDQyuRW+xiFWrVgKGXuw5UbqA48dPtDwjdy3F3iIGBu5CsVCAZVuYmZlFabyEkye/xNRUsgX7N5LL5TC4bgCFnm7k8jmUyxVMRPV+KYKdRnE76y2gp6cbhmFgZHj0trez/v5VCNjOWmLbNtat+2tuZ2tRLPT8BdtZD3L5dpQXypiYuHDb21mhpxv4C7WzYlH3V3+Jdtbe3oZcPhe3s+Gzw9fMx0uXLs34vv+E67qtT31GGGBdbWsqlXqjo6Pj9hztSkRERP/hTE1Nzbuu+59d1/3vS/HzGGA1t0Up9dt8Pt9tWdb/69+FiIiIbhPf9zE1NTUVBMF/cV33vy3Vz2WAdW0px3HetSxrYzab/LoKIiIi+o9tYWEBc3Nzo9Vq9TkAybftXgd3EV6b53ne/wiC4EKlUhlwXTcdBIEKG45OICIiov8/hGEIz/NQrVZRLpe9hYWFr8rl8v90XfcpAMlP9b0BRgk3pwfAPUqpbQDuB7BGCFENwzD5hUlERET0F2UYxnQQBG0AzgghvqhWq38EcAbA0q/kJyIiIiIiIiIiIiIiIiIiIiIiIiIiIiIiIiIiIiIiIiIiIiIiIiIiIiIiIiIiIiIiIiIiIiIiIiIiIiIiIiIiIiIiIiIiIiIiIiIiIiIiIiIiIiIiIiIiIiIiIiIiIiIiIiIiIiIiIiIiIiIiIiIiIiIiIiIiIiIiIiIiIiIiIiIiIiIiIiIiIiIiIiIiIiIiIiIiIiIiIiIiIiIiIiIiIiIiIiIiIiIiIiIiIiIiIiIiIiIiIiIiIiIiIiIiIiIiIiIiIiIiIiIiIiIiIiIiIiIiIiIiIiIiIiIiIiIiIiIiIiIiIiIiIiIiIiIiIiIiIiIiIiIiIiIiIiIiIiIiIiIiIiIiIiIiIiIiIiIiIiIiIiIiIiIiIiIiIiIiIiIiIiIiIiIiIiIiIiIiIiIiIiIiIiIiIiIiIiIiIiIiIiIiIiIiIiIiIiIiIiIiIiIiIiIiIiIiIiIiIiIiIiIiIiIiIiIiIiIiIiIiIiIiIiIiIiIiIiIiIiIiIiIiIiIiIiIiIiIiIiIiIiIiIiIiIiIiIiIiIiIiIiIiIiIiIiIiIiIiIiIiIiIiIiIiIiIiIiIiIiIiIiIiIiIiIiIiIiIiIiIiIiIiIiIiIiIiIiIiIiIiIiIiIiIiIiIiIiIiIiIiIiIiIiIiIiIiIiIiIiIiIiIiIiIiIiIiIiIiIiIiIiIiIiIiIiIiIiIiIiIiIiIiIiIiIiIiIiIiIiIiIiIiIiIiIiIiIiIiIiIiIiIiIiIiIiIiIiIiIiIiIiIiIiIiIiIiIiIiIiIiIiIiIiIiIiIiIiIiIiIiIiIiIiIiIiIiIiIiIiIiIiIiIiIiIiIiIiIiIiIiIiIiIiIiIiIiIiIiIiIiIiIiIiIiIiIiIiIiIiIiIiIiIiIiIiIiIiIiIiIiIiIiIiIiIiIiIiIiIiIiIiIiIiIiIiIiIiIiIiL6D+j/AnOW389YyT4TAAAAAElFTkSuQmCC;rotation=-180;" vertex="1" parent="1">
          <mxGeometry x="480" y="190" width="170" height="170" as="geometry" />
        </mxCell>
        <mxCell id="ML4Psx4uvvqS0k3KW8NW-3" value="" style="shape=image;verticalLabelPosition=bottom;labelBackgroundColor=default;verticalAlign=top;aspect=fixed;imageAspect=0;image=data:image/png,iVBORw0KGgoAAAANSUhEUgAAAHMAAAB/CAYAAADcgf2dAAAABGdBTUEAALGPC/xhBQAAACBjSFJNAAB6JgAAgIQAAPoAAACA6AAAdTAAAOpgAAA6mAAAF3CculE8AAAABmJLR0QA/wD/AP+gvaeTAAAAB3RJTUUH6AcSBBQQSuMfpgAAE5ZJREFUeNrtXW10HOV1fu47s19aSf5CxnIwid2TJlgGH2K3xQESQzDQgBODkSmBcwptg4GEphgCbWnJuibGYBKSkKTQ5IQf5QBHTkzAEHLAIGNjG04xp4BlSkgAGzuSLWNHsrWr2Z25tz+0s5qV9mt2Z1cra+7B7Gi0o515n/e597n3vjNLqGOLxWLqtcgXZzJZs0msOWDMFtAcCLcK0AyRsACNEGmGcFhAjRAZAJAUkWOAmCLoI4glgh4h2cvMewlqHyxrryXYu23t5T0ACU4Ao3o6mcvWbp6WCtAXLMHnQXIWGAtEJAJI+j/n69D4i/NVBDL0g+N3kv5x+NX5PhHEAX4Vgq3QZOPWNSve9sEs09pjHcGBxunLIXIVwBdBELRBGwKgRCBtsPIA6Tw2A6QNfDa4Owjy/W3rrvyVD2apJkKXfP/lKyBYB+E5wwPsBDI3oJl9DkCdx44EOddkGMXgUfvwEivrGzvv+dr/+WAWZGNXMN7Y+9+ArMhmSh4gh1lTHMgsQCtm9XEQX7Pj3qufGg9gqpoD2dGhJZp6N40EEsWAROlADv2vdCCHjxnlnhvBtHHRbY+t9MHMYYn901eJyIXp4XW6tRxiBaNjnOOY4d8hB6tHgJs5ZORkGAG441zS+xQgP1n07Ucv9d2sw5Y90Dk5xXQAwg25XGJ6EA8B1AXhoIgsECA8ksG2Sxy1zwP3XEB09VnK/Oz/rL+ux2cmgJSJ5RBpyMOGYyC+tmnOn2b+9p+XnP/bf7noHEtpMwD8wEm3DDBuWD1iX5msnqQs7bs+M9P25fs7nySRZTnYkIIl5z33rxduz3Xckrt/cxeA1TnTjXJTkPJYzabGf75r/bV/mPDMJOG2nGwAHskH5BCjI2sF8j4yOqVgjHNoGsli42ggXbNaaRZdMeHdbHtHhyag2blSEGIpmKBviZ1nEuPXXijXQhUi5KoQYcQ+lq9OeDCP9zRGIaI72WUPIhF1FzuewQdKiXFSRLnmSUEKu2dk7fv0hAczcCwYyTeIDMws4VQ/UbSwUGqFyK17zhZd0xZf+0h4QoM5GLaC+djAzO2Fjl3w8OsBCF9WJ4UFSkwyJ/lFgzxsAORvl6z9zRfzHTOpu/suALPrqbBQj6bXGMp8bNAJ9OySNc/demR6yy92rVyYAoAvrd04TVKBNQTcWLJYGR3jipcL4bKwQD6YxdgQBeGhKYcOrrtgzTO7wQiLKfMJCFQY4zwvLPjMTADQS2LDZAjOEaowBSmiXIumIIVYXafMVGPBTC/KbCWlIFUqLPi1Wbhjg2cpSFUKCz6YWWyQgmxwl4KglC4IKu5t1r2ara2bdQwiCrIBudmQJwWRUtzzKFaX1dsEBBiY6ALIUlpcR2oDCGAeMVAAKC142KlEaag8NLQp6U2BENL708dCwMP72qteWKhTBUQ4wezsO55gQKjg8kp7JrmJ1Y59qQDN2P3Drx+c8BWgmjjzKhcW6tXPVuRm2zs6tL69k6YFTK3Rud8YXZkt9MscZuQ6csQPuT+DuUaFBftXvbfPBKeKF94t1U8zv3e4bsBcen/nSUzcLhadC5KzBz7EqZoIWGWzQRvFBm3YrWkoodOvMoOoORmiFYpxWu0KC1kgWb8E1KJSfKD03JoE8A4IG0HqcZq+/r2ag7n0/s7PMnAHA38DpjBozDr9dVFYqMCCAOZDZD7Y/Hfp+daDCHCMpj3YX3UwF8c69WiTupWFVwMI1UWnf4wLC14UTdKfpYNxCwy6WPbffCGd8uD+qgmgZQ90Tm5sok4SXjcMJKqfkHshVqpUWPAQyPQ2A+DTQLxVDt00oypgfuUHm082mbZA5JzibPA2IS9XrFS7sFAZiOyYgLlAldkw5XGRds1TMBfHOnW29F8CMr9SNtToFoLqs9oTNvIQqODRoIoALIuxf+o3PQUz2qTuAXBOWdJ97G4h8DYFES8qsDkZOMxUpP8590P+Td67udkTMJc+sPVzBLm1Iulei05/LVKQsllpu1UHWLlcrDjiZub9chJCg//oDTNF/kNEqFLpXutbCOonBckrcmywSmCstbLc2KmGc8ktf8HMl4wpG8ZtClKSyMkdN0eDego+arygIjCFcE09sCGnq6sxq91jWaLIydp2MHbke4SvKB9MERJg2fjp9FeP1aVYSPGxYSA57ErklMbYS0Tcd7QUACxd/9KZYD513HT6xzYF+dOu/1oZH/6RJ7sUOaUo3VZ8cM0ZZYEpSp07njr9VSkslG57M5feFQtCZJZrkVOK0lVyTnlginx+rNhQH4UFV/Z8ZmvK4TMA0csQOcWVLvMityemp4f2rDFJyOuksODGGLzJwYUlpbFRcqcueY8BAHENplp6f+dJEJxa+4S8PgoLLu3Nt04+5Lgp2LqqApFTTOnOkXevOskVmGxZp49JClIHhQXXGQjR7YjFhtYy7P/GlyByegUip/gkUKl57mImybwxS0HGsLBQhj365k9XPj/0cTEFknsrFjnFJoEmrsDULdBnaJyV2SouLLg22hUJD1yf+bG752oIFjgurvy4mXcbgKDNFZgEnDqeymwVFxbcO9cdLHLZzgdWJQBADtz4GTD/KDeILkVO8Tj7KVdgCssnxkunv8YpiAXgodThaau6NqxIAoB8fHMz4qmNIEwuDkSFjB26kFNcpiZy8njo9NcwBUkB9BwL3/nWQzfuzlxC980tSCSfBGRuWS6zJFBHTYJZ7pgJRFF/ZbYeiPxRgOMgJMHpQqV9iwIT7JsV0k9FGJ5MbH+ifa5cPCKCPhagm0TeMEmeefs/bzqa5Wj33TAPZvJpQGZ7Albpk2CSdC7W6bwtZmnMTD/+bIw7/cdA6BCTn9aDatsr664+ijow+eDaMPTQt0ByJ0SaqiJyir3nVD0KoK/UCpA+hp3+BAl+aA3yPa89eE0/6sTkg2vDCESuBKzVEPlkVjrhucgpMglS5AJMkUEBGsYgBXlWkX7TK/et2Jd3UI/+02T0hz2+uSnHuIQxBabWCjHnAbQY4IuHuiGogcgp8nd10tzEzEGINNQ2BeEf7Wh47xa7mgIA0nt7EyzrUhAuh2AhgFYYCCGU8nhhVXD04JkCiOUIumXFt3JFTuFtK5QoXc2K9AGYWqtOP0Nu2Hnf1Q8PC93rAzjUdB0svhtAi7c3Jtc4vlVjEhxD3E3R4ACLzK5Fpx8s63au/9owkAdvmYOD6mkAbd4+LGCM4pv3kyCJBZtKZ6YlcoBqkIIw06ad0XfvzAx3z6qzIOppQFo8li9jF9+8nwT7iUqf5ToJPsyk99VLQeIw1Y2ZjsMfb/0kQDUEskbxrdg5uP+7e90VDQR7QNXt9BPwvR0PrDiQWWqhjj3lLZB1Et+8nwS/dwUma9ZuZVE1O/19QGJ95hOnHbsRwHxf5JQwCQivu+pnJiKJdwQwq9XpJ8ET2+/7+2MAIIduagToTu9A9GzhcXmrz73oWRZsXJvuwNy5akUCIm9Xq9MPyNPDC2gaLvXGvVa0HCP/JJC6mgT9iMddfcmcSg/Nq1Xq9AtocJsDhGXVdasVLTzOfs/YT4LnaeGulGswAdlZTLlKGZ1+AvbbLjbdnji7crdabddWJ5OA5TnXq/MAQAm9XEy5ooxOvwgODld6YgqCGd6xsd7im6eTwATzM2WBuTm2dB+Qjpse9jYZMlyKOnS0Ba6fOyTjJb55PAnwAs3fcagsMAGABc963eknZ4vf1IKeihycECInxyQAIPJYOf5rGEzL/IVNMS9vIfBFTqmTIGNHYRgbKwJz691XvAfBi17eQmA/vdIXOcX+btYilp/Rwl3xisAcGku+1+tbCHyRU2gSjBojA4p/Wq4/ywJzy93LN4PwpOe3EPgip5BbdZBSHqK5O/Z6AiYAUEqtAnCk1G9YL1RY8EVOAZEz2j6GUdn3c44Cc8u6yz5koisBmKNTELeFBfZFTjE2Dg/HTfS5bb2eggkAr9y9fDPA1wnEyE5Byigs+CKnOJCEtXT69o5KC515H4S4be2Vjwp4iUB6yu9t+iKnCJAC4C5q2+5JJ6ngY72333PVtkBYfRoka0TkmOve5qhT90WOYyzeAMvZNG/7Gq86u0XLa1tiK44DuGtx7JG1qYHg+QJcSCSzmTGdINM5K5YSIOxgLo/4klOuxXKM90c1kMl+TsBIIFDkPOCYWA7vxI7JB5QCogngEEA9IN4N4Cmat+N/4bHV7NsT5MCqWSBzX9WXY8x+QrlZBHUiWe2/crHqyzEmrtUQzEFAqPprcnwwa8jMaq85fX85D61pq+LCLA7MoNNfPDixwaztmtMqrs477jNznCw8LuHv+m52RBI9Xlef+zGzADOrHN88mwS+AHJYArC/RmosVp+XdBPQ+E53xkYA1Y/IEUBegOBlQAYBWQDI5RAJj8c0p8ZulutJ5BwG4Qo6rfPlrPn25hdmQ+Mn4en9MLUxNSbMHPt2leQCEgBo/tYPoNRfAzjig5mXlBaX3KmQarSrnO/nF3IBmQF07rZuAD/Oey2pIE9sMPsTvRBm122lkttVXGQSONtm0ll88qmX8kGJM7d9PKHBpLYNSUB6y+9Zunx/oUlAKP6cAGXlW+7YTYQJzsyhmLkjf3wrckuel3GWufijPwnz8lzDG37MHBqIx8vu3LuJs8UnQbu885fTCug0gtDK3COmHvPBBAAKboLw++7iW4XLN3ICjMmwAo/KjkWRnOe5++zvAvirHGw9gD7rmXoFk2r9gfJB+8VgPOdJ0u86Px159fQ2gDXQ9U5IyoCJhRDcBsKX87DyMpq77dc+mE5A319+HwTfrt1zdTyxn9O87V/388yRNvtXd0Dws6qKHC+BJHRgz8wb6r1oQGP54fL7ZddD5MeABCrqbOR1xZWfIogeRCJxm9vnC0w4MAFA3rt0EQQ/AXCmdx0TT0bmXRB9k+a+snm8lPOoHk5CpF3D747/HYA7APkzT0WOe9sHwnokBh8eD2ysOzCHQY0p/O7Vr0L4HwBZApFAjUROCsBmCH6Od2Y+RSs2WBiHRvV6YtJ10VSo1FcALIHI+YDMyB83y7KPAHQC9CIYm+iMV45inBuNh5MUAWHPuaeBaOHQN/3wfAjmgGQmBMUee50E0A3gHUDeBKm3wPwanb7jDzjBjMbzycvrCwKIRFrBNBkwG6FpDQAAE0ehYIL0g5i75eBEvV3BN998880333zzzTfffPPNzzNLO2cRwerVqwkAurq6Cl5DW1tbJseMxWIn9O3V9QYmxWIxQrrP2traSlOmTKGenh46cuQINTc3EwD09/dTNBolABgYGCAAaGkZ/ej33t5eRKNRAYDm5mbp7u5Gc3Oz9Pf3CwBMnTpVjhw5Iq2trdLd3S1dXV3S1tYmMcd3lPlglmixWEwBUK2trWQYhrIBi0aj1N3drSKRCEUiEYrH4xQKhWhwcJBCoRA1NzdjcHCQACAQCGSuwTAMAoBQKJTFvlQqJQCQTCYlHA6LYRjS19eHcDgsLS0tPDg4KPF4XAYGBgQA2yAD4K6uLuno6GAiEh/M/MxTAFRzczNZlqUaGhrIsiwVj8dJRFQoFKJgMEjMrAKBAOm6TrquUzKZzHoFAE3Tcl6HZVkCAMFgUOLxOILBoJimKaZpSiqVEqUUh0KhzLZhGGIYhhARJxKJzKqyqVOnSigU4u7ubgHA9crcmoHZ3t6utbW1ZQEJQM2aNYt6e3uViKimpiYVCASImZWu68TMyrmtaRppmkYiopRSFA6HkUqlSClFpmnarIRhGNB1fegpPswSCATEsqysf0op1jSNTdMUpRT39fWJUoqVUpxMJoWIWNM01jSN4/G4aJrGuq5zPYNaCzCpvb1dXXDBBcp2pdFoVLOZaFmWEhEVjUaVDV44HFa6rpNlWYqZVTAYVDaYgUBAMbNSSlH6vRkwlVJkA2i/KqWYmcXeTiQSTtDYsiwxDIPtfen3ZLYNwxBN0/jIkSOOxUnD/+oJ0Krf0pd2q9Td3U3pyaMGBgYoFAopy7JUKBQiZibDMCgSiRAzUzKZJCLKAtIGEUBmXzAYVJqmZW3bIPIQ4myaJgNgXdfZNE2KRqNsmiZSqRSCwSCSySQ3NTWRYRhkmqYKBoPCzCrtfhUAKx6PUyQSIaUUaZpGuq5TKBSizZs329ckE4aZHR0d6ujRo8owDGWaprIZJyJZ7jWRSGiTJk3KuFcbcBFRDQ0NZBiGlgbcZjDZLCWiLGbqui6pVAo2oE5mmqbJRJRhp+1y+/v7JRwOW7brHRgYYKe77e3trWtm1ipm5gR0pKu1BU8kElG54qUNqqZplEqlMkCGQiHYMTPNNui6LoZhwI6XzJx5JSIeGTcHBwdZKcW2GFJKcX9/P7e0tPBHH30k9e5ia65mc6UiAFRLS4sKh8MZIeRUssysotEobGBtFWsDmk/J2hYMBiWRSGRANU1TgsGgpBkrNgtzKdo0O7OA7Orqkg0bNjDqsPgwZnlmvhzTZqwNrjO/DAaDmdzSMAwyDIMaGxsz+eVIs/NNO8+005BwOCzJZFJs4BoaGiSRSIidjjgKCzyecs26qQDFYjHV1dVFbW1t1Nraagsmla7ekF31GRgYoJaWFhw/fpwAIBKJFLyGaDQqhw8fRmNjowBAPB6XdOVIbNBGVoLSLnTclf7GyYIuIbsWC8ctFa2trVnnn54A9u/EsT+zPXfuXNmzZ4985zvfESIC4K8P8q0O7f8BKB+AqFkZPPYAAAAldEVYdGRhdGU6Y3JlYXRlADIwMjQtMDctMThUMDQ6MjA6MTYrMDA6MDDZGcxGAAAAJXRFWHRkYXRlOm1vZGlmeQAyMDI0LTA3LTE4VDA0OjIwOjE2KzAwOjAwqER0+gAAAABJRU5ErkJggg==;" vertex="1" parent="1">
          <mxGeometry x="176.09" y="247" width="87.83" height="97" as="geometry" />
        </mxCell>
        <mxCell id="ML4Psx4uvvqS0k3KW8NW-5" value="Computer with Python installed" style="text;html=1;align=center;verticalAlign=middle;whiteSpace=wrap;rounded=0;" vertex="1" parent="1">
          <mxGeometry x="132.5" y="200" width="165" height="30" as="geometry" />
        </mxCell>
        <mxCell id="ML4Psx4uvvqS0k3KW8NW-6" value="ESP32" style="text;html=1;align=center;verticalAlign=middle;whiteSpace=wrap;rounded=0;" vertex="1" parent="1">
          <mxGeometry x="530" y="200" width="60" height="30" as="geometry" />
        </mxCell>
        <mxCell id="ML4Psx4uvvqS0k3KW8NW-14" style="edgeStyle=orthogonalEdgeStyle;rounded=0;orthogonalLoop=1;jettySize=auto;html=1;exitX=0;exitY=0.5;exitDx=0;exitDy=0;curved=1;dashed=1;" edge="1" parent="1" source="ML4Psx4uvvqS0k3KW8NW-11">
          <mxGeometry relative="1" as="geometry">
            <mxPoint x="390" y="230" as="targetPoint" />
          </mxGeometry>
        </mxCell>
        <mxCell id="ML4Psx4uvvqS0k3KW8NW-11" value="ESP32 connected physically to the computer via micro USB" style="text;html=1;align=center;verticalAlign=middle;whiteSpace=wrap;rounded=0;" vertex="1" parent="1">
          <mxGeometry x="440" y="130" width="170" height="30" as="geometry" />
        </mxCell>
        <mxCell id="ML4Psx4uvvqS0k3KW8NW-19" style="edgeStyle=orthogonalEdgeStyle;rounded=0;orthogonalLoop=1;jettySize=auto;html=1;exitX=1;exitY=0.5;exitDx=0;exitDy=0;entryX=0;entryY=0.25;entryDx=0;entryDy=0;" edge="1" parent="1" source="ML4Psx4uvvqS0k3KW8NW-15" target="ML4Psx4uvvqS0k3KW8NW-4">
          <mxGeometry relative="1" as="geometry" />
        </mxCell>
        <mxCell id="ML4Psx4uvvqS0k3KW8NW-15" value="User input" style="text;html=1;align=center;verticalAlign=middle;whiteSpace=wrap;rounded=0;" vertex="1" parent="1">
          <mxGeometry x="10" y="217" width="60" height="30" as="geometry" />
        </mxCell>
        <mxCell id="ML4Psx4uvvqS0k3KW8NW-17" value="Output" style="text;html=1;align=center;verticalAlign=middle;whiteSpace=wrap;rounded=0;" vertex="1" parent="1">
          <mxGeometry x="20" y="302" width="50" height="30" as="geometry" />
        </mxCell>
      </root>
    </mxGraphModel>
  </diagram>
</mxfile>
